<svg xmlns="http://www.w3.org/2000/svg" xmlns:xlink="http://www.w3.org/1999/xlink" viewBox="0 0 48.25 32.8"><defs><style>.cls-1{isolation:isolate;}.cls-2{opacity:0.4;mix-blend-mode:multiply;}.cls-3{fill:#ccc;}.cls-4{fill:#fff;}.cls-5{fill:url(#Degradado_sin_nombre_36);}.cls-6{fill:url(#Degradado_sin_nombre_3);}</style><linearGradient id="Degradado_sin_nombre_36" x1="342.47" y1="391.37" x2="390.72" y2="391.37" gradientUnits="userSpaceOnUse"><stop offset="0" stop-color="#f77062"/><stop offset="1" stop-color="#ff5f8d"/></linearGradient><linearGradient id="Degradado_sin_nombre_3" x1="354.71" y1="387.22" x2="383.15" y2="387.22" gradientUnits="userSpaceOnUse"><stop offset="0" stop-color="#8ba6d1"/><stop offset="1" stop-color="#dfeee8"/></linearGradient></defs><title>yat</title><g class="cls-1"><g id="Layer_2" data-name="Layer 2"><g id="OBJECTS"><g class="cls-2"><path class="cls-3" d="M390.72,390.55l-13.25-7.65L349.56,398a6.6,6.6,0,0,0-2.81,2.85L342.47,410l16.6-2a14.24,14.24,0,0,0,5-1.64Z" transform="translate(-342.47 -377.24)"/></g><path class="cls-4" d="M390.72,390.53v-5.08L379.43,384l-24.84,13.18a5.64,5.64,0,0,0-2.4,2.43l-9.72,5.32,6.08,2.81,14.15-2.05a12,12,0,0,0,4.26-1.4Z" transform="translate(-342.47 -377.24)"/><path class="cls-5" d="M390.72,385.45l-13.25-7.65-27.91,15.13a6.55,6.55,0,0,0-2.81,2.85l-4.28,9.16,16.6-2a13.84,13.84,0,0,0,5-1.64Z" transform="translate(-342.47 -377.24)"/><path class="cls-4" d="M387.25,384.26l-9.56-5.52-20.81,11.05c-2.88,1.67-2.86,4.38,0,6a11.52,11.52,0,0,0,10.45,0Z" transform="translate(-342.47 -377.24)"/><path class="cls-6" d="M379.4,383.29l3.75,3.36-15.79,9.19a10.64,10.64,0,0,1-10.45,0s-3.09-1.48-1.94-4.26l3.33-7.32,10.62-7Z" transform="translate(-342.47 -377.24)"/><path class="cls-4" d="M379.4,383.29l-10.48-6.05-8.7,5.05c-2.88,1.68-2.86,4.39,0,6.06a11.55,11.55,0,0,0,10.46,0Z" transform="translate(-342.47 -377.24)"/></g></g></g></svg>