<svg xmlns="http://www.w3.org/2000/svg" xmlns:xlink="http://www.w3.org/1999/xlink" viewBox="0 0 52.17 186.28"><defs><style>.cls-1{isolation:isolate;}.cls-2{fill:#ccc;opacity:0.4;mix-blend-mode:multiply;}.cls-3{fill:url(#Degradado_sin_nombre_2);}.cls-4{fill:url(#Degradado_sin_nombre_2-2);}.cls-5{fill:url(#Degradado_sin_nombre_71);}.cls-6{fill:url(#Degradado_sin_nombre_2-3);}.cls-7{fill:url(#Degradado_sin_nombre_2-4);}.cls-8{fill:url(#Degradado_sin_nombre_71-2);}.cls-9{fill:url(#Degradado_sin_nombre_2-5);}.cls-10{fill:url(#Degradado_sin_nombre_2-6);}.cls-11{fill:url(#Degradado_sin_nombre_71-3);}.cls-12{fill:url(#Degradado_sin_nombre_2-7);}.cls-13{fill:url(#Degradado_sin_nombre_2-8);}.cls-14{fill:url(#Degradado_sin_nombre_71-4);}.cls-15{fill:url(#Degradado_sin_nombre_3);}.cls-16{fill:url(#Degradado_sin_nombre_2-9);}.cls-17{fill:url(#Degradado_sin_nombre_2-10);}.cls-18{fill:url(#Degradado_sin_nombre_3-2);}.cls-19{fill:url(#Degradado_sin_nombre_3-3);}.cls-20{fill:url(#Degradado_sin_nombre_11);}.cls-21{fill:url(#Degradado_sin_nombre_71-5);}</style><linearGradient id="Degradado_sin_nombre_2" x1="610.31" y1="208.32" x2="615.09" y2="208.32" gradientTransform="translate(2.37 -5.88) rotate(0.56)" gradientUnits="userSpaceOnUse"><stop offset="0" stop-color="#8ba6d1"/><stop offset="0.21" stop-color="#97b0d4"/><stop offset="0.58" stop-color="#b5cadd"/><stop offset="1" stop-color="#dfeee8"/></linearGradient><linearGradient id="Degradado_sin_nombre_2-2" x1="608.51" y1="206.14" x2="611.86" y2="209.76" xlink:href="#Degradado_sin_nombre_2"/><linearGradient id="Degradado_sin_nombre_71" x1="611.62" y1="208.77" x2="610.9" y2="209.39" gradientTransform="translate(2.37 -5.88) rotate(0.56)" gradientUnits="userSpaceOnUse"><stop offset="0" stop-color="#294077"/><stop offset="0.19" stop-color="#2c457c"/><stop offset="1" stop-color="#395a8f"/></linearGradient><linearGradient id="Degradado_sin_nombre_2-3" x1="591.84" y1="194.67" x2="596.62" y2="194.67" xlink:href="#Degradado_sin_nombre_2"/><linearGradient id="Degradado_sin_nombre_2-4" x1="590.04" y1="192.49" x2="593.39" y2="196.11" xlink:href="#Degradado_sin_nombre_2"/><linearGradient id="Degradado_sin_nombre_71-2" x1="593.15" y1="195.12" x2="592.43" y2="195.74" xlink:href="#Degradado_sin_nombre_71"/><linearGradient id="Degradado_sin_nombre_2-5" x1="619.17" y1="209.71" x2="623.34" y2="209.71" xlink:href="#Degradado_sin_nombre_2"/><linearGradient id="Degradado_sin_nombre_2-6" x1="617.6" y1="207.81" x2="620.53" y2="210.97" xlink:href="#Degradado_sin_nombre_2"/><linearGradient id="Degradado_sin_nombre_71-3" x1="620.32" y1="210.1" x2="619.68" y2="210.64" xlink:href="#Degradado_sin_nombre_71"/><linearGradient id="Degradado_sin_nombre_2-7" x1="589.51" y1="188.01" x2="593.69" y2="188.01" xlink:href="#Degradado_sin_nombre_2"/><linearGradient id="Degradado_sin_nombre_2-8" x1="587.94" y1="186.1" x2="590.87" y2="189.26" xlink:href="#Degradado_sin_nombre_2"/><linearGradient id="Degradado_sin_nombre_71-4" x1="590.66" y1="188.4" x2="590.03" y2="188.94" xlink:href="#Degradado_sin_nombre_71"/><linearGradient id="Degradado_sin_nombre_3" x1="610.43" y1="204.36" x2="605.98" y2="196.63" gradientUnits="userSpaceOnUse"><stop offset="0" stop-color="#8ba6d1"/><stop offset="1" stop-color="#dfeee8"/></linearGradient><linearGradient id="Degradado_sin_nombre_2-9" x1="597.49" y1="204.61" x2="620.8" y2="204.61" gradientTransform="matrix(1, 0, 0, 1, 0, 0)" xlink:href="#Degradado_sin_nombre_2"/><linearGradient id="Degradado_sin_nombre_2-10" x1="601.17" y1="201.72" x2="597.88" y2="192.29" gradientTransform="matrix(1, 0, 0, 1, 0, 0)" xlink:href="#Degradado_sin_nombre_2"/><linearGradient id="Degradado_sin_nombre_3-2" x1="623.89" y1="190.34" x2="623.52" y2="182.15" xlink:href="#Degradado_sin_nombre_3"/><linearGradient id="Degradado_sin_nombre_3-3" x1="618.57" y1="187.43" x2="629.78" y2="187.43" xlink:href="#Degradado_sin_nombre_3"/><linearGradient id="Degradado_sin_nombre_11" x1="586.22" y1="201.6" x2="623.76" y2="201.6" gradientUnits="userSpaceOnUse"><stop offset="0" stop-color="#ffe124"/><stop offset="1" stop-color="#ff719c"/></linearGradient><linearGradient id="Degradado_sin_nombre_71-5" x1="586.6" y1="206.08" x2="594.55" y2="206.08" gradientTransform="matrix(1, 0, 0, 1, 0, 0)" xlink:href="#Degradado_sin_nombre_71"/></defs><title>plane</title><g class="cls-1"><g id="Layer_2" data-name="Layer 2"><g id="OBJECTS"><path class="cls-2" d="M612.93,354.9c1-.55,1.81-1,2.05-1.14a6.5,6.5,0,0,0,2-3l2.45.16a1.73,1.73,0,0,0,1-.27l.24-.17-3.4-.89c.08-.38.14-.69.14-.69v-3.88l-.22.16a2.28,2.28,0,0,0-.85,1.2l-.68,2.37.06-.2-.77-1.44a.9.9,0,0,0-.33.75l.1,1.85.79-.45c-.5.29-3.8,2.2-6.35,3.62-2.57-1.64-4.45-5.77-4.45-5.77a1.15,1.15,0,0,0-.54,1.31,39.37,39.37,0,0,0,2.22,5.94c-1.88.94-2.87,1.56-3.39,3.27s.85,1.94,2,1.31c1-.52,2.32-1.21,3.72-1.92A49.85,49.85,0,0,0,620,358.17a3,3,0,0,0,1.66-.51l.12-.09Z" transform="translate(-586.22 -173.02)"/><path class="cls-3" d="M610.64,207.73s3.57-2.18,4.61-1.25-2.73,4.17-2.73,4.17Z" transform="translate(-586.22 -173.02)"/><path class="cls-4" d="M611.58,207.78c-.67-.4-1.23-.09-1.24.7a2.71,2.71,0,0,0,1.21,2.14c.67.4,1.23.09,1.24-.7a2.71,2.71,0,0,0-1.21-2.14" transform="translate(-586.22 -173.02)"/><path class="cls-5" d="M611.58,208c-.55-.32-1-.07-1,.57a2.25,2.25,0,0,0,1,1.75c.55.32,1,.07,1-.57a2.25,2.25,0,0,0-1-1.75" transform="translate(-586.22 -173.02)"/><path class="cls-6" d="M592.3,193.9s3.58-2.18,4.62-1.25-2.74,4.17-2.74,4.17Z" transform="translate(-586.22 -173.02)"/><path class="cls-7" d="M593.25,194c-.68-.4-1.24-.09-1.25.7a2.71,2.71,0,0,0,1.21,2.14c.68.4,1.23.09,1.24-.7a2.72,2.72,0,0,0-1.2-2.14" transform="translate(-586.22 -173.02)"/><path class="cls-8" d="M593.24,194.21c-.55-.32-1-.07-1,.57a2.22,2.22,0,0,0,1,1.75c.56.32,1,.07,1-.57a2.2,2.2,0,0,0-1-1.75" transform="translate(-586.22 -173.02)"/><path class="cls-9" d="M619.49,209.3s3.12-1.91,4-1.1-2.39,3.64-2.39,3.64Z" transform="translate(-586.22 -173.02)"/><path class="cls-10" d="M620.31,209.34c-.59-.35-1.08-.08-1.09.6a2.39,2.39,0,0,0,1.06,1.87c.59.35,1.08.08,1.08-.6a2.35,2.35,0,0,0-1.05-1.87" transform="translate(-586.22 -173.02)"/><path class="cls-11" d="M620.31,209.57c-.49-.29-.88-.07-.89.49a1.94,1.94,0,0,0,.86,1.53c.48.28.88.06.89-.5a1.91,1.91,0,0,0-.86-1.52" transform="translate(-586.22 -173.02)"/><path class="cls-12" d="M590,187.3s3.12-1.91,4-1.09-2.39,3.63-2.39,3.63Z" transform="translate(-586.22 -173.02)"/><path class="cls-13" d="M590.86,187.34c-.59-.34-1.07-.07-1.08.61a2.37,2.37,0,0,0,1.05,1.87c.59.35,1.08.08,1.09-.61a2.35,2.35,0,0,0-1.06-1.87" transform="translate(-586.22 -173.02)"/><path class="cls-14" d="M590.86,187.57c-.48-.28-.88-.06-.88.5a1.9,1.9,0,0,0,.86,1.52c.48.29.88.06.88-.49a1.94,1.94,0,0,0-.86-1.53" transform="translate(-586.22 -173.02)"/><path class="cls-15" d="M586.55,207.9c1.55-5.07,4.59-6.67,10.57-9.66s24.23-13.6,24.23-13.6l5.08-.9s-.6,3-1,4.63-2.49,6.51-5.68,8.75c-2.11,1.49-19.38,10.14-27.48,14.41C588.91,213.27,585.06,212.78,586.55,207.9Z" transform="translate(-586.22 -173.02)"/><path class="cls-16" d="M612.82,199.89l25.57,7.77-.34.24a8.06,8.06,0,0,1-4.6,1.42c-6.26,0-22.6-.39-32.59-3.6Z" transform="translate(-586.22 -173.02)"/><path class="cls-17" d="M595.94,198.87a111.18,111.18,0,0,1-6.15-16.44,3.22,3.22,0,0,1,1.5-3.63h0s5.2,11.42,12.32,16Z" transform="translate(-586.22 -173.02)"/><path class="cls-18" d="M620.42,187.32l3.06-10.53a6.27,6.27,0,0,1,2.34-3.33l.61-.44v10.72Z" transform="translate(-586.22 -173.02)"/><path class="cls-19" d="M625.54,185.53l9.91,2.6-.68.45a4.51,4.51,0,0,1-2.79.75l-7.74-.5Z" transform="translate(-586.22 -173.02)"/><path class="cls-20" d="M586.85,210.19a1,1,0,0,1-.62-.53,3.49,3.49,0,0,0,.11,1.11,2.36,2.36,0,0,0,.28.12,2.55,2.55,0,0,0,.86.13,9.76,9.76,0,0,0,4.18-1.37c2.2-1.16,24.66-12.79,31.39-16.27.26-.4.49-.8.71-1.2-5,2.58-30.11,15.58-32.44,16.81C588.73,210.36,587.46,210.4,586.85,210.19Z" transform="translate(-586.22 -173.02)"/><path class="cls-21" d="M590.63,207.84c1.12-.56,3.29-1.83,3.29-1.83l.63-2.36a14.49,14.49,0,0,1-4.08,1.85c-1.61.56-2.43.23-2.85-.18a14,14,0,0,0-1,2.43l0,.09C587.44,209,589.51,208.41,590.63,207.84Z" transform="translate(-586.22 -173.02)"/></g></g></g></svg>