<svg xmlns="http://www.w3.org/2000/svg" viewBox="0 0 13.94 74.26"><defs><style>svg{cursor:pointer}.cls-1{fill:#e3a565;}.cls-2{fill:#a87a4b;}.cls-3{fill:#cc945b;}.cls-4{fill:#594229;}.cls-5{fill:#7d5a36;}.cls-6{fill:#53856d;}.cls-7{fill:#74b897;}.cls-8{fill:#8adbb4;}.cls-9{fill:#2abade;}.cls-10{fill:#fff;}.cls-11{fill:#4d4d4d;}</style></defs><title>bigben</title><g id="Layer_2" data-name="Layer 2"><g id="Layer_1-2" data-name="Layer 1"><polygon class="cls-1" points="6.97 59.57 0.04 55.34 6.97 51.1 13.9 55.34 6.97 59.57"/><polygon class="cls-2" points="13.9 70.02 6.97 74.26 6.97 59.57 13.9 55.34 13.9 70.02"/><polygon class="cls-3" points="0.04 70.02 6.97 74.26 6.97 59.57 0.04 55.34 0.04 70.02"/><polygon class="cls-4" points="1.81 57.63 1.66 57.15 1.51 57.45 1.51 63.13 1.81 63.31 1.81 57.63"/><polygon class="cls-4" points="2.65 58.15 2.5 57.67 2.35 57.97 2.35 63.65 2.65 63.83 2.65 58.15"/><polygon class="cls-4" points="3.72 58.8 3.57 58.32 3.42 58.62 3.42 64.3 3.72 64.48 3.72 58.8"/><polygon class="cls-4" points="4.56 59.32 4.41 58.83 4.26 59.13 4.26 64.81 4.56 65 4.56 59.32"/><polygon class="cls-4" points="1.81 64.75 1.66 64.27 1.51 64.57 1.51 70.25 1.81 70.43 1.81 64.75"/><polygon class="cls-4" points="0.9 57.07 0.75 56.59 0.6 56.89 0.6 62.57 0.9 62.75 0.9 57.07"/><polygon class="cls-4" points="0.9 64.2 0.75 63.71 0.6 64.01 0.6 69.69 0.9 69.88 0.9 64.2"/><polygon class="cls-4" points="2.65 65.27 2.5 64.79 2.35 65.09 2.35 70.77 2.65 70.95 2.65 65.27"/><polygon class="cls-4" points="3.72 65.92 3.57 65.44 3.42 65.74 3.42 71.42 3.72 71.6 3.72 65.92"/><polygon class="cls-4" points="4.56 66.44 4.41 65.96 4.26 66.25 4.26 71.93 4.56 72.12 4.56 66.44"/><polygon class="cls-4" points="5.51 59.9 5.36 59.41 5.21 59.71 5.21 65.39 5.51 65.57 5.51 59.9"/><polygon class="cls-4" points="5.51 67.02 5.36 66.53 5.21 66.83 5.21 72.51 5.51 72.7 5.51 67.02"/><polygon class="cls-4" points="6.42 60.45 6.27 59.97 6.12 60.27 6.12 65.95 6.42 66.13 6.42 60.45"/><polygon class="cls-4" points="6.42 67.57 6.27 67.09 6.12 67.39 6.12 73.07 6.42 73.25 6.42 67.57"/><polygon class="cls-4" points="12.2 57.63 12.35 57.15 12.5 57.45 12.5 63.13 12.2 63.31 12.2 57.63"/><polygon class="cls-4" points="11.36 58.15 11.51 57.67 11.65 57.97 11.65 63.65 11.36 63.83 11.36 58.15"/><polygon class="cls-4" points="10.29 58.8 10.44 58.32 10.59 58.62 10.59 64.3 10.29 64.48 10.29 58.8"/><polygon class="cls-4" points="9.45 59.32 9.6 58.83 9.75 59.13 9.75 64.81 9.45 65 9.45 59.32"/><polygon class="cls-4" points="12.2 64.75 12.35 64.27 12.5 64.57 12.5 70.25 12.2 70.43 12.2 64.75"/><polygon class="cls-4" points="13.11 57.07 13.26 56.59 13.41 56.89 13.41 62.57 13.11 62.75 13.11 57.07"/><polygon class="cls-4" points="13.11 64.2 13.26 63.71 13.41 64.01 13.41 69.69 13.11 69.88 13.11 64.2"/><polygon class="cls-4" points="11.36 65.27 11.51 64.79 11.65 65.09 11.65 70.77 11.36 70.95 11.36 65.27"/><polygon class="cls-4" points="10.29 65.92 10.44 65.44 10.59 65.74 10.59 71.42 10.29 71.6 10.29 65.92"/><polygon class="cls-4" points="9.45 66.44 9.6 65.96 9.75 66.25 9.75 71.93 9.45 72.12 9.45 66.44"/><polygon class="cls-4" points="8.5 59.9 8.65 59.41 8.8 59.71 8.8 65.39 8.5 65.57 8.5 59.9"/><polygon class="cls-4" points="8.5 67.02 8.65 66.53 8.8 66.83 8.8 72.51 8.5 72.7 8.5 67.02"/><polygon class="cls-4" points="7.59 60.45 7.74 59.97 7.89 60.27 7.89 65.95 7.59 66.13 7.59 60.45"/><polygon class="cls-4" points="7.59 67.57 7.74 67.09 7.89 67.39 7.89 73.07 7.59 73.25 7.59 67.57"/><polygon class="cls-1" points="6.97 32.47 0.94 28.79 6.97 25.1 13 28.79 6.97 32.47"/><polygon class="cls-2" points="13 55.37 6.97 59.06 6.97 32.47 13 28.79 13 55.37"/><polygon class="cls-5" points="11.97 56 7.97 58.45 7.97 34.56 11.97 32.11 11.97 56"/><polygon class="cls-3" points="0.94 55.37 6.97 59.06 6.97 32.47 0.94 28.79 0.94 55.37"/><polygon class="cls-5" points="6.54 58.8 6.37 58.69 6.37 32.55 6.54 32.55 6.54 58.8"/><polygon class="cls-5" points="1.49 55.71 1.33 55.61 1.33 29.46 1.49 29.46 1.49 55.71"/><polygon class="cls-5" points="7.4 58.8 7.57 58.69 7.57 32.55 7.4 32.55 7.4 58.8"/><polygon class="cls-5" points="12.45 55.71 12.61 55.61 12.61 29.46 12.45 29.46 12.45 55.71"/><polygon class="cls-2" points="1.97 56 5.97 58.45 5.97 34.56 1.97 32.11 1.97 56"/><polygon class="cls-4" points="2.67 33.59 2.52 33.11 2.37 33.41 2.37 39.66 2.67 39.85 2.67 33.59"/><polygon class="cls-4" points="3.52 34.1 3.37 33.62 3.22 33.92 3.22 40.18 3.52 40.36 3.52 34.1"/><polygon class="cls-4" points="4.58 34.76 4.43 34.27 4.28 34.57 4.28 40.83 4.58 41.01 4.58 34.76"/><polygon class="cls-4" points="5.42 35.27 5.28 34.79 5.13 35.09 5.13 41.35 5.42 41.53 5.42 35.27"/><polygon class="cls-4" points="2.67 41.78 2.52 41.3 2.37 41.6 2.37 47.86 2.67 48.04 2.67 41.78"/><polygon class="cls-4" points="3.52 42.3 3.37 41.81 3.22 42.11 3.22 48.37 3.52 48.55 3.52 42.3"/><polygon class="cls-4" points="4.58 42.95 4.43 42.47 4.28 42.77 4.28 49.02 4.58 49.21 4.58 42.95"/><polygon class="cls-4" points="5.42 43.46 5.28 42.98 5.13 43.28 5.13 49.54 5.42 49.72 5.42 43.46"/><polygon class="cls-4" points="2.67 49.86 2.52 49.38 2.37 49.67 2.37 55.93 2.67 56.12 2.67 49.86"/><polygon class="cls-4" points="3.52 50.38 3.37 49.89 3.22 50.19 3.22 56.45 3.52 56.63 3.52 50.38"/><polygon class="cls-4" points="4.58 51.03 4.43 50.54 4.28 50.84 4.28 57.1 4.58 57.28 4.58 51.03"/><polygon class="cls-4" points="5.42 51.54 5.28 51.06 5.13 51.36 5.13 57.62 5.42 57.8 5.42 51.54"/><polygon class="cls-4" points="11.15 33.59 11.3 33.11 11.45 33.41 11.45 39.66 11.15 39.85 11.15 33.59"/><polygon class="cls-4" points="10.31 34.1 10.46 33.62 10.61 33.92 10.61 40.18 10.31 40.36 10.31 34.1"/><polygon class="cls-4" points="9.25 34.76 9.4 34.27 9.55 34.57 9.55 40.83 9.25 41.01 9.25 34.76"/><polygon class="cls-4" points="8.4 35.27 8.55 34.79 8.7 35.09 8.7 41.35 8.4 41.53 8.4 35.27"/><polygon class="cls-4" points="11.15 41.78 11.3 41.3 11.45 41.6 11.45 47.86 11.15 48.04 11.15 41.78"/><polygon class="cls-4" points="10.31 42.3 10.46 41.81 10.61 42.11 10.61 48.37 10.31 48.55 10.31 42.3"/><polygon class="cls-4" points="9.25 42.95 9.4 42.47 9.55 42.77 9.55 49.02 9.25 49.21 9.25 42.95"/><polygon class="cls-4" points="8.4 43.46 8.55 42.98 8.7 43.28 8.7 49.54 8.4 49.72 8.4 43.46"/><polygon class="cls-4" points="11.15 49.86 11.3 49.38 11.45 49.67 11.45 55.93 11.15 56.12 11.15 49.86"/><polygon class="cls-4" points="10.31 50.38 10.46 49.89 10.61 50.19 10.61 56.45 10.31 56.63 10.31 50.38"/><polygon class="cls-4" points="9.25 51.03 9.4 50.54 9.55 50.84 9.55 57.1 9.25 57.28 9.25 51.03"/><polygon class="cls-4" points="8.4 51.54 8.55 51.06 8.7 51.36 8.7 57.62 8.4 57.8 8.4 51.54"/><polygon class="cls-1" points="6.97 23.01 0 18.75 6.97 14.48 13.94 18.75 6.97 23.01"/><polygon class="cls-2" points="13.94 29.34 6.97 33.6 6.97 23.01 13.94 18.75 13.94 29.34"/><polygon class="cls-3" points="0 29.34 6.97 33.6 6.97 23.01 0 18.75 0 29.34"/><polygon class="cls-1" points="5.69 23.92 0.35 20.66 0.87 20.32 6.21 23.58 5.69 23.92"/><polygon class="cls-2" points="6.21 31.69 5.69 32.03 5.69 23.92 6.21 23.58 6.21 31.69"/><polygon class="cls-3" points="0.35 28.77 5.69 32.03 5.69 23.92 0.35 20.66 0.35 28.77"/><polygon class="cls-1" points="8.25 23.92 13.59 20.66 13.07 20.32 7.73 23.58 8.25 23.92"/><polygon class="cls-3" points="7.73 31.69 8.25 32.03 8.25 23.92 7.73 23.58 7.73 31.69"/><polygon class="cls-2" points="13.59 28.77 8.25 32.03 8.25 23.92 13.59 20.66 13.59 28.77"/><polygon class="cls-1" points="6.97 19.99 1.32 16.53 6.97 13.07 12.62 16.53 6.97 19.99"/><polygon class="cls-6" points="6.97 19.99 6.97 14.27 10.66 12.01 12.62 16.53 6.97 19.99"/><polygon class="cls-7" points="6.97 19.99 1.32 16.53 3.28 12.01 6.97 14.27 6.97 19.99"/><polygon class="cls-8" points="6.97 14.27 3.28 12.01 6.97 9.76 10.66 12.01 6.97 14.27"/><polygon class="cls-1" points="6.97 10.19 3.94 8.34 6.97 6.48 10 8.34 6.97 10.19"/><polygon class="cls-9" points="6.97 9.85 4.5 8.34 6.97 6.82 9.44 8.34 6.97 9.85"/><polygon class="cls-6" points="6.97 9.85 6.97 0.29 7.2 0.14 9.44 8.34 6.97 9.85"/><polygon class="cls-7" points="6.97 9.85 4.5 8.34 6.74 0.14 6.97 0.29 6.97 9.85"/><polygon class="cls-8" points="6.97 0.29 6.74 0.14 6.97 0 7.2 0.14 6.97 0.29"/><polygon class="cls-2" points="10 12.01 6.97 13.87 6.97 10.19 10 8.34 10 12.01"/><polygon class="cls-3" points="3.94 12.01 6.97 13.87 6.97 10.19 3.94 8.34 3.94 12.01"/><polygon class="cls-3" points="1.32 18.76 6.97 22.22 6.97 19.99 1.32 16.53 1.32 18.76"/><polygon class="cls-2" points="12.62 18.76 6.97 22.22 6.97 19.99 12.62 16.53 12.62 18.76"/><path class="cls-2" d="M5,29.36a1.51,1.51,0,0,1-1.94,0A5.76,5.76,0,0,1,.58,24.89a1.79,1.79,0,0,1,.76-1.69,2,2,0,0,0-.49,1.49,5.77,5.77,0,0,0,2.43,4.46A1.66,1.66,0,0,0,5,29.36Z"/><path class="cls-10" d="M5.45,27.86A2.08,2.08,0,0,1,5,29.36a1.66,1.66,0,0,1-1.68-.21A5.77,5.77,0,0,1,.85,24.69a2,2,0,0,1,.49-1.49A1.63,1.63,0,0,1,3,23.4,5.77,5.77,0,0,1,5.45,27.86Z"/><path d="M3.28,26.5c0,.21-.14.29-.31.19a.75.75,0,0,1-.31-.57c0-.21.14-.29.31-.19A.75.75,0,0,1,3.28,26.5Z"/><path d="M2.91,24.33,3,24.4a.22.22,0,0,1,.09.17v1.72c0,.06,0,.09-.09.06l-.12-.08a.2.2,0,0,1-.09-.16V24.38C2.82,24.32,2.86,24.3,2.91,24.33Z"/><path d="M5,27.49v0c0,.07,0,.09-.1.06L2.94,26.42a.23.23,0,0,1-.1-.19v0c0-.07,0-.1.1-.06L4.85,27.3A.24.24,0,0,1,5,27.49Z"/><path class="cls-11" d="M3.08,26.38c0,.07-.05.1-.11.06a.23.23,0,0,1-.1-.19c0-.08,0-.11.1-.07A.26.26,0,0,1,3.08,26.38Z"/><path class="cls-1" d="M9,29.36a1.51,1.51,0,0,0,1.94,0,5.77,5.77,0,0,0,2.43-4.46,1.81,1.81,0,0,0-.75-1.69,2,2,0,0,1,.49,1.49,5.76,5.76,0,0,1-2.44,4.46A1.64,1.64,0,0,1,9,29.36Z"/><path class="cls-10" d="M8.52,27.86a2.08,2.08,0,0,0,.5,1.5,1.64,1.64,0,0,0,1.67-.21,5.76,5.76,0,0,0,2.44-4.46,2,2,0,0,0-.49-1.49,1.63,1.63,0,0,0-1.68.2A5.76,5.76,0,0,0,8.52,27.86Z"/><path d="M11,26.25a.75.75,0,0,1-.31.57c-.17.1-.31,0-.31-.19a.73.73,0,0,1,.31-.57C10.89,26,11,26,11,26.25Z"/><path d="M10.66,24.53l.12-.07c.05,0,.09,0,.09.05v1.72a.21.21,0,0,1-.09.17l-.12.07c-.05,0-.09,0-.09,0V24.7A.21.21,0,0,1,10.66,24.53Z"/><path d="M12.7,25.2v0a.24.24,0,0,1-.11.19l-1.91,1.17s-.1,0-.1-.06v0a.28.28,0,0,1,.1-.2l1.91-1.17C12.65,25.1,12.7,25.13,12.7,25.2Z"/><path class="cls-11" d="M10.82,26.37a.26.26,0,0,1-.1.2c-.06,0-.11,0-.11-.07a.24.24,0,0,1,.11-.19C10.78,26.27,10.82,26.3,10.82,26.37Z"/><polygon class="cls-4" points="4.59 9.84 4.44 9.36 4.29 9.66 4.29 11.83 4.59 12.01 4.59 9.84"/><polygon class="cls-4" points="5.23 10.24 5.08 9.76 4.93 10.06 4.93 12.23 5.23 12.41 5.23 10.24"/><polygon class="cls-4" points="5.87 10.64 5.72 10.16 5.57 10.46 5.57 12.63 5.87 12.81 5.87 10.64"/><polygon class="cls-4" points="6.51 11.04 6.36 10.56 6.21 10.86 6.21 13.03 6.51 13.21 6.51 11.04"/><polygon class="cls-4" points="2.03 17.63 1.88 17.15 1.73 17.45 1.73 18.69 2.03 18.88 2.03 17.63"/><polygon class="cls-4" points="2.67 18.03 2.52 17.55 2.37 17.85 2.37 19.09 2.67 19.28 2.67 18.03"/><polygon class="cls-4" points="3.32 18.43 3.17 17.95 3.02 18.25 3.02 19.49 3.32 19.68 3.32 18.43"/><polygon class="cls-4" points="3.96 18.83 3.81 18.35 3.66 18.65 3.66 19.89 3.96 20.08 3.96 18.83"/><polygon class="cls-4" points="4.6 19.22 4.45 18.74 4.3 19.04 4.3 20.28 4.6 20.46 4.6 19.22"/><polygon class="cls-4" points="5.24 19.61 5.09 19.13 4.94 19.43 4.94 20.67 5.24 20.86 5.24 19.61"/><polygon class="cls-4" points="5.89 20.01 5.74 19.52 5.59 19.82 5.59 21.07 5.89 21.25 5.89 20.01"/><polygon class="cls-4" points="6.53 20.4 6.38 19.92 6.23 20.21 6.23 21.46 6.53 21.64 6.53 20.4"/><polygon class="cls-4" points="11.94 17.63 12.09 17.15 12.24 17.45 12.24 18.69 11.94 18.88 11.94 17.63"/><polygon class="cls-4" points="11.29 18.03 11.44 17.55 11.59 17.85 11.59 19.09 11.29 19.28 11.29 18.03"/><polygon class="cls-4" points="10.65 18.43 10.8 17.95 10.95 18.25 10.95 19.49 10.65 19.68 10.65 18.43"/><polygon class="cls-4" points="10.01 18.83 10.16 18.35 10.31 18.65 10.31 19.89 10.01 20.08 10.01 18.83"/><polygon class="cls-4" points="9.37 19.22 9.52 18.74 9.67 19.04 9.67 20.28 9.37 20.46 9.37 19.22"/><polygon class="cls-4" points="8.72 19.61 8.88 19.13 9.03 19.43 9.03 20.67 8.72 20.86 8.72 19.61"/><polygon class="cls-4" points="8.08 20.01 8.23 19.52 8.38 19.82 8.38 21.07 8.08 21.25 8.08 20.01"/><polygon class="cls-4" points="7.44 20.4 7.59 19.92 7.74 20.21 7.74 21.46 7.44 21.64 7.44 20.4"/><polygon class="cls-4" points="9.37 9.84 9.52 9.36 9.67 9.66 9.67 11.83 9.37 12.01 9.37 9.84"/><polygon class="cls-4" points="8.72 10.24 8.88 9.76 9.03 10.06 9.03 12.23 8.72 12.41 8.72 10.24"/><polygon class="cls-4" points="8.08 10.64 8.23 10.16 8.38 10.46 8.38 12.63 8.08 12.81 8.08 10.64"/><polygon class="cls-4" points="7.44 11.04 7.59 10.56 7.74 10.86 7.74 13.03 7.44 13.21 7.44 11.04"/></g></g></svg>