<svg xmlns="http://www.w3.org/2000/svg" viewBox="0 0 40.24 95.35"><defs><style>svg { 
	cursor: pointer;
	
	}.cls-1{fill:#d1c9a8;}.cls-2{fill:#bdb497;}.cls-3{fill:#e0d7b4;}.cls-4{fill:#7a7462;}.cls-5{fill:#53856d;}.cls-6{fill:#74b897;}</style></defs><title>NA</title><g id="Layer_2" data-name="Layer 2"><g id="Layer_1-2" data-name="Layer 1"><polygon class="cls-1" points="2.43 85.14 20.12 95.35 20.12 83.64 2.43 73.43 2.43 85.14"/><polygon class="cls-2" points="37.8 85.14 20.12 95.35 20.12 83.64 37.8 73.43 37.8 85.14"/><polygon class="cls-3" points="20.12 85.07 0 73.46 20.12 61.84 40.24 73.46 20.12 85.07"/><polygon class="cls-1" points="0 74.91 20.12 86.52 20.12 85.07 0 73.46 0 74.91"/><polygon class="cls-2" points="40.24 74.91 20.12 86.52 20.12 85.07 40.24 73.46 40.24 74.91"/><polygon class="cls-3" points="20.12 77.03 2.43 66.82 20.12 56.61 37.8 66.82 20.12 77.03"/><polygon class="cls-1" points="2.43 73.43 20.12 83.64 20.12 77.03 2.43 66.82 2.43 73.43"/><polygon class="cls-2" points="37.8 73.43 20.12 83.64 20.12 77.03 37.8 66.82 37.8 73.43"/><polygon class="cls-1" points="5.03 66.69 20.12 75.41 20.12 63.61 5.03 54.9 5.03 66.69"/><polygon class="cls-2" points="35.21 66.69 20.12 75.41 20.12 63.61 35.21 54.9 35.21 66.69"/><polygon class="cls-3" points="20.12 63.5 2.43 53.29 20.12 43.08 37.8 53.29 20.12 63.5"/><polygon class="cls-1" points="2.43 54.56 20.12 64.78 20.12 63.5 2.43 53.29 2.43 54.56"/><polygon class="cls-2" points="37.8 54.56 20.12 64.78 20.12 63.5 37.8 53.29 37.8 54.56"/><polygon class="cls-2" points="8.13 66.2 8.13 66.95 6.43 65.97 6.43 58.06 7.06 58.43 7.06 65.58 8.13 66.2"/><polygon class="cls-4" points="8.13 59.04 8.13 66.2 7.06 65.58 7.06 58.43 8.13 59.04"/><polygon class="cls-2" points="11.63 68.22 11.63 68.97 9.93 67.99 9.93 60.08 10.57 60.45 10.57 67.61 11.63 68.22"/><polygon class="cls-4" points="11.63 61.06 11.63 68.22 10.57 67.61 10.57 60.45 11.63 61.06"/><polygon class="cls-2" points="15.14 70.24 15.14 71 13.43 70.01 13.43 62.11 14.07 62.48 14.07 69.63 15.14 70.24"/><polygon class="cls-4" points="15.14 63.09 15.14 70.24 14.07 69.63 14.07 62.48 15.14 63.09"/><polygon class="cls-2" points="18.64 72.27 18.64 73.02 16.94 72.04 16.94 64.13 17.58 64.5 17.58 71.65 18.64 72.27"/><polygon class="cls-4" points="18.64 65.11 18.64 72.27 17.58 71.65 17.58 64.5 18.64 65.11"/><polygon class="cls-1" points="32.16 66.2 32.16 66.95 33.87 65.97 33.87 58.06 33.23 58.43 33.23 65.58 32.16 66.2"/><polygon class="cls-4" points="32.16 59.04 32.16 66.2 33.23 65.58 33.23 58.43 32.16 59.04"/><polygon class="cls-1" points="28.66 68.22 28.66 68.97 30.36 67.99 30.36 60.08 29.73 60.45 29.73 67.61 28.66 68.22"/><polygon class="cls-4" points="28.66 61.06 28.66 68.22 29.73 67.61 29.73 60.45 28.66 61.06"/><polygon class="cls-1" points="25.16 70.24 25.16 71 26.86 70.01 26.86 62.11 26.22 62.48 26.22 69.63 25.16 70.24"/><polygon class="cls-4" points="25.16 63.09 25.16 70.24 26.22 69.63 26.22 62.48 25.16 63.09"/><polygon class="cls-1" points="21.65 72.27 21.65 73.02 23.36 72.04 23.36 64.13 22.72 64.5 22.72 71.65 21.65 72.27"/><polygon class="cls-4" points="21.65 65.11 21.65 72.27 22.72 71.65 22.72 64.5 21.65 65.11"/><path class="cls-5" d="M28.43,51.31H28a5.26,5.26,0,0,0-2-1.81,12.84,12.84,0,0,0-11.67,0,5.22,5.22,0,0,0-2,1.81h-.45v1.55c0,1.22.81,2.44,2.42,3.37a12.9,12.9,0,0,0,11.67,0c1.61-.93,2.41-2.15,2.41-3.37h0Z"/><path class="cls-6" d="M26,54.82a12.9,12.9,0,0,1-11.67,0c-3.23-1.86-3.23-4.88,0-6.74a12.9,12.9,0,0,1,11.67,0C29.24,49.94,29.24,53,26,54.82Z"/><path class="cls-5" d="M26.75,49.15c-.07-.61-.82-.65-1.65-.6a15.12,15.12,0,0,0-5.35,1.06s-8.22,2-6.19,4.19a1.68,1.68,0,0,0,1,.52c0,.3.58.62.64.68.33.36.6.29,1,.18,0,.12.52.31.54.34.53.4.84,0,1.08-.18a.69.69,0,0,0,1,0,.73.73,0,0,0,.08-.22A1.13,1.13,0,0,0,20,54.87a.63.63,0,0,0,.09-.31.63.63,0,0,0,.82-.14.52.52,0,0,0,.1-.31.88.88,0,0,0,1-.1,1.36,1.36,0,0,0,.07-.6l0,0a.62.62,0,0,0,.79-.16A.51.51,0,0,0,23,53a.91.91,0,0,0,1.06-.06,1.27,1.27,0,0,0,.07-.51,2,2,0,0,0,1.42-.54,1.4,1.4,0,0,0,.15-.66c.2,0,.77,0,.93-.21a3.29,3.29,0,0,0,.09-1A1.86,1.86,0,0,0,26.75,49.15Z"/><polygon class="cls-5" points="17.18 16.86 16.53 21.55 17.26 23.13 18.96 22.03 19.08 18.5 17.18 16.86"/><polygon class="cls-5" points="26.14 24.04 25.44 23.88 27.44 32.69 28.13 32.84 30.29 25.63 26.14 24.04"/><polygon class="cls-6" points="25.44 23.88 23.4 30.62 27.44 32.69 29.59 25.48 25.44 23.88"/><path class="cls-5" d="M25.44,23.88l-2,6.74,1.68.86s-.63-2.5-.33-3,.37-.14.17-1.58c.25-.25.12-1.21.25-1.69S25.44,23.88,25.44,23.88Z"/><path class="cls-5" d="M28.24,28.26c.33-.25,1.42-.21,1.44.15A3,3,0,0,1,29,30c-.22.09-.87-.12-.83-.51S27.91,28.51,28.24,28.26Z"/><path class="cls-6" d="M28.41,28.32c.33-.25,1.42-.2,1.45.15A3,3,0,0,1,29.13,30c-.22.09-.86-.12-.83-.51S28.08,28.57,28.41,28.32Z"/><path class="cls-6" d="M26.5,48.81c-.08-.61-.13-1.28-.18-2s-.08-1.31-.13-1.95c-.07-1.07-.16-2.23-.3-3.49V41.3h0c-.14-1.31-.33-2.72-.61-4.22-.87-.42-9.88,7.28-9.88,7.28s-.59,2.87-.88,5.39c-.28,1.8-.52,3.72-.28,4a1,1,0,0,0,.86.27,1.21,1.21,0,0,0,.12.56,1.37,1.37,0,0,0,1.33.18.47.47,0,0,0,.06.24,1,1,0,0,0,1.24-.08.69.69,0,0,0,1,0,.83.83,0,0,0,.08-.23A1.13,1.13,0,0,0,20,54.42a.62.62,0,0,0,.09-.3A.63.63,0,0,0,21,54a.53.53,0,0,0,.1-.32.88.88,0,0,0,1-.09A1.39,1.39,0,0,0,22.1,53h0a.64.64,0,0,0,.79-.16.52.52,0,0,0,.09-.27.89.89,0,0,0,1.06-.05,1.35,1.35,0,0,0,.07-.51,2,2,0,0,0,1.42-.54,1.4,1.4,0,0,0,.15-.66.91.91,0,0,0,.56-.26,2.07,2.07,0,0,0,.13-.84A1.87,1.87,0,0,0,26.5,48.81Z"/><path class="cls-5" d="M24.83,39.83a61,61,0,0,1,.9,10.91S25.66,46.73,24.83,39.83Z"/><path class="cls-5" d="M25.4,41.3c.87,8.06,1,8.31,1,8.31S26.43,48.4,25.4,41.3Z"/><path class="cls-5" d="M20.24,44.63c0,7.33.81,9,.81,9A70.78,70.78,0,0,1,20.24,44.63Z"/><path class="cls-5" d="M18.12,45.75c0,7.33.81,9,.81,9A71.13,71.13,0,0,1,18.12,45.75Z"/><path class="cls-5" d="M24,41.05c.52,5.73.59,5.89.59,5.89A34.79,34.79,0,0,0,24,41.05Z"/><path class="cls-5" d="M16.37,45.09a59.35,59.35,0,0,1,.16,9.7A42.67,42.67,0,0,0,16.37,45.09Z"/><path class="cls-5" d="M21.39,42.3c.52,5.73.59,5.89.59,5.89A33.21,33.21,0,0,0,21.39,42.3Z"/><path class="cls-5" d="M24.52,40.59c.51,7.86.6,8.08.6,8.08S25.32,47.42,24.52,40.59Z"/><path class="cls-5" d="M20.42,43.77c.52,5.73,1,6.23,1,6.23S21.12,48.75,20.42,43.77Z"/><path class="cls-5" d="M22.23,42.13c.73,3.91,1,4.28,1,4.28S23,45.55,22.23,42.13Z"/><path class="cls-5" d="M23.48,42.12c.54,5.52.92,6.07.92,6.07S24.16,47,23.48,42.12Z"/><path class="cls-5" d="M16.7,43.08c-1.85,5.45-1.65,6.09-1.65,6.09S15.32,47.92,16.7,43.08Z"/><path class="cls-5" d="M18.57,45.45c.1,5.76.67,7.69.67,7.69S18.91,50.48,18.57,45.45Z"/><path class="cls-5" d="M23,42.68c.93,6.34,1.07,9.23,1.07,9.23S24.23,49.35,23,42.68Z"/><path class="cls-5" d="M21,43.61C22,50,22.1,52.84,22.1,52.84S22.26,50.28,21,43.61Z"/><path class="cls-5" d="M22,43.26c.37,6.83,1.06,9.23,1.06,9.23S22.61,48.84,22,43.26Z"/><path class="cls-5" d="M16.79,45.67c.38,6.83,1.06,9.23,1.06,9.23S17.41,51.24,16.79,45.67Z"/><path class="cls-5" d="M16.34,44.79C15,51.5,15.1,54,15.1,54S15.57,50.35,16.34,44.79Z"/><path class="cls-5" d="M19,44.79C19.34,51.62,20,54,20,54S19.59,50.37,19,44.79Z"/><path class="cls-5" d="M15.4,44.37s-.19.91-.4,2.16c3.3.67,5.18-.63,5.22-1.66.66.6.88-.57,2.77-1.68,1.17-.78,1.42-.69,1.35-1.54,0-.65,1.1.09.7-2.16-.07-.34.64-.13.51-.81-.1-.51-.17-1-.27-1.59C24.41,36.67,15.4,44.37,15.4,44.37Z"/><path class="cls-6" d="M24.83,26.7c-.55-.33-8.6,8.89-8.6,8.89a4.61,4.61,0,0,0-.33,2c.51,4.48-2.63,7.16-.64,8.14a.52.52,0,0,0,0,.28c0,.45,4.44.44,4.68-1.1a2.73,2.73,0,0,0,.26-.67l.38-.3c.06.37.19.58.4.57,1.84-1.76,2.45-1.57,3-2.36a2.14,2.14,0,0,0,.17-.81,2,2,0,0,0,.76-.71,4.6,4.6,0,0,0,0-1.19C27.46,35.27,23.52,31.24,24.83,26.7Z"/><path class="cls-5" d="M15.9,37.55c0,.2,0,.39,0,.58,1.27-3.48,3.79-1.05,5.89-4.17.25-.19.15-1.12.15-1.12,1-.14,2.23-1.78,2.58-4.15a4.63,4.63,0,0,1,.26-2c-.55-.33-8.6,8.89-8.6,8.89A4.61,4.61,0,0,0,15.9,37.55Z"/><path class="cls-5" d="M24.22,35.35c.47,5.11-.08,5.95-.08,5.95A51.83,51.83,0,0,1,24.22,35.35Z"/><path class="cls-5" d="M24.26,29.64c.5,4.56.29,5.33.29,5.33S24.26,31.6,24.26,29.64Z"/><path class="cls-5" d="M18.63,40.3c-2.75,3.67-3.53,4-3.53,4S17.22,41.67,18.63,40.3Z"/><path class="cls-5" d="M23.4,33a20.41,20.41,0,0,1-2.83,10.57A25.08,25.08,0,0,0,23.4,33Z"/><path class="cls-5" d="M21.4,28.26a13.64,13.64,0,0,1,1,8.7A16.7,16.7,0,0,0,21.4,28.26Z"/><path class="cls-5" d="M20.59,33.33c-.06,3.34-3.25,5.73-3.25,5.73A10.33,10.33,0,0,0,20.59,33.33Z"/><path class="cls-5" d="M22,32.84C21.38,40.4,17.5,43,17.5,43S20.9,40.26,22,32.84Z"/><path class="cls-5" d="M20.72,28.72c-.61,7.56-4.49,10.18-4.49,10.18S19.64,36.14,20.72,28.72Z"/><polygon class="cls-6" points="18.1 14.94 16.21 14.3 17.8 15.24 18.1 14.94"/><polygon class="cls-5" points="16.21 14.3 17.7 15.5 17.8 15.24 16.21 14.3"/><path class="cls-6" d="M18.83,18.59c.21,1-.12,1.29-.12,1.29L19.85,22l2.36.46.29-2L20.67,20a2.39,2.39,0,0,1-1.23-1.16A1.14,1.14,0,0,1,18.83,18.59Z"/><path class="cls-5" d="M18.83,18.59a1,1,0,0,1,0,.15.58.58,0,0,0,.53.21,1.93,1.93,0,0,0,2,1.43c0-.26-1.27-1-1.27-1A1.3,1.3,0,0,0,18.83,18.59Z"/><path class="cls-5" d="M18.82,19.71a.46.46,0,0,1-.11.17l1.51,1.66s1,2,1.74.55-.53-1.71-.53-1.71-.12,1.77-1,.69C20.2,20.71,19.5,19.83,18.82,19.71Z"/><path class="cls-6" d="M22.81,19.08A1.84,1.84,0,0,1,24.2,21a11.91,11.91,0,0,0,.2,3.42c.25.9-1.81-1.48-1.81-1.48l-.38-3.72Z"/><polygon class="cls-5" points="24 21.42 23.79 22.64 23.94 22.6 24 21.42"/><polygon class="cls-5" points="23.73 20.7 23.52 22.41 23.67 22.37 23.73 20.7"/><path class="cls-5" d="M23,19.14a2.69,2.69,0,0,1,0,.79,1.55,1.55,0,0,1,.61,1.19c-.07,1.42.68-.1.83,3.3.25.9-1.81-1.48-1.81-1.48l-.38-4.12Z"/><path class="cls-5" d="M22.63,21.62A28.85,28.85,0,0,1,18,34.79,38.17,38.17,0,0,0,22.63,21.62Z"/><path class="cls-6" d="M23.26,21.53a5.38,5.38,0,0,0-1.51,0c-1.5,5.38-5.31,5.79-5.49,8.7.94,4.4-2,7.09-.36,7.32,1.88-3,2.34-.44,5.56-3.46a4,4,0,0,0,.28-1.41c2-.88,2.53-3.68,3.09-4.47a2.84,2.84,0,0,0,0-1.45A4.91,4.91,0,0,0,23.26,21.53Z"/><path class="cls-5" d="M21.75,32.61a60.64,60.64,0,0,0,1.06-10.88C23.64,25.59,21.75,32.61,21.75,32.61Z"/><path class="cls-5" d="M23,31.28s1.65-3.9-.15-10A14.55,14.55,0,0,1,23,31.28Z"/><path class="cls-5" d="M22.36,21.62a25.58,25.58,0,0,1-2.14,4.51A10.67,10.67,0,0,0,22.36,21.62Z"/><path class="cls-5" d="M22.63,21.47C21.14,28.8,19.12,30,19.12,30S20.9,28.23,22.63,21.47Z"/><path class="cls-5" d="M24.81,26.77a36.17,36.17,0,0,0-1.66-5.15C24.87,25.39,24.81,26.77,24.81,26.77Z"/><path class="cls-5" d="M21.35,20.38c.38.35-.62,1.93,1.25,1.61,2.16-.27-.15-2.37-.15-2.37S21.06,20.05,21.35,20.38Z"/><path class="cls-6" d="M21.35,20.25c.38.35-.62,1.92,1.25,1.6,2.16-.26-.15-2.37-.15-2.37S21.06,19.91,21.35,20.25Z"/><path class="cls-5" d="M21.71,20a3.12,3.12,0,0,1,.21,1.25A3,3,0,0,0,21.86,20Z"/><path class="cls-5" d="M22.45,20a3.22,3.22,0,0,1,.84,1,3,3,0,0,0-.72-1Z"/><path class="cls-5" d="M22.28,20.22a5.61,5.61,0,0,1,.34,1.22,4.94,4.94,0,0,0-.25-1.23Z"/><path class="cls-5" d="M21.87,19.48a5.36,5.36,0,0,1,.34,1.22A5.1,5.1,0,0,0,22,19.46Z"/><path class="cls-5" d="M22.23,19.6a5,5,0,0,1,.53,1.14,4.91,4.91,0,0,0-.45-1.17Z"/><polygon class="cls-6" points="21.49 14.22 23.16 12.81 21.9 14.42 21.49 14.22"/><polygon class="cls-5" points="21.9 14.42 22.28 14.36 23.16 12.81 21.9 14.42"/><polygon class="cls-6" points="19.51 14.19 19.59 12.99 20.07 14.06 19.51 14.19"/><path class="cls-6" d="M22.94,16.17a2.61,2.61,0,0,1,0,1.2,7.15,7.15,0,0,1-.17,2.69.91.91,0,0,1-.85.36,2.54,2.54,0,0,1-2.52-1.56c-.23.06-1.35-.62-1-1.24.07-.12-1.61-1.57.8-3A2.54,2.54,0,0,1,22.94,16.17Z"/><path class="cls-5" d="M22.94,16.17c0,.13.06.23.08.38s-.34.4-.66.29c-.08.55-1.14.46-1.86,1s-.7,1.89-.88,1.42a2.43,2.43,0,0,1-.18-.4c-.23.06-1.35-.62-1-1.24.07-.12-1.61-1.57.8-3A2.54,2.54,0,0,1,22.94,16.17Z"/><path class="cls-6" d="M22.18,16.67a1.12,1.12,0,0,0,.68,0c.42-.25.41-.72.19-1.35a1.28,1.28,0,0,0-.73-.67l0,.86-.56.21Z"/><path class="cls-6" d="M22,15.82C22.91,17.61,21,17,20.22,18c-.62.81-.54,1.44-.87,1.78-1.16,1.13-1.12-.71-1.12-.71s-1.07-.27-1.07-1.82a2.65,2.65,0,0,1,.76-2.12s-1.16.82.18,1.37,1.74.16,1.74.16l1.79-.31A.74.74,0,0,0,22,15.82Z"/><path class="cls-5" d="M17.65,16c.18.62,1.24.7,2.6.35,1.78-.45,2.07-1.07,2.07-1.24a1,1,0,0,0,0-.56,1,1,0,0,1,.53,1.35,3,3,0,0,1-2.34,1.44,4,4,0,0,1-2.88-.26.87.87,0,0,1,0-1.5Z"/><path class="cls-6" d="M18,15a2.73,2.73,0,0,0-.35.76c.18.62,1.24.7,2.6.36,1.78-.46,2.07-1.08,2.07-1.25a2.26,2.26,0,0,0-.8-.7,2,2,0,0,1,.76.15,1,1,0,0,1,.53,1.34,3,3,0,0,1-2.34,1.44,4.05,4.05,0,0,1-2.88-.25.88.88,0,0,1,0-1.51A3.75,3.75,0,0,1,18,15Z"/><polygon class="cls-5" points="20.7 16.58 20.45 16.86 19.91 16.73 19.84 16.33 20.57 16.16 20.7 16.58"/><polygon class="cls-6" points="19.84 16.33 20.45 16.86 20.57 16.16 19.84 16.33"/><polygon class="cls-6" points="21.74 15.62 23.68 15.48 22.07 15.29 21.74 15.62"/><polygon class="cls-6" points="22.53 14.94 24.9 13.78 22.39 14.61 22.53 14.94"/><polygon class="cls-6" points="17.54 15.73 15.12 15.93 17.54 16.08 17.54 15.73"/><polygon class="cls-6" points="17.96 16.19 16.88 16.86 18.6 16.38 17.96 16.19"/><polygon class="cls-5" points="16.88 16.86 18.5 16.8 18.6 16.38 16.88 16.86"/><polygon class="cls-5" points="21.74 15.62 21.9 15.93 23.68 15.48 21.74 15.62"/><polygon class="cls-5" points="22.53 14.94 22.77 15.17 24.9 13.78 22.53 14.94"/><polygon class="cls-5" points="15.12 15.93 17.5 16.42 17.54 16.08 15.12 15.93"/><path class="cls-5" d="M15.83,19.24c-.67,1.7-1.66,1.79-1.61,3.1a1,1,0,0,0,1.21,1,1.22,1.22,0,0,0,1.16-1.15S16.92,18.74,15.83,19.24Z"/><path class="cls-6" d="M15.09,11.56c.06,3.21-.36,4.82,0,5.7.81,2.23-.33,6.18,1.3,7.54.41.26,1.61-.35,1.83-1.6s-1.32-5.14-1.3-6.07C17.53,15.06,16,11,16,11A6.16,6.16,0,0,0,15.09,11.56Z"/><path class="cls-5" d="M15.05,14.24a.31.31,0,0,0,.18.25,1.39,1.39,0,0,0,1.06,0,.32.32,0,0,0,.19-.25V12.52l-.23-.69-1.15.86Z"/><path class="cls-5" d="M15.48,22.47a3.31,3.31,0,0,0,.91,2.33c.41.26,1.61-.35,1.83-1.6.16-.9-.59-3.16-1-4.7C17.88,22.25,15.48,22.47,15.48,22.47Z"/><path class="cls-6" d="M17.26,18.7c1,4-2.35,4.62-3,3.64A1.94,1.94,0,0,0,15.4,24.2s-.37,1.1.47.86c.14-.13-.08.6.1,1.25s.64.39.5.78-.77.69-.57,1.65a1.73,1.73,0,0,0,.47.85c.53-1.9,4.09-3.41,5.26-7.67-1.23-.11-1.69-1.77-2.86-2.07-.42.24-.48.22-.54.57,0,0-.18.14-.18.14s-.14.36-.24-.09c.13-.14.22-.46.17-1.08S17.15,18.53,17.26,18.7Z"/><path class="cls-5" d="M19.71,19.35s.05.52-.75.86c-.47.2-.51-.18-.51-.18s.17.38.63,0a1.37,1.37,0,0,0,.53-.73Z"/><path class="cls-5" d="M16.22,29.42a.8.8,0,0,0,.15.17c.53-1.9,4.09-3.41,5.26-7.67l-.33-.07C21,25.84,17.31,26.43,16.22,29.42Z"/><path class="cls-6" d="M15.1,13.87a.31.31,0,0,0,.18.26,1,1,0,0,0,.89,0,.31.31,0,0,0,.18-.26V7.42H15.1Z"/><path class="cls-5" d="M14.83,9.57a.87.87,0,0,1,1.05.29c.29.37,0,1.15,0,1.42s-.59.45-.79.28C14.63,11.18,14.33,9.7,14.83,9.57Z"/><path class="cls-6" d="M14.67,9.66a.87.87,0,0,1,1.06.29c.28.37,0,1.15,0,1.42s-.59.34-.79.17C14.48,11.16,14.17,9.79,14.67,9.66Z"/><path class="cls-5" d="M16.46,10.12c0,.34-.11.62-.25.62s-.25-.28-.25-.62.11-.61.25-.61S16.46,9.78,16.46,10.12Z"/><path class="cls-6" d="M16.61,10.12c0,.34-.12.62-.26.62s-.25-.28-.25-.62.11-.61.25-.61S16.61,9.78,16.61,10.12Z"/><path class="cls-5" d="M16.77,35a18.26,18.26,0,0,1,2.35-5A11.55,11.55,0,0,0,16.77,35Z"/><path class="cls-5" d="M18.23,20.42c3.28,1,1,4.76,1,4.76S21.26,21.63,18.23,20.42Z"/><path class="cls-5" d="M14.94,23.22c2.83,1.07,2.87-2.75,2.87-2.75S17.66,23.92,14.94,23.22Z"/><path class="cls-5" d="M17.92,20.7s.79,2.92-2.18,3.34A2.67,2.67,0,0,0,17.92,20.7Z"/><path class="cls-5" d="M15.87,25.06s4-.55,2.61-4C20.11,24.87,15.87,25.06,15.87,25.06Z"/><path class="cls-5" d="M16.88,26.55s2.08-.47,2.47-3.5A3.38,3.38,0,0,1,16.88,26.55Z"/><path class="cls-5" d="M19.5,20.7c2.57,2,.57,3.92.57,3.92S21.84,23,19.5,20.7Z"/><path class="cls-5" d="M16.38,28.2c.9-1.61,1.59-1.34,2.88-2.46C17.49,26.88,17,26.92,16.38,28.2Z"/><path class="cls-5" d="M20.22,26.13c-1.51,2.67-1.93,1.9-3.06,4.76C17.73,28.68,19.21,27.81,20.22,26.13Z"/><path class="cls-6" d="M18.82,14.3a2.14,2.14,0,0,1,2.64-.43c.83.51.86,1,.86,1s0,.34-.72.75a19.37,19.37,0,0,1-2.22-.37Z"/><path class="cls-6" d="M17.8,14.9c1.54-2.08,3.83.66,3.87.72-.28.22-2.36,1.11-3.43.66C17.29,16.09,17.65,15,17.8,14.9Z"/><path class="cls-5" d="M17.8,14.9c-.95,2.42,3.29,1,3.87.72-.28.22-2.36,1.11-3.43.66C17.29,16.09,17.65,15,17.8,14.9Z"/><path class="cls-5" d="M20.66,17.9A9.37,9.37,0,0,1,22,17.8,2.16,2.16,0,0,0,20.66,17.9Z"/><path class="cls-5" d="M23,16.84a1.92,1.92,0,0,0-.56.72A.93.93,0,0,1,23,16.84Z"/><path class="cls-5" d="M22.53,17.69a3.78,3.78,0,0,1,.28,1.13C22.75,19,22,19,22,19s.74.15.83-.19A5.67,5.67,0,0,0,22.53,17.69Z"/><path class="cls-5" d="M22.82,19.29c0,.06-.71.54-.73.46A4.43,4.43,0,0,1,22.82,19.29Z"/><path class="cls-5" d="M17.12,6.41h0a.76.76,0,0,0-.38-.4,2.14,2.14,0,0,0-2,0,.76.76,0,0,0-.38.4h0v1h0a.69.69,0,0,0,.41.57,2.14,2.14,0,0,0,2,0,.69.69,0,0,0,.41-.57v-1Z"/><path class="cls-6" d="M16.71,5.84a2.2,2.2,0,0,0-2,0,.61.61,0,0,0,0,1.15,2.2,2.2,0,0,0,2,0A.61.61,0,0,0,16.71,5.84Z"/><path class="cls-6" d="M14.57,6.52a2.23,2.23,0,0,1-.81-2.44c.67.66,1.06.35,1.06.35s-1.64-.84-.4-3.88c.09,1.8,1.06,2.25,1.6,3.24-.75-1.83.36-2.55.19-3.79,2.41,3.22.83,4.62.83,4.62s.55.09.78-1.27c.79,2.35-.94,3.17-.94,3.17s.09.53-1.15.53S14.57,6.52,14.57,6.52Z"/><path class="cls-5" d="M14.42,1.46c.12,2.3,2,2.67,2.19,4.79C16.74,4.26,14.65,3.63,14.42,1.46Z"/><path class="cls-5" d="M14,4.53c.54,1.83,2.12.48,2.65,1.72C16.2,4.94,14.32,6.12,14,4.53Z"/><path class="cls-5" d="M17.8,4.17a1.89,1.89,0,0,1-1.19,2.08A2.12,2.12,0,0,0,17.8,4.17Z"/><path class="cls-5" d="M16,3.79c1.64.63.59,2.46.59,2.46S17.41,4.42,16,3.79Z"/><path class="cls-5" d="M14.52,5.84c.08,1.56,2.09.41,2.09.41S14.8,7.29,14.52,5.84Z"/><path class="cls-5" d="M16.48.76A3.47,3.47,0,0,1,17,4.32,4.39,4.39,0,0,0,16.48.76Z"/></g></g></svg>