<svg xmlns="http://www.w3.org/2000/svg" viewBox="0 0 4.48 3.26"><defs><style>.cls-1{fill:#d5eeff;}.cls-2{fill:#e2faff;}.cls-3{fill:#8bc6fd;}.cls-4{fill:#7abefd;}.cls-5{fill:#5ca8e6;}.cls-6{fill:#c0dffd;}.cls-7{fill:#e7fffe;}.cls-8{fill:#d6f3ff;}.cls-9{fill:#ceeffe;}.cls-10{fill:#eafffe;}.cls-11{fill:#c7eaff;}.cls-12{fill:#82d7ff;}.cls-13{fill:#b3e0fa;}.cls-14{fill:#d8f8ff;}.cls-15{fill:#edf7fc;}.cls-16{fill:#66a6bf;}.cls-17{fill:#b3e7ff;}.cls-18{fill:#beeaff;}.cls-19{fill:#68838d;}.cls-20{fill:#16d1ff;}.cls-21{fill:#428bbd;}.cls-22{fill:#72c4fc;}.cls-23{fill:#a4c7ea;}.cls-24{fill:#d0eafe;}.cls-25{fill:#c4e2fd;}.cls-26{fill:#ebfffe;}.cls-27{fill:#229faf;}.cls-28{fill:#dcfab9;}.cls-29{fill:#fff;}.cls-30{fill:#c2e7ff;}.cls-31{fill:#f3fffe;}.cls-32{fill:#c5e9fd;}</style></defs><title>is</title><g id="Layer_2" data-name="Layer 2"><g id="Layer_1-2" data-name="Layer 1"><path class="cls-1" d="M0,.54,0,.87V1l.07.15a.64.64,0,0,0,.1.13l.09.07L3.05,3c.11.07.13.1.22.12l.09,0h0l-.1.09a.45.45,0,0,0,.23,0l.19,0a.58.58,0,0,0,.19,0l.06,0,.12-.06h0l.31-.17,0,0h0v0h0l-.15-.08-.08,0L1.05.92.35.66,0,.55Z"/><polygon class="cls-2" points="3.43 2.99 4.17 3.01 4.17 3.02 4.36 2.92 4.41 2.9 4.43 2.88 3.72 2.8 3.43 2.99"/><path class="cls-3" d="M3.19,3.19l.07,0a.45.45,0,0,0,.23,0l.19,0a.58.58,0,0,0,.19,0l.06,0-.57,0h0l-.09,0Z"/><path class="cls-4" d="M.19,1.31l0,.16.08.06L3.19,3.19h0l.08-.09c-.09,0-.11-.05-.22-.12L.28,1.38Z"/><path class="cls-5" d="M0,1v.15l.05.09a.5.5,0,0,0,.15.2l0-.16a.64.64,0,0,1-.1-.13Z"/><path class="cls-6" d="M0,.54,0,.87l.14.25,0-.27A.47.47,0,0,0,0,.55Z"/><path class="cls-7" d="M.28,1,3.05,2.58a1.66,1.66,0,0,0,.48.19l.77.14a.14.14,0,0,0,.16-.21l-.08-.14A1.56,1.56,0,0,0,3.81,2L1.22.49A1.51,1.51,0,0,0,.87.35L.56.27a.39.39,0,0,0-.3,0L.08.41A.16.16,0,0,0,0,.62L.09.78A.48.48,0,0,0,.28,1Z"/><path class="cls-8" d="M4.4,2.73l-.08-.14a1.55,1.55,0,0,0-.54-.54L1.79.9A.23.23,0,0,1,1.72,1L3.78,2.23a1.47,1.47,0,0,1,.54.54l0,.07h0l0,0h0A.07.07,0,0,0,4.4,2.73Z"/><path class="cls-8" d="M1.6,1l-.07.09a.49.49,0,0,1-.16.16l-.22.19L.56,1.07h0L.32.93A.39.39,0,0,1,.22.85L.15.76l0-.1h0L.29.55A.34.34,0,0,1,.43.5H.54L.85.59l.06,0A.85.85,0,0,1,1.13.7l.06,0Z"/><path class="cls-8" d="M1.37.66,1.19.55A2,2,0,0,0,.85.41L.54.33H.46a.34.34,0,0,0-.17,0L.11.47a.08.08,0,0,0,0,.12l0,.07h0L.29.55A.34.34,0,0,1,.46.5H.54L.85.59a1.43,1.43,0,0,1,.34.14L1.3.8A.27.27,0,0,1,1.37.66Z"/><path class="cls-8" d="M4.36,2.84h0L3.54,2.7a1.5,1.5,0,0,1-.46-.17l0,0L3,2.46H3L1.65,1.7h0l.08-.07A1,1,0,0,0,2,1.35l.1-.12,1.52.88h0l.2.12a1.47,1.47,0,0,1,.54.54Z"/><path class="cls-9" d="M4.38,2.84l-.9-.45L.21.48.54.33,1.4.68,3.51,1.9l.42.24.33.39A.58.58,0,0,1,4.38,2.84Z"/><path class="cls-10" d="M3.45,2.38A.93.93,0,0,1,3,2.46H3L1.62,1.69l.08-.07A1,1,0,0,0,2,1.35l.1-.12,1.52.88h0A.26.26,0,0,1,3.45,2.38Z"/><path class="cls-11" d="M3.45,2.41A.63.63,0,0,1,3,2.5L3,2.46a.93.93,0,0,0,.49-.08.29.29,0,0,0,.13-.21A.24.24,0,0,1,3.45,2.41Z"/><polygon class="cls-12" points="4.37 2.84 4.36 2.84 4.36 2.84 4.37 2.84"/><path class="cls-13" d="M1.79,1l2,1.15a1.55,1.55,0,0,1,.54.54l.07.12h0a.07.07,0,0,0,0-.08l-.08-.14a1.55,1.55,0,0,0-.54-.54L1.79.9A.23.23,0,0,1,1.72,1l.06,0S1.79,1,1.79,1Z"/><path class="cls-13" d="M.08.6l0,0L.29.46A.34.34,0,0,1,.46.41H.54L.85.5a1.43,1.43,0,0,1,.34.14l.14.08,0-.06L1.19.55A2,2,0,0,0,.85.41L.54.33H.46a.34.34,0,0,0-.17,0L.11.47a.08.08,0,0,0,0,.12Z"/><path class="cls-13" d="M.55.82v.25L.32.93A.39.39,0,0,1,.22.85V.63Z"/><polygon class="cls-7" points="0.56 1.07 0.55 1.08 0.55 1.07 0.56 1.07"/><polygon class="cls-14" points="1.13 0.48 1.13 0.74 0.56 1.07 0.55 1.07 0.55 0.82 0.91 0.61 1.13 0.48"/><polygon class="cls-7" points="0.8 0.29 1.13 0.48 0.55 0.82 0.22 0.63 0.8 0.29"/><polygon class="cls-15" points="0.31 0.63 0.8 0.34 1.04 0.48 0.55 0.77 0.31 0.63"/><polygon class="cls-13" points="1.15 1.11 0.62 0.8 0.62 1.04 1.15 1.34 1.15 1.11"/><polygon class="cls-14" points="1.62 0.84 1.62 1.07 1.15 1.34 1.15 1.11 1.62 0.84"/><polygon class="cls-7" points="1.09 0.53 1.62 0.84 1.15 1.11 0.62 0.8 1.09 0.53"/><polygon class="cls-15" points="0.71 0.8 1.09 0.58 1.53 0.84 1.15 1.06 0.71 0.8"/><polygon class="cls-16" points="0.67 1 0.67 1.01 0.67 1.02 0.67 1.02 0.67 1.03 0.66 1.03 0.65 1.02 0.65 1.02 0.65 1.01 0.65 1 0.65 1 0.65 0.98 0.65 0.98 0.65 0.98 0.65 0.98 0.66 0.99 0.67 0.99 0.67 1"/><polygon class="cls-17" points="0.65 0.98 0.65 1.01 0.65 1.02 0.67 1.03 0.67 1.03 0.66 1.03 0.65 1.02 0.65 1.01 0.65 0.98 0.65 0.98 0.65 0.98"/><polygon class="cls-16" points="0.72 1.03 0.72 1.04 0.72 1.05 0.72 1.05 0.72 1.06 0.72 1.06 0.7 1.05 0.7 1.05 0.7 1.05 0.7 1.03 0.7 1.03 0.7 1.02 0.71 1.01 0.71 1.01 0.71 1.01 0.72 1.02 0.72 1.02 0.72 1.03"/><polygon class="cls-17" points="0.7 1.01 0.7 1.05 0.71 1.05 0.72 1.06 0.72 1.06 0.72 1.06 0.7 1.05 0.7 1.05 0.7 1.02 0.7 1.01 0.7 1.01"/><polygon class="cls-16" points="0.78 1.06 0.78 1.08 0.78 1.08 0.78 1.09 0.78 1.09 0.77 1.09 0.76 1.08 0.76 1.08 0.76 1.08 0.76 1.06 0.76 1.06 0.76 1.05 0.76 1.04 0.76 1.04 0.76 1.05 0.77 1.05 0.78 1.05 0.78 1.06"/><polygon class="cls-17" points="0.76 1.05 0.76 1.08 0.76 1.08 0.78 1.09 0.78 1.09 0.77 1.09 0.76 1.08 0.76 1.08 0.76 1.05 0.76 1.04 0.76 1.05"/><polygon class="cls-16" points="0.83 1.09 0.83 1.11 0.83 1.11 0.83 1.12 0.83 1.12 0.83 1.12 0.81 1.12 0.81 1.11 0.81 1.11 0.81 1.09 0.81 1.09 0.81 1.08 0.81 1.08 0.82 1.08 0.82 1.08 0.83 1.08 0.83 1.09 0.83 1.09"/><polygon class="cls-17" points="0.81 1.08 0.81 1.11 0.82 1.12 0.83 1.12 0.83 1.12 0.83 1.12 0.81 1.12 0.81 1.11 0.81 1.08 0.81 1.08 0.81 1.08"/><polygon class="cls-16" points="0.89 1.12 0.89 1.14 0.89 1.14 0.89 1.15 0.89 1.15 0.88 1.16 0.87 1.15 0.86 1.14 0.86 1.14 0.86 1.13 0.86 1.13 0.86 1.11 0.87 1.11 0.87 1.11 0.87 1.11 0.88 1.11 0.89 1.12 0.89 1.12"/><polygon class="cls-17" points="0.87 1.11 0.87 1.14 0.87 1.15 0.88 1.16 0.89 1.16 0.88 1.16 0.87 1.15 0.86 1.14 0.86 1.11 0.87 1.11 0.87 1.11"/><polygon class="cls-16" points="0.94 1.15 0.94 1.17 0.94 1.17 0.94 1.18 0.94 1.19 0.94 1.19 0.92 1.18 0.92 1.17 0.92 1.17 0.92 1.16 0.92 1.16 0.92 1.14 0.92 1.14 0.93 1.14 0.93 1.14 0.94 1.15 0.94 1.15 0.94 1.15"/><polygon class="cls-17" points="0.92 1.14 0.92 1.17 0.93 1.18 0.94 1.19 0.94 1.19 0.94 1.19 0.92 1.18 0.92 1.17 0.92 1.14 0.92 1.14 0.92 1.14"/><polygon class="cls-16" points="1 1.19 1 1.2 1 1.21 1 1.21 1 1.22 0.99 1.22 0.98 1.21 0.97 1.21 0.97 1.21 0.97 1.19 0.97 1.19 0.97 1.17 0.98 1.17 0.98 1.17 0.98 1.17 0.99 1.18 0.99 1.18 1 1.19"/><polygon class="cls-17" points="0.98 1.17 0.98 1.2 0.98 1.21 0.99 1.22 0.99 1.22 0.99 1.22 0.98 1.21 0.97 1.21 0.97 1.17 0.98 1.17 0.98 1.17"/><polygon class="cls-16" points="1.05 1.22 1.05 1.23 1.05 1.24 1.05 1.24 1.05 1.25 1.05 1.25 1.03 1.24 1.03 1.24 1.03 1.24 1.03 1.22 1.03 1.22 1.03 1.21 1.03 1.2 1.03 1.2 1.03 1.2 1.05 1.21 1.05 1.21 1.05 1.22"/><polygon class="cls-17" points="1.03 1.2 1.03 1.24 1.03 1.24 1.05 1.25 1.05 1.25 1.05 1.25 1.03 1.24 1.03 1.24 1.03 1.21 1.03 1.2 1.03 1.2"/><polygon class="cls-16" points="1.1 1.25 1.1 1.26 1.1 1.27 1.1 1.28 1.1 1.28 1.1 1.28 1.09 1.27 1.08 1.27 1.08 1.27 1.08 1.25 1.08 1.25 1.08 1.24 1.09 1.23 1.09 1.23 1.09 1.24 1.1 1.24 1.1 1.24 1.1 1.25"/><polygon class="cls-17" points="1.09 1.24 1.09 1.27 1.09 1.27 1.1 1.28 1.1 1.28 1.1 1.28 1.09 1.27 1.08 1.27 1.08 1.24 1.09 1.23 1.09 1.24"/><polygon class="cls-16" points="1.16 1.28 1.16 1.3 1.16 1.3 1.16 1.31 1.16 1.31 1.16 1.31 1.14 1.31 1.14 1.3 1.14 1.3 1.14 1.28 1.14 1.28 1.14 1.27 1.14 1.26 1.14 1.27 1.14 1.27 1.16 1.27 1.16 1.27 1.16 1.28"/><polygon class="cls-17" points="1.14 1.27 1.14 1.3 1.14 1.3 1.16 1.31 1.16 1.31 1.16 1.31 1.14 1.31 1.14 1.3 1.14 1.27 1.14 1.26 1.14 1.27"/><polygon class="cls-16" points="1.21 1.31 1.21 1.33 1.21 1.33 1.21 1.34 1.21 1.34 1.21 1.34 1.2 1.34 1.19 1.33 1.19 1.33 1.19 1.31 1.19 1.31 1.19 1.3 1.2 1.3 1.2 1.3 1.2 1.3 1.21 1.3 1.21 1.31 1.21 1.31"/><polygon class="cls-17" points="1.2 1.3 1.2 1.33 1.2 1.34 1.21 1.34 1.21 1.34 1.21 1.34 1.2 1.34 1.19 1.33 1.19 1.3 1.2 1.3 1.2 1.3"/><polygon class="cls-16" points="1.27 1.34 1.27 1.36 1.27 1.36 1.27 1.37 1.27 1.37 1.26 1.38 1.25 1.37 1.25 1.36 1.25 1.36 1.25 1.35 1.25 1.35 1.25 1.33 1.25 1.33 1.25 1.33 1.25 1.33 1.26 1.34 1.27 1.34 1.27 1.34"/><polygon class="cls-17" points="1.25 1.33 1.25 1.36 1.25 1.37 1.27 1.38 1.27 1.38 1.26 1.38 1.25 1.37 1.25 1.36 1.25 1.33 1.25 1.33 1.25 1.33"/><polygon class="cls-16" points="1.32 1.37 1.32 1.39 1.32 1.39 1.32 1.4 1.32 1.41 1.32 1.41 1.31 1.4 1.3 1.39 1.3 1.39 1.3 1.38 1.3 1.38 1.3 1.36 1.31 1.36 1.31 1.36 1.31 1.36 1.32 1.37 1.32 1.37 1.32 1.37"/><polygon class="cls-17" points="1.3 1.36 1.3 1.39 1.31 1.4 1.32 1.41 1.32 1.41 1.32 1.41 1.31 1.4 1.3 1.39 1.3 1.36 1.3 1.36 1.3 1.36"/><polygon class="cls-16" points="1.38 1.41 1.38 1.42 1.38 1.43 1.38 1.43 1.38 1.44 1.37 1.44 1.36 1.43 1.36 1.43 1.36 1.43 1.36 1.41 1.36 1.41 1.36 1.39 1.36 1.39 1.36 1.39 1.36 1.39 1.37 1.4 1.38 1.4 1.38 1.41"/><polygon class="cls-17" points="1.36 1.39 1.36 1.42 1.36 1.43 1.38 1.44 1.38 1.44 1.37 1.44 1.36 1.43 1.36 1.43 1.36 1.39 1.36 1.39 1.36 1.39"/><polygon class="cls-16" points="1.43 1.44 1.43 1.45 1.43 1.46 1.43 1.47 1.43 1.47 1.43 1.47 1.42 1.46 1.41 1.46 1.41 1.46 1.41 1.44 1.41 1.44 1.41 1.43 1.42 1.42 1.42 1.42 1.42 1.42 1.43 1.43 1.43 1.43 1.43 1.44"/><polygon class="cls-17" points="1.41 1.42 1.41 1.46 1.42 1.46 1.43 1.47 1.43 1.47 1.43 1.47 1.42 1.46 1.41 1.46 1.41 1.43 1.41 1.42 1.41 1.42"/><polygon class="cls-16" points="1.49 1.47 1.49 1.49 1.49 1.49 1.49 1.5 1.49 1.5 1.48 1.5 1.47 1.5 1.47 1.49 1.47 1.49 1.47 1.47 1.47 1.47 1.47 1.46 1.47 1.45 1.47 1.46 1.47 1.46 1.48 1.46 1.49 1.47 1.49 1.47"/><polygon class="cls-17" points="1.47 1.46 1.47 1.49 1.47 1.49 1.49 1.5 1.49 1.5 1.48 1.5 1.47 1.5 1.47 1.49 1.47 1.46 1.47 1.45 1.47 1.46"/><polygon class="cls-16" points="1.54 1.5 1.54 1.52 1.54 1.52 1.54 1.53 1.54 1.53 1.54 1.53 1.52 1.53 1.52 1.52 1.52 1.52 1.52 1.5 1.52 1.5 1.52 1.49 1.52 1.49 1.53 1.49 1.53 1.49 1.54 1.49 1.54 1.5 1.54 1.5"/><polygon class="cls-17" points="1.52 1.49 1.52 1.52 1.53 1.52 1.54 1.53 1.54 1.53 1.54 1.53 1.52 1.53 1.52 1.52 1.52 1.49 1.52 1.49 1.52 1.49"/><polygon class="cls-16" points="1.6 1.53 1.6 1.55 1.6 1.55 1.6 1.56 1.6 1.56 1.59 1.57 1.58 1.56 1.57 1.55 1.57 1.55 1.57 1.54 1.57 1.54 1.57 1.52 1.58 1.52 1.58 1.52 1.58 1.52 1.59 1.52 1.59 1.53 1.6 1.53"/><polygon class="cls-17" points="1.58 1.52 1.58 1.55 1.58 1.56 1.59 1.56 1.6 1.56 1.59 1.56 1.58 1.56 1.57 1.55 1.57 1.52 1.58 1.52 1.58 1.52"/><polygon class="cls-16" points="1.65 1.56 1.65 1.58 1.65 1.58 1.65 1.59 1.65 1.59 1.65 1.6 1.63 1.59 1.63 1.58 1.63 1.58 1.63 1.57 1.63 1.57 1.63 1.55 1.63 1.55 1.64 1.55 1.64 1.55 1.65 1.56 1.65 1.56 1.65 1.56"/><polygon class="cls-17" points="1.63 1.55 1.63 1.58 1.64 1.59 1.65 1.6 1.65 1.6 1.65 1.6 1.63 1.59 1.63 1.58 1.63 1.55 1.63 1.55 1.63 1.55"/><polygon class="cls-16" points="1.71 1.59 1.71 1.61 1.71 1.61 1.71 1.62 1.71 1.63 1.7 1.63 1.69 1.62 1.68 1.61 1.68 1.61 1.68 1.6 1.68 1.6 1.68 1.58 1.69 1.58 1.69 1.58 1.69 1.58 1.7 1.59 1.71 1.59 1.71 1.59"/><polygon class="cls-17" points="1.69 1.58 1.69 1.61 1.69 1.62 1.7 1.63 1.71 1.63 1.7 1.63 1.69 1.62 1.68 1.61 1.68 1.58 1.69 1.58 1.69 1.58"/><polygon class="cls-16" points="1.76 1.63 1.76 1.64 1.76 1.65 1.76 1.65 1.76 1.66 1.76 1.66 1.74 1.65 1.74 1.65 1.74 1.65 1.74 1.63 1.74 1.63 1.74 1.61 1.74 1.61 1.74 1.61 1.75 1.61 1.76 1.62 1.76 1.62 1.76 1.63"/><polygon class="cls-17" points="1.74 1.61 1.74 1.64 1.75 1.65 1.76 1.66 1.76 1.66 1.76 1.66 1.74 1.65 1.74 1.65 1.74 1.61 1.74 1.61 1.74 1.61"/><polygon class="cls-16" points="0.25 0.85 0.25 0.86 0.25 0.87 0.25 0.88 0.25 0.88 0.25 0.88 0.24 0.87 0.23 0.87 0.23 0.87 0.23 0.85 0.23 0.85 0.23 0.84 0.24 0.83 0.24 0.83 0.24 0.83 0.25 0.84 0.25 0.84 0.25 0.85"/><polygon class="cls-17" points="0.23 0.83 0.23 0.87 0.24 0.87 0.25 0.88 0.25 0.88 0.25 0.88 0.24 0.87 0.23 0.87 0.23 0.84 0.24 0.83 0.23 0.83"/><polygon class="cls-16" points="0.31 0.88 0.31 0.9 0.31 0.9 0.31 0.91 0.31 0.91 0.3 0.91 0.29 0.91 0.29 0.9 0.29 0.9 0.29 0.88 0.29 0.88 0.29 0.87 0.29 0.86 0.29 0.87 0.29 0.87 0.31 0.87 0.31 0.88 0.31 0.88"/><polygon class="cls-17" points="0.29 0.87 0.29 0.9 0.29 0.9 0.31 0.91 0.31 0.91 0.3 0.91 0.29 0.91 0.29 0.9 0.29 0.87 0.29 0.86 0.29 0.87"/><polygon class="cls-16" points="0.36 0.91 0.36 0.93 0.36 0.93 0.36 0.94 0.36 0.94 0.36 0.94 0.35 0.94 0.34 0.93 0.34 0.93 0.34 0.91 0.34 0.91 0.34 0.9 0.35 0.9 0.35 0.9 0.35 0.9 0.36 0.9 0.36 0.91 0.36 0.91"/><polygon class="cls-17" points="0.34 0.9 0.34 0.93 0.35 0.94 0.36 0.94 0.36 0.94 0.36 0.94 0.35 0.94 0.34 0.93 0.34 0.9 0.35 0.9 0.34 0.9"/><polygon class="cls-16" points="0.42 0.94 0.42 0.96 0.42 0.96 0.42 0.97 0.42 0.97 0.41 0.98 0.4 0.97 0.4 0.96 0.4 0.96 0.4 0.95 0.4 0.95 0.4 0.93 0.4 0.93 0.4 0.93 0.4 0.93 0.42 0.94 0.42 0.94 0.42 0.94"/><polygon class="cls-17" points="0.4 0.93 0.4 0.96 0.4 0.97 0.42 0.97 0.42 0.97 0.41 0.98 0.4 0.97 0.4 0.96 0.4 0.93 0.4 0.93 0.4 0.93"/><polygon class="cls-16" points="0.47 0.97 0.47 0.99 0.47 0.99 0.47 1 0.47 1 0.47 1.01 0.46 1 0.45 0.99 0.45 0.99 0.45 0.98 0.45 0.98 0.45 0.96 0.46 0.96 0.46 0.96 0.46 0.96 0.47 0.97 0.47 0.97 0.47 0.97"/><polygon class="cls-17" points="0.46 0.96 0.46 0.99 0.46 1 0.47 1.01 0.47 1.01 0.47 1.01 0.46 1 0.45 0.99 0.45 0.96 0.46 0.96 0.46 0.96"/><polygon class="cls-16" points="0.53 1 0.53 1.02 0.53 1.02 0.53 1.03 0.53 1.03 0.53 1.04 0.51 1.03 0.51 1.02 0.51 1.02 0.51 1.01 0.51 1.01 0.51 0.99 0.51 0.99 0.51 0.99 0.52 0.99 0.53 1 0.53 1 0.53 1"/><polygon class="cls-17" points="0.51 0.99 0.51 1.02 0.51 1.03 0.53 1.04 0.53 1.04 0.53 1.04 0.51 1.03 0.51 1.02 0.51 0.99 0.51 0.99 0.51 0.99"/><polygon class="cls-16" points="0.25 0.77 0.25 0.79 0.25 0.79 0.25 0.8 0.25 0.8 0.25 0.8 0.24 0.8 0.23 0.79 0.23 0.79 0.23 0.77 0.23 0.77 0.23 0.76 0.24 0.76 0.24 0.76 0.24 0.76 0.25 0.76 0.25 0.77 0.25 0.77"/><polygon class="cls-17" points="0.23 0.76 0.23 0.79 0.24 0.8 0.25 0.8 0.25 0.8 0.25 0.8 0.24 0.8 0.23 0.79 0.23 0.76 0.24 0.76 0.23 0.76"/><polygon class="cls-16" points="0.31 0.8 0.31 0.82 0.31 0.82 0.31 0.83 0.31 0.83 0.3 0.83 0.29 0.83 0.29 0.82 0.29 0.82 0.29 0.81 0.29 0.81 0.29 0.79 0.29 0.79 0.29 0.79 0.29 0.79 0.31 0.79 0.31 0.8 0.31 0.8"/><polygon class="cls-17" points="0.29 0.79 0.29 0.82 0.29 0.83 0.31 0.83 0.31 0.83 0.3 0.83 0.29 0.83 0.29 0.82 0.29 0.79 0.29 0.79 0.29 0.79"/><polygon class="cls-16" points="0.36 0.83 0.36 0.85 0.36 0.85 0.36 0.86 0.36 0.86 0.36 0.87 0.35 0.86 0.34 0.85 0.34 0.85 0.34 0.84 0.34 0.84 0.34 0.82 0.35 0.82 0.35 0.82 0.35 0.82 0.36 0.83 0.36 0.83 0.36 0.83"/><polygon class="cls-17" points="0.34 0.82 0.34 0.85 0.35 0.86 0.36 0.86 0.36 0.86 0.36 0.87 0.35 0.86 0.34 0.85 0.34 0.82 0.35 0.82 0.34 0.82"/><polygon class="cls-16" points="0.42 0.86 0.42 0.88 0.42 0.88 0.42 0.89 0.42 0.9 0.41 0.9 0.4 0.89 0.4 0.88 0.4 0.88 0.4 0.87 0.4 0.87 0.4 0.85 0.4 0.85 0.4 0.85 0.4 0.85 0.42 0.86 0.42 0.86 0.42 0.86"/><polygon class="cls-17" points="0.4 0.85 0.4 0.88 0.4 0.89 0.42 0.9 0.42 0.9 0.41 0.9 0.4 0.89 0.4 0.88 0.4 0.85 0.4 0.85 0.4 0.85"/><polygon class="cls-16" points="0.47 0.9 0.47 0.91 0.47 0.91 0.47 0.92 0.47 0.93 0.47 0.93 0.46 0.92 0.45 0.92 0.45 0.91 0.45 0.9 0.45 0.9 0.45 0.88 0.46 0.88 0.46 0.88 0.46 0.88 0.47 0.89 0.47 0.89 0.47 0.9"/><polygon class="cls-17" points="0.46 0.88 0.46 0.91 0.46 0.92 0.47 0.93 0.47 0.93 0.47 0.93 0.46 0.92 0.45 0.91 0.45 0.88 0.46 0.88 0.46 0.88"/><polygon class="cls-16" points="0.53 0.93 0.53 0.94 0.53 0.95 0.53 0.95 0.53 0.96 0.53 0.96 0.51 0.95 0.51 0.95 0.51 0.95 0.51 0.93 0.51 0.93 0.51 0.92 0.51 0.91 0.51 0.91 0.52 0.91 0.53 0.92 0.53 0.92 0.53 0.93"/><polygon class="cls-17" points="0.51 0.91 0.51 0.94 0.51 0.95 0.53 0.96 0.53 0.96 0.53 0.96 0.51 0.95 0.51 0.95 0.51 0.92 0.51 0.91 0.51 0.91"/><polygon class="cls-16" points="0.25 0.69 0.25 0.71 0.25 0.71 0.25 0.72 0.25 0.72 0.25 0.73 0.24 0.72 0.23 0.71 0.23 0.71 0.23 0.7 0.23 0.7 0.23 0.68 0.24 0.68 0.24 0.68 0.24 0.68 0.25 0.69 0.25 0.69 0.25 0.69"/><polygon class="cls-17" points="0.23 0.68 0.23 0.71 0.24 0.72 0.25 0.72 0.25 0.72 0.25 0.72 0.24 0.72 0.23 0.71 0.23 0.68 0.24 0.68 0.23 0.68"/><polygon class="cls-16" points="0.31 0.72 0.31 0.74 0.31 0.74 0.31 0.75 0.31 0.75 0.3 0.76 0.29 0.75 0.29 0.74 0.29 0.74 0.29 0.73 0.29 0.73 0.29 0.71 0.29 0.71 0.29 0.71 0.29 0.71 0.31 0.72 0.31 0.72 0.31 0.72"/><polygon class="cls-17" points="0.29 0.71 0.29 0.74 0.29 0.75 0.31 0.76 0.31 0.76 0.3 0.76 0.29 0.75 0.29 0.74 0.29 0.71 0.29 0.71 0.29 0.71"/><polygon class="cls-16" points="0.36 0.75 0.36 0.77 0.36 0.77 0.36 0.78 0.36 0.79 0.36 0.79 0.35 0.78 0.34 0.77 0.34 0.77 0.34 0.76 0.34 0.76 0.34 0.74 0.35 0.74 0.35 0.74 0.35 0.74 0.36 0.75 0.36 0.75 0.36 0.75"/><polygon class="cls-17" points="0.34 0.74 0.34 0.77 0.35 0.78 0.36 0.79 0.36 0.79 0.36 0.79 0.35 0.78 0.34 0.77 0.34 0.74 0.35 0.74 0.34 0.74"/><polygon class="cls-16" points="0.42 0.79 0.42 0.8 0.42 0.81 0.42 0.81 0.42 0.82 0.41 0.82 0.4 0.81 0.4 0.81 0.4 0.81 0.4 0.79 0.4 0.79 0.4 0.77 0.4 0.77 0.4 0.77 0.4 0.77 0.42 0.78 0.42 0.78 0.42 0.79"/><polygon class="cls-17" points="0.4 0.77 0.4 0.8 0.4 0.81 0.42 0.82 0.42 0.82 0.41 0.82 0.4 0.81 0.4 0.81 0.4 0.77 0.4 0.77 0.4 0.77"/><polygon class="cls-16" points="0.47 0.82 0.47 0.83 0.47 0.84 0.47 0.84 0.47 0.85 0.47 0.85 0.46 0.84 0.45 0.84 0.45 0.84 0.45 0.82 0.45 0.82 0.45 0.81 0.46 0.8 0.46 0.8 0.46 0.8 0.47 0.81 0.47 0.81 0.47 0.82"/><polygon class="cls-17" points="0.46 0.8 0.46 0.83 0.46 0.84 0.47 0.85 0.47 0.85 0.47 0.85 0.46 0.84 0.45 0.84 0.45 0.81 0.46 0.8 0.46 0.8"/><polygon class="cls-16" points="0.53 0.85 0.53 0.86 0.53 0.87 0.53 0.88 0.53 0.88 0.53 0.88 0.51 0.87 0.51 0.87 0.51 0.87 0.51 0.85 0.51 0.85 0.51 0.84 0.51 0.83 0.51 0.83 0.52 0.83 0.53 0.84 0.53 0.84 0.53 0.85"/><polygon class="cls-17" points="0.51 0.83 0.51 0.87 0.51 0.87 0.53 0.88 0.53 0.88 0.53 0.88 0.51 0.87 0.51 0.87 0.51 0.84 0.51 0.83 0.51 0.83"/><polygon class="cls-16" points="0.67 0.9 0.67 0.92 0.67 0.92 0.67 0.93 0.67 0.93 0.66 0.93 0.65 0.93 0.65 0.92 0.65 0.92 0.65 0.9 0.65 0.9 0.65 0.89 0.65 0.89 0.65 0.89 0.65 0.89 0.66 0.89 0.67 0.9 0.67 0.9"/><polygon class="cls-17" points="0.65 0.89 0.65 0.92 0.65 0.93 0.67 0.93 0.67 0.93 0.66 0.93 0.65 0.93 0.65 0.92 0.65 0.89 0.65 0.89 0.65 0.89"/><polygon class="cls-16" points="0.72 0.93 0.72 0.95 0.72 0.95 0.72 0.96 0.72 0.96 0.72 0.97 0.7 0.96 0.7 0.95 0.7 0.95 0.7 0.94 0.7 0.94 0.7 0.92 0.71 0.92 0.71 0.92 0.71 0.92 0.72 0.93 0.72 0.93 0.72 0.93"/><polygon class="cls-17" points="0.7 0.92 0.7 0.95 0.71 0.96 0.72 0.96 0.72 0.96 0.72 0.97 0.7 0.96 0.7 0.95 0.7 0.92 0.7 0.92 0.7 0.92"/><polygon class="cls-16" points="0.78 0.96 0.78 0.98 0.78 0.98 0.78 0.99 0.78 0.99 0.77 1 0.76 0.99 0.76 0.98 0.76 0.98 0.76 0.97 0.76 0.97 0.76 0.95 0.76 0.95 0.76 0.95 0.76 0.95 0.77 0.96 0.78 0.96 0.78 0.96"/><polygon class="cls-17" points="0.76 0.95 0.76 0.98 0.76 0.99 0.78 1 0.78 1 0.77 1 0.76 0.99 0.76 0.98 0.76 0.95 0.76 0.95 0.76 0.95"/><polygon class="cls-16" points="0.83 0.99 0.83 1.01 0.83 1.01 0.83 1.02 0.83 1.03 0.83 1.03 0.81 1.02 0.81 1.01 0.81 1.01 0.81 1 0.81 1 0.81 0.98 0.81 0.98 0.82 0.98 0.82 0.98 0.83 0.99 0.83 0.99 0.83 0.99"/><polygon class="cls-17" points="0.81 0.98 0.81 1.01 0.82 1.02 0.83 1.03 0.83 1.03 0.83 1.03 0.81 1.02 0.81 1.01 0.81 0.98 0.81 0.98 0.81 0.98"/><polygon class="cls-16" points="0.89 1.03 0.89 1.04 0.89 1.05 0.89 1.05 0.89 1.06 0.88 1.06 0.87 1.05 0.86 1.05 0.86 1.05 0.86 1.03 0.86 1.03 0.86 1.01 0.87 1.01 0.87 1.01 0.87 1.01 0.88 1.02 0.89 1.02 0.89 1.03"/><polygon class="cls-17" points="0.87 1.01 0.87 1.04 0.87 1.05 0.88 1.06 0.89 1.06 0.88 1.06 0.87 1.05 0.86 1.05 0.86 1.01 0.87 1.01 0.87 1.01"/><polygon class="cls-16" points="0.94 1.06 0.94 1.07 0.94 1.08 0.94 1.08 0.94 1.09 0.94 1.09 0.92 1.08 0.92 1.08 0.92 1.08 0.92 1.06 0.92 1.06 0.92 1.05 0.92 1.04 0.93 1.04 0.93 1.04 0.94 1.05 0.94 1.05 0.94 1.06"/><polygon class="cls-17" points="0.92 1.04 0.92 1.08 0.93 1.08 0.94 1.09 0.94 1.09 0.94 1.09 0.92 1.08 0.92 1.08 0.92 1.05 0.92 1.04 0.92 1.04"/><polygon class="cls-16" points="1 1.09 1 1.11 1 1.11 1 1.12 1 1.12 0.99 1.12 0.98 1.12 0.97 1.11 0.97 1.11 0.97 1.09 0.97 1.09 0.97 1.08 0.98 1.07 0.98 1.08 0.98 1.08 0.99 1.08 0.99 1.08 1 1.09"/><polygon class="cls-17" points="0.98 1.08 0.98 1.11 0.98 1.11 0.99 1.12 0.99 1.12 0.99 1.12 0.98 1.12 0.97 1.11 0.97 1.08 0.98 1.07 0.98 1.08"/><polygon class="cls-16" points="1.05 1.12 1.05 1.14 1.05 1.14 1.05 1.15 1.05 1.15 1.05 1.16 1.03 1.15 1.03 1.14 1.03 1.14 1.03 1.13 1.03 1.13 1.03 1.11 1.03 1.11 1.03 1.11 1.03 1.11 1.05 1.11 1.05 1.12 1.05 1.12"/><polygon class="cls-17" points="1.03 1.11 1.03 1.14 1.03 1.15 1.05 1.15 1.05 1.15 1.05 1.16 1.03 1.15 1.03 1.14 1.03 1.11 1.03 1.11 1.03 1.11"/><polygon class="cls-16" points="1.1 1.15 1.1 1.17 1.1 1.17 1.1 1.18 1.1 1.18 1.1 1.19 1.09 1.18 1.08 1.17 1.08 1.17 1.08 1.16 1.08 1.16 1.08 1.14 1.09 1.14 1.09 1.14 1.09 1.14 1.1 1.15 1.1 1.15 1.1 1.15"/><polygon class="cls-17" points="1.09 1.14 1.09 1.17 1.09 1.18 1.1 1.19 1.1 1.19 1.1 1.19 1.09 1.18 1.08 1.17 1.08 1.14 1.09 1.14 1.09 1.14"/><polygon class="cls-16" points="1.16 1.18 1.16 1.2 1.16 1.2 1.16 1.21 1.16 1.22 1.16 1.22 1.14 1.21 1.14 1.2 1.14 1.2 1.14 1.19 1.14 1.19 1.14 1.17 1.14 1.17 1.14 1.17 1.14 1.17 1.16 1.18 1.16 1.18 1.16 1.18"/><polygon class="cls-17" points="1.14 1.17 1.14 1.2 1.14 1.21 1.16 1.22 1.16 1.22 1.16 1.22 1.14 1.21 1.14 1.2 1.14 1.17 1.14 1.17 1.14 1.17"/><polygon class="cls-16" points="1.21 1.22 1.21 1.23 1.21 1.24 1.21 1.24 1.21 1.25 1.21 1.25 1.2 1.24 1.19 1.24 1.19 1.24 1.19 1.22 1.19 1.22 1.19 1.2 1.2 1.2 1.2 1.2 1.2 1.2 1.21 1.21 1.21 1.21 1.21 1.22"/><polygon class="cls-17" points="1.2 1.2 1.2 1.23 1.2 1.24 1.21 1.25 1.21 1.25 1.21 1.25 1.2 1.24 1.19 1.24 1.19 1.2 1.2 1.2 1.2 1.2"/><polygon class="cls-16" points="1.27 1.25 1.27 1.26 1.27 1.27 1.27 1.27 1.27 1.28 1.26 1.28 1.25 1.27 1.25 1.27 1.25 1.27 1.25 1.25 1.25 1.25 1.25 1.24 1.25 1.23 1.25 1.23 1.25 1.23 1.26 1.24 1.27 1.24 1.27 1.25"/><polygon class="cls-17" points="1.25 1.23 1.25 1.26 1.25 1.27 1.27 1.28 1.27 1.28 1.26 1.28 1.25 1.27 1.25 1.27 1.25 1.24 1.25 1.23 1.25 1.23"/><polygon class="cls-16" points="1.32 1.28 1.32 1.29 1.32 1.3 1.32 1.31 1.32 1.31 1.32 1.31 1.31 1.3 1.3 1.3 1.3 1.3 1.3 1.28 1.3 1.28 1.3 1.27 1.31 1.26 1.31 1.26 1.31 1.26 1.32 1.27 1.32 1.27 1.32 1.28"/><polygon class="cls-17" points="1.3 1.27 1.3 1.3 1.31 1.3 1.32 1.31 1.32 1.31 1.32 1.31 1.31 1.3 1.3 1.3 1.3 1.27 1.3 1.26 1.3 1.27"/><polygon class="cls-16" points="1.38 1.31 1.38 1.33 1.38 1.33 1.38 1.34 1.38 1.34 1.37 1.34 1.36 1.34 1.36 1.33 1.36 1.33 1.36 1.31 1.36 1.31 1.36 1.3 1.36 1.3 1.36 1.3 1.36 1.3 1.37 1.3 1.38 1.31 1.38 1.31"/><polygon class="cls-17" points="1.36 1.3 1.36 1.33 1.36 1.33 1.38 1.34 1.38 1.34 1.37 1.34 1.36 1.34 1.36 1.33 1.36 1.3 1.36 1.29 1.36 1.3"/><polygon class="cls-16" points="1.43 1.34 1.43 1.36 1.43 1.36 1.43 1.37 1.43 1.37 1.43 1.38 1.42 1.37 1.41 1.36 1.41 1.36 1.41 1.34 1.41 1.34 1.41 1.33 1.42 1.33 1.42 1.33 1.42 1.33 1.43 1.33 1.43 1.34 1.43 1.34"/><polygon class="cls-17" points="1.41 1.33 1.41 1.36 1.42 1.37 1.43 1.37 1.43 1.37 1.43 1.38 1.42 1.37 1.41 1.36 1.41 1.33 1.41 1.33 1.41 1.33"/><polygon class="cls-16" points="1.49 1.37 1.49 1.39 1.49 1.39 1.49 1.4 1.49 1.4 1.48 1.41 1.47 1.4 1.47 1.39 1.47 1.39 1.47 1.38 1.47 1.38 1.47 1.36 1.47 1.36 1.47 1.36 1.47 1.36 1.48 1.37 1.49 1.37 1.49 1.37"/><polygon class="cls-17" points="1.47 1.36 1.47 1.39 1.47 1.4 1.49 1.41 1.49 1.41 1.48 1.41 1.47 1.4 1.47 1.39 1.47 1.36 1.47 1.36 1.47 1.36"/><polygon class="cls-16" points="1.54 1.41 1.54 1.42 1.54 1.42 1.54 1.43 1.54 1.44 1.54 1.44 1.52 1.43 1.52 1.42 1.52 1.42 1.52 1.41 1.52 1.41 1.52 1.39 1.52 1.39 1.53 1.39 1.53 1.39 1.54 1.4 1.54 1.4 1.54 1.41"/><polygon class="cls-17" points="1.52 1.39 1.52 1.42 1.53 1.43 1.54 1.44 1.54 1.44 1.54 1.44 1.52 1.43 1.52 1.42 1.52 1.39 1.52 1.39 1.52 1.39"/><polygon class="cls-16" points="1.6 1.44 1.6 1.45 1.6 1.46 1.6 1.46 1.6 1.47 1.59 1.47 1.58 1.46 1.57 1.46 1.57 1.46 1.57 1.44 1.57 1.44 1.57 1.43 1.58 1.42 1.58 1.42 1.58 1.42 1.59 1.43 1.59 1.43 1.6 1.44"/><polygon class="cls-17" points="1.58 1.42 1.58 1.45 1.58 1.46 1.59 1.47 1.6 1.47 1.59 1.47 1.58 1.46 1.57 1.46 1.57 1.43 1.58 1.42 1.58 1.42"/><polygon class="cls-16" points="1.65 1.47 1.65 1.48 1.65 1.49 1.65 1.5 1.65 1.5 1.65 1.5 1.63 1.49 1.63 1.49 1.63 1.49 1.63 1.47 1.63 1.47 1.63 1.46 1.63 1.45 1.64 1.45 1.64 1.45 1.65 1.46 1.65 1.46 1.65 1.47"/><polygon class="cls-17" points="1.63 1.46 1.63 1.49 1.64 1.49 1.65 1.5 1.65 1.5 1.65 1.5 1.63 1.49 1.63 1.49 1.63 1.46 1.63 1.45 1.63 1.46"/><polygon class="cls-16" points="1.71 1.5 1.71 1.52 1.71 1.52 1.71 1.53 1.71 1.53 1.7 1.53 1.69 1.52 1.68 1.52 1.68 1.52 1.68 1.5 1.68 1.5 1.68 1.49 1.69 1.49 1.69 1.49 1.69 1.49 1.7 1.49 1.71 1.5 1.71 1.5"/><polygon class="cls-17" points="1.69 1.49 1.69 1.52 1.69 1.52 1.7 1.53 1.71 1.53 1.7 1.53 1.69 1.52 1.68 1.52 1.68 1.49 1.69 1.48 1.69 1.49"/><polygon class="cls-16" points="1.76 1.53 1.76 1.55 1.76 1.55 1.76 1.56 1.76 1.56 1.76 1.56 1.74 1.56 1.74 1.55 1.74 1.55 1.74 1.53 1.74 1.53 1.74 1.52 1.74 1.52 1.74 1.52 1.75 1.52 1.76 1.52 1.76 1.53 1.76 1.53"/><polygon class="cls-17" points="1.74 1.52 1.74 1.55 1.75 1.56 1.76 1.56 1.76 1.56 1.76 1.56 1.74 1.56 1.74 1.55 1.74 1.52 1.74 1.52 1.74 1.52"/><path class="cls-4" d="M1,.13h.45l.13,1.08h0s0,.06-.07.09a.36.36,0,0,1-.32,0s-.07-.06-.07-.09h0Z"/><path class="cls-18" d="M1,.22a.33.33,0,0,0,.32,0c.09,0,.09-.13,0-.18A.38.38,0,0,0,1,0C1,.09,1,.17,1,.22Z"/><path class="cls-19" d="M1.09.19a.24.24,0,0,0,.23,0c.06,0,.06-.1,0-.13a.24.24,0,0,0-.23,0C1,.1,1,.16,1.09.19Z"/><polygon class="cls-20" points="1.05 0.68 1.29 0.82 1.07 0.94 0.84 0.81 1.05 0.68"/><polygon class="cls-13" points="1.72 1.11 1.06 0.74 1.06 1.36 1.72 1.74 1.72 1.11"/><polygon class="cls-14" points="2.3 0.78 2.3 1.4 1.72 1.74 1.72 1.11 2.3 0.78"/><polygon class="cls-7" points="1.64 0.4 2.3 0.78 1.72 1.11 1.06 0.74 1.64 0.4"/><polygon class="cls-21" points="1.7 1.17 0.95 0.73 1 0.87 1.75 1.31 1.7 1.17"/><polygon class="cls-22" points="2.37 0.78 2.33 0.97 1.75 1.31 1.7 1.17 2.37 0.78"/><polygon class="cls-13" points="1.7 1.05 1.7 1.17 0.95 0.73 0.98 0.64 1.7 1.05"/><path class="cls-23" d="M0,.87V1l.07.15a.64.64,0,0,0,.1.13l0-.19Z"/><path class="cls-24" d="M3.27,3.1l.09,0h0l.57,0,.12-.06h0L4.18,3h0L3.43,3l-.16.11Z"/><path class="cls-25" d="M.16,1.12l0,.19.09.07L3.05,3c.11.07.13.1.22.12h0L3.43,3Z"/><polygon class="cls-13" points="2.95 2.01 1.77 1.33 1.77 1.71 2.95 2.38 2.95 2.01"/><polygon class="cls-14" points="3.42 1.73 3.42 2.11 3.33 2.31 2.95 2.38 2.95 2.01 3.33 1.97 3.42 1.73"/><polygon class="cls-7" points="2.24 1.05 3.42 1.73 3.33 1.97 2.95 2.01 1.77 1.33 2.24 1.05"/><polygon class="cls-15" points="3.3 1.93 3.36 1.75 2.24 1.11 1.86 1.33 2.96 1.96 3.3 1.93"/><polygon class="cls-13" points="2.24 1.16 1.9 1.35 1.86 1.33 2.24 1.11 3.36 1.75 3.35 1.8 2.24 1.16"/><polygon class="cls-26" points="3.33 1.97 3.33 2.31 3.42 2.11 3.42 1.73 3.33 1.97"/><polygon class="cls-13" points="3.98 2.66 3.61 2.53 3.61 2.65 3.98 2.77 3.98 2.66"/><polygon class="cls-14" points="4.21 2.52 4.21 2.64 3.98 2.77 3.98 2.66 4.21 2.52"/><polygon class="cls-7" points="3.95 2.38 4.21 2.52 3.98 2.66 3.72 2.51 3.95 2.38"/><path class="cls-27" d="M3.57,2.43h0a.2.2,0,0,1,.08-.08.53.53,0,0,1,.49,0,.24.24,0,0,1,.09.08h0v.06h0a.19.19,0,0,1-.1.14.53.53,0,0,1-.49,0,.17.17,0,0,1-.1-.14h0Z"/><path class="cls-28" d="M3.67,2.58a.53.53,0,0,0,.49,0,.15.15,0,0,0,0-.28.53.53,0,0,0-.49,0A.15.15,0,0,0,3.67,2.58Z"/><path class="cls-29" d="M3.91,2.61a.46.46,0,0,1-.21,0h0a.15.15,0,0,1-.09-.13c0-.05,0-.09.09-.13a.47.47,0,0,1,.43,0,.15.15,0,0,1,.09.13s0,.09-.09.13A.51.51,0,0,1,3.91,2.61Zm0-.34a.36.36,0,0,0-.21,0,.14.14,0,0,0-.08.11.14.14,0,0,0,.08.11h0a.43.43,0,0,0,.41,0,.14.14,0,0,0,.08-.11.14.14,0,0,0-.08-.12A.42.42,0,0,0,3.92,2.27Z"/><path class="cls-29" d="M4,2.39l-.12.07.07,0h0l-.17-.1h0l.08,0L4,2.38l-.07,0h0l.17.1h0Z"/><path class="cls-29" d="M2.33,1.5a.19.19,0,0,0,.1,0,.08.08,0,0,0,0-.07.1.1,0,0,0,0-.07l-.1,0-.1,0a.08.08,0,0,0,0,.07.06.06,0,0,0,0,.07A.15.15,0,0,0,2.33,1.5Z"/><path class="cls-20" d="M2.24,1.45a.17.17,0,0,0,.17,0s0-.07,0-.1a.17.17,0,0,0-.17,0A.06.06,0,0,0,2.24,1.45Z"/><polygon class="cls-22" points="3.42 1.82 3.42 1.87 3.33 2.11 2.95 2.14 2.95 2.1 3.33 2.06 3.42 1.82"/><polygon class="cls-22" points="3.42 1.95 3.42 1.99 3.33 2.23 2.95 2.27 2.95 2.22 3.33 2.18 3.42 1.95"/><polygon class="cls-16" points="1.83 1.66 1.83 1.68 1.83 1.68 1.83 1.69 1.83 1.69 1.83 1.69 1.82 1.69 1.81 1.68 1.81 1.68 1.81 1.66 1.81 1.66 1.81 1.65 1.82 1.65 1.82 1.65 1.82 1.65 1.83 1.65 1.83 1.66 1.83 1.66"/><polygon class="cls-17" points="1.81 1.65 1.81 1.68 1.82 1.68 1.83 1.69 1.83 1.69 1.83 1.69 1.82 1.69 1.81 1.68 1.81 1.65 1.81 1.65 1.81 1.65"/><polygon class="cls-16" points="1.89 1.69 1.89 1.71 1.89 1.71 1.89 1.72 1.89 1.72 1.88 1.73 1.87 1.72 1.87 1.71 1.87 1.71 1.87 1.7 1.87 1.7 1.87 1.68 1.87 1.68 1.87 1.68 1.87 1.68 1.89 1.68 1.89 1.69 1.89 1.69"/><polygon class="cls-17" points="1.87 1.68 1.87 1.71 1.87 1.72 1.89 1.72 1.89 1.72 1.88 1.73 1.87 1.72 1.87 1.71 1.87 1.68 1.87 1.68 1.87 1.68"/><polygon class="cls-16" points="1.94 1.72 1.94 1.74 1.94 1.74 1.94 1.75 1.94 1.75 1.94 1.76 1.93 1.75 1.92 1.74 1.92 1.74 1.92 1.73 1.92 1.73 1.92 1.71 1.93 1.71 1.93 1.71 1.93 1.71 1.94 1.72 1.94 1.72 1.94 1.72"/><polygon class="cls-17" points="1.92 1.71 1.92 1.74 1.93 1.75 1.94 1.75 1.94 1.75 1.94 1.76 1.93 1.75 1.92 1.74 1.92 1.71 1.92 1.71 1.92 1.71"/><polygon class="cls-16" points="2 1.75 2 1.77 2 1.77 2 1.78 2 1.78 1.99 1.79 1.98 1.78 1.98 1.77 1.98 1.77 1.98 1.76 1.98 1.76 1.98 1.74 1.98 1.74 1.98 1.74 1.98 1.74 1.99 1.75 2 1.75 2 1.75"/><polygon class="cls-17" points="1.98 1.74 1.98 1.77 1.98 1.78 2 1.79 2 1.79 1.99 1.79 1.98 1.78 1.98 1.77 1.98 1.74 1.98 1.74 1.98 1.74"/><polygon class="cls-16" points="2.05 1.78 2.05 1.8 2.05 1.8 2.05 1.81 2.05 1.82 2.05 1.82 2.04 1.81 2.03 1.8 2.03 1.8 2.03 1.79 2.03 1.79 2.03 1.77 2.04 1.77 2.04 1.77 2.04 1.77 2.05 1.78 2.05 1.78 2.05 1.78"/><polygon class="cls-17" points="2.03 1.77 2.03 1.8 2.04 1.81 2.05 1.82 2.05 1.82 2.05 1.82 2.04 1.81 2.03 1.8 2.03 1.77 2.03 1.77 2.03 1.77"/><polygon class="cls-16" points="2.11 1.82 2.11 1.83 2.11 1.84 2.11 1.84 2.11 1.85 2.1 1.85 2.09 1.84 2.08 1.84 2.08 1.84 2.08 1.82 2.08 1.82 2.08 1.8 2.09 1.8 2.09 1.8 2.09 1.8 2.1 1.81 2.11 1.81 2.11 1.82"/><polygon class="cls-17" points="2.09 1.8 2.09 1.83 2.09 1.84 2.1 1.85 2.11 1.85 2.1 1.85 2.09 1.84 2.08 1.84 2.08 1.8 2.09 1.8 2.09 1.8"/><polygon class="cls-16" points="2.16 1.85 2.16 1.86 2.16 1.87 2.16 1.88 2.16 1.88 2.16 1.88 2.14 1.88 2.14 1.87 2.14 1.87 2.14 1.85 2.14 1.85 2.14 1.84 2.15 1.83 2.15 1.83 2.15 1.83 2.16 1.84 2.16 1.84 2.16 1.85"/><polygon class="cls-17" points="2.14 1.83 2.14 1.87 2.15 1.87 2.16 1.88 2.16 1.88 2.16 1.88 2.14 1.88 2.14 1.87 2.14 1.84 2.14 1.83 2.14 1.83"/><polygon class="cls-16" points="2.22 1.88 2.22 1.9 2.22 1.9 2.22 1.91 2.22 1.91 2.21 1.91 2.2 1.91 2.19 1.9 2.19 1.9 2.19 1.88 2.19 1.88 2.19 1.87 2.2 1.86 2.2 1.87 2.2 1.87 2.21 1.87 2.21 1.88 2.22 1.88"/><polygon class="cls-17" points="2.2 1.87 2.2 1.9 2.2 1.91 2.21 1.91 2.22 1.91 2.21 1.91 2.2 1.91 2.19 1.9 2.19 1.87 2.2 1.86 2.2 1.87"/><polygon class="cls-16" points="2.27 1.91 2.27 1.93 2.27 1.93 2.27 1.94 2.27 1.94 2.27 1.95 2.25 1.94 2.25 1.93 2.25 1.93 2.25 1.92 2.25 1.92 2.25 1.9 2.25 1.9 2.25 1.9 2.26 1.9 2.27 1.9 2.27 1.91 2.27 1.91"/><polygon class="cls-17" points="2.25 1.9 2.25 1.93 2.25 1.94 2.27 1.94 2.27 1.94 2.27 1.95 2.25 1.94 2.25 1.93 2.25 1.9 2.25 1.9 2.25 1.9"/><polygon class="cls-16" points="2.33 1.94 2.33 1.96 2.33 1.96 2.33 1.97 2.33 1.97 2.32 1.98 2.31 1.97 2.3 1.96 2.3 1.96 2.3 1.95 2.3 1.95 2.3 1.93 2.31 1.93 2.31 1.93 2.31 1.93 2.32 1.94 2.32 1.94 2.33 1.94"/><polygon class="cls-17" points="2.31 1.93 2.31 1.96 2.31 1.97 2.32 1.98 2.33 1.98 2.32 1.98 2.31 1.97 2.3 1.96 2.3 1.93 2.31 1.93 2.31 1.93"/><polygon class="cls-16" points="2.38 1.97 2.38 1.99 2.38 1.99 2.38 2 2.38 2 2.38 2.01 2.36 2 2.36 1.99 2.36 1.99 2.36 1.98 2.36 1.98 2.36 1.96 2.36 1.96 2.36 1.96 2.37 1.96 2.38 1.97 2.38 1.97 2.38 1.97"/><polygon class="cls-17" points="2.36 1.96 2.36 1.99 2.37 2 2.38 2.01 2.38 2.01 2.38 2.01 2.36 2 2.36 1.99 2.36 1.96 2.36 1.96 2.36 1.96"/><polygon class="cls-16" points="2.44 2.01 2.44 2.02 2.44 2.02 2.44 2.03 2.44 2.04 2.43 2.04 2.42 2.03 2.41 2.03 2.41 2.02 2.41 2.01 2.41 2.01 2.41 1.99 2.42 1.99 2.42 1.99 2.42 1.99 2.43 2 2.43 2 2.44 2.01"/><polygon class="cls-17" points="2.42 1.99 2.42 2.02 2.42 2.03 2.43 2.04 2.43 2.04 2.43 2.04 2.42 2.03 2.41 2.02 2.41 1.99 2.42 1.99 2.42 1.99"/><polygon class="cls-16" points="2.49 2.04 2.49 2.05 2.49 2.06 2.49 2.06 2.49 2.07 2.48 2.07 2.47 2.06 2.47 2.06 2.47 2.06 2.47 2.04 2.47 2.04 2.47 2.03 2.47 2.02 2.47 2.02 2.47 2.02 2.48 2.03 2.49 2.03 2.49 2.04"/><polygon class="cls-17" points="2.47 2.02 2.47 2.06 2.47 2.06 2.49 2.07 2.49 2.07 2.48 2.07 2.47 2.06 2.47 2.06 2.47 2.03 2.47 2.02 2.47 2.02"/><polygon class="cls-16" points="2.54 2.07 2.54 2.08 2.54 2.09 2.54 2.1 2.54 2.1 2.54 2.1 2.53 2.1 2.52 2.09 2.52 2.09 2.52 2.07 2.52 2.07 2.52 2.06 2.53 2.06 2.53 2.06 2.53 2.06 2.54 2.06 2.54 2.06 2.54 2.07"/><polygon class="cls-17" points="2.52 2.06 2.52 2.09 2.53 2.09 2.54 2.1 2.54 2.1 2.54 2.1 2.53 2.1 2.52 2.09 2.52 2.06 2.52 2.05 2.52 2.06"/><polygon class="cls-16" points="2.6 2.1 2.6 2.12 2.6 2.12 2.6 2.13 2.6 2.13 2.59 2.13 2.58 2.13 2.58 2.12 2.58 2.12 2.58 2.1 2.58 2.1 2.58 2.09 2.58 2.09 2.58 2.09 2.58 2.09 2.6 2.09 2.6 2.1 2.6 2.1"/><polygon class="cls-17" points="2.58 2.09 2.58 2.12 2.58 2.13 2.6 2.13 2.6 2.13 2.59 2.13 2.58 2.13 2.58 2.12 2.58 2.09 2.58 2.09 2.58 2.09"/><polygon class="cls-16" points="2.65 2.13 2.65 2.15 2.65 2.15 2.65 2.16 2.65 2.16 2.65 2.17 2.63 2.16 2.63 2.15 2.63 2.15 2.63 2.14 2.63 2.14 2.63 2.12 2.64 2.12 2.64 2.12 2.64 2.12 2.65 2.13 2.65 2.13 2.65 2.13"/><polygon class="cls-17" points="2.63 2.12 2.63 2.15 2.64 2.16 2.65 2.16 2.65 2.17 2.65 2.17 2.63 2.16 2.63 2.15 2.63 2.12 2.63 2.12 2.63 2.12"/><polygon class="cls-16" points="2.71 2.16 2.71 2.18 2.71 2.18 2.71 2.19 2.71 2.19 2.7 2.2 2.69 2.19 2.69 2.18 2.69 2.18 2.69 2.17 2.69 2.17 2.69 2.15 2.69 2.15 2.69 2.15 2.69 2.15 2.7 2.16 2.71 2.16 2.71 2.16"/><polygon class="cls-17" points="2.69 2.15 2.69 2.18 2.69 2.19 2.71 2.2 2.71 2.2 2.7 2.2 2.69 2.19 2.69 2.18 2.69 2.15 2.69 2.15 2.69 2.15"/><polygon class="cls-16" points="2.76 2.19 2.76 2.21 2.76 2.21 2.76 2.22 2.76 2.23 2.76 2.23 2.75 2.22 2.74 2.21 2.74 2.21 2.74 2.2 2.74 2.2 2.74 2.18 2.75 2.18 2.75 2.18 2.75 2.18 2.76 2.19 2.76 2.19 2.76 2.19"/><polygon class="cls-17" points="2.74 2.18 2.74 2.21 2.75 2.22 2.76 2.23 2.76 2.23 2.76 2.23 2.75 2.22 2.74 2.21 2.74 2.18 2.74 2.18 2.74 2.18"/><polygon class="cls-16" points="2.82 2.23 2.82 2.24 2.82 2.25 2.82 2.25 2.82 2.26 2.81 2.26 2.8 2.25 2.79 2.25 2.79 2.25 2.79 2.23 2.79 2.23 2.79 2.21 2.8 2.21 2.8 2.21 2.8 2.21 2.81 2.22 2.82 2.22 2.82 2.23"/><polygon class="cls-17" points="2.8 2.21 2.8 2.24 2.8 2.25 2.81 2.26 2.82 2.26 2.81 2.26 2.8 2.25 2.79 2.25 2.79 2.21 2.8 2.21 2.8 2.21"/><polygon class="cls-16" points="2.87 2.26 2.87 2.27 2.87 2.28 2.87 2.29 2.87 2.29 2.87 2.29 2.85 2.28 2.85 2.28 2.85 2.28 2.85 2.26 2.85 2.26 2.85 2.25 2.85 2.24 2.86 2.24 2.86 2.24 2.87 2.25 2.87 2.25 2.87 2.26"/><polygon class="cls-17" points="2.85 2.25 2.85 2.28 2.86 2.28 2.87 2.29 2.87 2.29 2.87 2.29 2.85 2.28 2.85 2.28 2.85 2.25 2.85 2.24 2.85 2.25"/><polygon class="cls-16" points="2.93 2.29 2.93 2.31 2.93 2.31 2.93 2.32 2.93 2.32 2.92 2.32 2.91 2.32 2.9 2.31 2.9 2.31 2.9 2.29 2.9 2.29 2.9 2.28 2.91 2.27 2.91 2.28 2.91 2.28 2.92 2.28 2.92 2.29 2.93 2.29"/><polygon class="cls-17" points="2.91 2.28 2.91 2.31 2.91 2.31 2.92 2.32 2.93 2.32 2.92 2.32 2.91 2.32 2.9 2.31 2.9 2.28 2.91 2.27 2.91 2.28"/><polygon class="cls-16" points="1.83 1.56 1.83 1.58 1.83 1.58 1.83 1.59 1.83 1.59 1.83 1.6 1.82 1.59 1.81 1.58 1.81 1.58 1.81 1.57 1.81 1.57 1.81 1.55 1.82 1.55 1.82 1.55 1.82 1.55 1.83 1.56 1.83 1.56 1.83 1.56"/><polygon class="cls-17" points="1.81 1.55 1.81 1.58 1.82 1.59 1.83 1.59 1.83 1.59 1.83 1.6 1.82 1.59 1.81 1.58 1.81 1.55 1.81 1.55 1.81 1.55"/><polygon class="cls-16" points="1.89 1.59 1.89 1.61 1.89 1.61 1.89 1.62 1.89 1.63 1.88 1.63 1.87 1.62 1.87 1.61 1.87 1.61 1.87 1.6 1.87 1.6 1.87 1.58 1.87 1.58 1.87 1.58 1.87 1.58 1.89 1.59 1.89 1.59 1.89 1.59"/><polygon class="cls-17" points="1.87 1.58 1.87 1.61 1.87 1.62 1.89 1.63 1.89 1.63 1.88 1.63 1.87 1.62 1.87 1.61 1.87 1.58 1.87 1.58 1.87 1.58"/><polygon class="cls-16" points="1.94 1.63 1.94 1.64 1.94 1.65 1.94 1.65 1.94 1.66 1.94 1.66 1.93 1.65 1.92 1.65 1.92 1.65 1.92 1.63 1.92 1.63 1.92 1.61 1.93 1.61 1.93 1.61 1.93 1.61 1.94 1.62 1.94 1.62 1.94 1.63"/><polygon class="cls-17" points="1.92 1.61 1.92 1.64 1.93 1.65 1.94 1.66 1.94 1.66 1.94 1.66 1.93 1.65 1.92 1.65 1.92 1.61 1.92 1.61 1.92 1.61"/><polygon class="cls-16" points="2 1.66 2 1.67 2 1.68 2 1.68 2 1.69 1.99 1.69 1.98 1.68 1.98 1.68 1.98 1.68 1.98 1.66 1.98 1.66 1.98 1.65 1.98 1.64 1.98 1.64 1.98 1.64 1.99 1.65 2 1.65 2 1.66"/><polygon class="cls-17" points="1.98 1.64 1.98 1.68 1.98 1.68 2 1.69 2 1.69 1.99 1.69 1.98 1.68 1.98 1.68 1.98 1.65 1.98 1.64 1.98 1.64"/><polygon class="cls-16" points="2.05 1.69 2.05 1.71 2.05 1.71 2.05 1.72 2.05 1.72 2.05 1.72 2.04 1.72 2.03 1.71 2.03 1.71 2.03 1.69 2.03 1.69 2.03 1.68 2.04 1.67 2.04 1.68 2.04 1.68 2.05 1.68 2.05 1.68 2.05 1.69"/><polygon class="cls-17" points="2.03 1.68 2.03 1.71 2.04 1.71 2.05 1.72 2.05 1.72 2.05 1.72 2.04 1.72 2.03 1.71 2.03 1.68 2.03 1.67 2.03 1.68"/><polygon class="cls-16" points="2.11 1.72 2.11 1.74 2.11 1.74 2.11 1.75 2.11 1.75 2.1 1.75 2.09 1.75 2.08 1.74 2.08 1.74 2.08 1.72 2.08 1.72 2.08 1.71 2.09 1.71 2.09 1.71 2.09 1.71 2.1 1.71 2.11 1.72 2.11 1.72"/><polygon class="cls-17" points="2.09 1.71 2.09 1.74 2.09 1.75 2.1 1.75 2.11 1.75 2.1 1.75 2.09 1.75 2.08 1.74 2.08 1.71 2.09 1.71 2.09 1.71"/><polygon class="cls-16" points="2.16 1.75 2.16 1.77 2.16 1.77 2.16 1.78 2.16 1.78 2.16 1.78 2.14 1.78 2.14 1.77 2.14 1.77 2.14 1.75 2.14 1.75 2.14 1.74 2.15 1.74 2.15 1.74 2.15 1.74 2.16 1.75 2.16 1.75 2.16 1.75"/><polygon class="cls-17" points="2.14 1.74 2.14 1.77 2.15 1.78 2.16 1.78 2.16 1.78 2.16 1.78 2.14 1.78 2.14 1.77 2.14 1.74 2.14 1.74 2.14 1.74"/><polygon class="cls-16" points="2.22 1.78 2.22 1.8 2.22 1.8 2.22 1.81 2.22 1.81 2.21 1.82 2.2 1.81 2.19 1.8 2.19 1.8 2.19 1.79 2.19 1.79 2.19 1.77 2.2 1.77 2.2 1.77 2.2 1.77 2.21 1.78 2.21 1.78 2.22 1.78"/><polygon class="cls-17" points="2.2 1.77 2.2 1.8 2.2 1.81 2.21 1.81 2.22 1.82 2.21 1.82 2.2 1.81 2.19 1.8 2.19 1.77 2.2 1.77 2.2 1.77"/><polygon class="cls-16" points="2.27 1.81 2.27 1.83 2.27 1.83 2.27 1.84 2.27 1.84 2.27 1.85 2.25 1.84 2.25 1.83 2.25 1.83 2.25 1.82 2.25 1.82 2.25 1.8 2.25 1.8 2.25 1.8 2.26 1.8 2.27 1.81 2.27 1.81 2.27 1.81"/><polygon class="cls-17" points="2.25 1.8 2.25 1.83 2.25 1.84 2.27 1.85 2.27 1.85 2.27 1.85 2.25 1.84 2.25 1.83 2.25 1.8 2.25 1.8 2.25 1.8"/><polygon class="cls-16" points="2.33 1.85 2.33 1.86 2.33 1.86 2.33 1.87 2.33 1.88 2.32 1.88 2.31 1.87 2.3 1.87 2.3 1.86 2.3 1.85 2.3 1.85 2.3 1.83 2.31 1.83 2.31 1.83 2.31 1.83 2.32 1.84 2.32 1.84 2.33 1.85"/><polygon class="cls-17" points="2.31 1.83 2.31 1.86 2.31 1.87 2.32 1.88 2.33 1.88 2.32 1.88 2.31 1.87 2.3 1.86 2.3 1.83 2.31 1.83 2.31 1.83"/><polygon class="cls-16" points="2.38 1.88 2.38 1.89 2.38 1.9 2.38 1.91 2.38 1.91 2.38 1.91 2.36 1.9 2.36 1.9 2.36 1.9 2.36 1.88 2.36 1.88 2.36 1.87 2.36 1.86 2.36 1.86 2.37 1.86 2.38 1.87 2.38 1.87 2.38 1.88"/><polygon class="cls-17" points="2.36 1.86 2.36 1.9 2.37 1.9 2.38 1.91 2.38 1.91 2.38 1.91 2.36 1.9 2.36 1.9 2.36 1.87 2.36 1.86 2.36 1.86"/><polygon class="cls-16" points="2.44 1.91 2.44 1.93 2.44 1.93 2.44 1.94 2.44 1.94 2.43 1.94 2.42 1.94 2.41 1.93 2.41 1.93 2.41 1.91 2.41 1.91 2.41 1.9 2.42 1.9 2.42 1.9 2.42 1.9 2.43 1.9 2.43 1.91 2.44 1.91"/><polygon class="cls-17" points="2.42 1.9 2.42 1.93 2.42 1.93 2.43 1.94 2.43 1.94 2.43 1.94 2.42 1.94 2.41 1.93 2.41 1.9 2.42 1.89 2.42 1.9"/><polygon class="cls-16" points="2.49 1.94 2.49 1.96 2.49 1.96 2.49 1.97 2.49 1.97 2.48 1.97 2.47 1.97 2.47 1.96 2.47 1.96 2.47 1.94 2.47 1.94 2.47 1.93 2.47 1.93 2.47 1.93 2.47 1.93 2.48 1.93 2.49 1.94 2.49 1.94"/><polygon class="cls-17" points="2.47 1.93 2.47 1.96 2.47 1.97 2.49 1.97 2.49 1.97 2.48 1.97 2.47 1.97 2.47 1.96 2.47 1.93 2.47 1.93 2.47 1.93"/><polygon class="cls-16" points="2.54 1.97 2.54 1.99 2.54 1.99 2.54 2 2.54 2 2.54 2.01 2.53 2 2.52 1.99 2.52 1.99 2.52 1.98 2.52 1.98 2.52 1.96 2.53 1.96 2.53 1.96 2.53 1.96 2.54 1.97 2.54 1.97 2.54 1.97"/><polygon class="cls-17" points="2.52 1.96 2.52 1.99 2.53 2 2.54 2 2.54 2 2.54 2.01 2.53 2 2.52 1.99 2.52 1.96 2.52 1.96 2.52 1.96"/><polygon class="cls-16" points="2.6 2 2.6 2.02 2.6 2.02 2.6 2.03 2.6 2.04 2.59 2.04 2.58 2.03 2.58 2.02 2.58 2.02 2.58 2.01 2.58 2.01 2.58 1.99 2.58 1.99 2.58 1.99 2.58 1.99 2.6 2 2.6 2 2.6 2"/><polygon class="cls-17" points="2.58 1.99 2.58 2.02 2.58 2.03 2.6 2.04 2.6 2.04 2.59 2.04 2.58 2.03 2.58 2.02 2.58 1.99 2.58 1.99 2.58 1.99"/><polygon class="cls-16" points="2.65 2.04 2.65 2.05 2.65 2.05 2.65 2.06 2.65 2.07 2.65 2.07 2.63 2.06 2.63 2.06 2.63 2.05 2.63 2.04 2.63 2.04 2.63 2.02 2.64 2.02 2.64 2.02 2.64 2.02 2.65 2.03 2.65 2.03 2.65 2.04"/><polygon class="cls-17" points="2.63 2.02 2.63 2.05 2.64 2.06 2.65 2.07 2.65 2.07 2.65 2.07 2.63 2.06 2.63 2.05 2.63 2.02 2.63 2.02 2.63 2.02"/><polygon class="cls-16" points="2.71 2.07 2.71 2.08 2.71 2.09 2.71 2.09 2.71 2.1 2.7 2.1 2.69 2.09 2.69 2.09 2.69 2.09 2.69 2.07 2.69 2.07 2.69 2.06 2.69 2.05 2.69 2.05 2.69 2.05 2.7 2.06 2.71 2.06 2.71 2.07"/><polygon class="cls-17" points="2.69 2.05 2.69 2.08 2.69 2.09 2.71 2.1 2.71 2.1 2.7 2.1 2.69 2.09 2.69 2.09 2.69 2.06 2.69 2.05 2.69 2.05"/><polygon class="cls-16" points="2.76 2.1 2.76 2.12 2.76 2.12 2.76 2.13 2.76 2.13 2.76 2.13 2.75 2.12 2.74 2.12 2.74 2.12 2.74 2.1 2.74 2.1 2.74 2.09 2.75 2.08 2.75 2.08 2.75 2.08 2.76 2.09 2.76 2.09 2.76 2.1"/><polygon class="cls-17" points="2.74 2.08 2.74 2.12 2.75 2.12 2.76 2.13 2.76 2.13 2.76 2.13 2.75 2.12 2.74 2.12 2.74 2.09 2.74 2.08 2.74 2.08"/><polygon class="cls-16" points="2.82 2.13 2.82 2.15 2.82 2.15 2.82 2.16 2.82 2.16 2.81 2.16 2.8 2.16 2.79 2.15 2.79 2.15 2.79 2.13 2.79 2.13 2.79 2.12 2.8 2.12 2.8 2.12 2.8 2.12 2.81 2.12 2.82 2.13 2.82 2.13"/><polygon class="cls-17" points="2.8 2.12 2.8 2.15 2.8 2.15 2.81 2.16 2.82 2.16 2.81 2.16 2.8 2.16 2.79 2.15 2.79 2.12 2.8 2.12 2.8 2.12"/><polygon class="cls-16" points="2.87 2.16 2.87 2.18 2.87 2.18 2.87 2.19 2.87 2.19 2.87 2.19 2.85 2.19 2.85 2.18 2.85 2.18 2.85 2.17 2.85 2.17 2.85 2.15 2.85 2.15 2.86 2.15 2.86 2.15 2.87 2.15 2.87 2.16 2.87 2.16"/><polygon class="cls-17" points="2.85 2.15 2.85 2.18 2.86 2.19 2.87 2.19 2.87 2.19 2.87 2.19 2.85 2.19 2.85 2.18 2.85 2.15 2.85 2.15 2.85 2.15"/><polygon class="cls-16" points="2.93 2.19 2.93 2.21 2.93 2.21 2.93 2.22 2.93 2.22 2.92 2.23 2.91 2.22 2.9 2.21 2.9 2.21 2.9 2.2 2.9 2.2 2.9 2.18 2.91 2.18 2.91 2.18 2.91 2.18 2.92 2.19 2.92 2.19 2.93 2.19"/><polygon class="cls-17" points="2.91 2.18 2.91 2.21 2.91 2.22 2.92 2.23 2.92 2.23 2.92 2.23 2.91 2.22 2.9 2.21 2.9 2.18 2.91 2.18 2.91 2.18"/><polygon class="cls-16" points="1.1 1.33 1.1 1.35 1.1 1.35 1.1 1.36 1.1 1.36 1.09 1.36 1.08 1.36 1.08 1.35 1.08 1.35 1.08 1.33 1.08 1.33 1.08 1.32 1.08 1.32 1.08 1.32 1.08 1.32 1.09 1.32 1.1 1.33 1.1 1.33"/><polygon class="cls-17" points="1.08 1.32 1.08 1.35 1.08 1.35 1.1 1.36 1.1 1.36 1.09 1.36 1.08 1.36 1.08 1.35 1.08 1.32 1.08 1.31 1.08 1.32"/><polygon class="cls-16" points="1.17 1.37 1.17 1.39 1.17 1.39 1.17 1.4 1.17 1.4 1.16 1.4 1.15 1.4 1.14 1.39 1.14 1.39 1.14 1.37 1.14 1.37 1.14 1.36 1.15 1.35 1.15 1.35 1.15 1.35 1.16 1.36 1.16 1.36 1.17 1.37"/><polygon class="cls-17" points="1.15 1.35 1.15 1.39 1.15 1.39 1.16 1.4 1.17 1.4 1.16 1.4 1.15 1.4 1.14 1.39 1.14 1.36 1.15 1.35 1.15 1.35"/><polygon class="cls-16" points="1.23 1.41 1.23 1.42 1.23 1.43 1.23 1.43 1.23 1.44 1.23 1.44 1.21 1.43 1.21 1.43 1.21 1.43 1.21 1.41 1.21 1.41 1.21 1.4 1.22 1.39 1.22 1.39 1.22 1.39 1.23 1.4 1.23 1.4 1.23 1.41"/><polygon class="cls-17" points="1.21 1.39 1.21 1.43 1.22 1.43 1.23 1.44 1.23 1.44 1.23 1.44 1.21 1.43 1.21 1.43 1.21 1.4 1.21 1.39 1.21 1.39"/><polygon class="cls-16" points="1.3 1.45 1.3 1.46 1.3 1.46 1.3 1.47 1.3 1.48 1.29 1.48 1.28 1.47 1.28 1.47 1.28 1.46 1.28 1.45 1.28 1.45 1.28 1.43 1.28 1.43 1.28 1.43 1.28 1.43 1.29 1.44 1.3 1.44 1.3 1.45"/><polygon class="cls-17" points="1.28 1.43 1.28 1.46 1.28 1.47 1.3 1.48 1.3 1.48 1.29 1.48 1.28 1.47 1.28 1.46 1.28 1.43 1.28 1.43 1.28 1.43"/><polygon class="cls-16" points="1.36 1.48 1.36 1.5 1.36 1.5 1.36 1.51 1.36 1.51 1.36 1.52 1.35 1.51 1.34 1.5 1.34 1.5 1.34 1.49 1.34 1.49 1.34 1.47 1.35 1.47 1.35 1.47 1.35 1.47 1.36 1.48 1.36 1.48 1.36 1.48"/><polygon class="cls-17" points="1.34 1.47 1.34 1.5 1.35 1.51 1.36 1.52 1.36 1.52 1.36 1.52 1.35 1.51 1.34 1.5 1.34 1.47 1.35 1.47 1.34 1.47"/><polygon class="cls-16" points="1.43 1.52 1.43 1.54 1.43 1.54 1.43 1.55 1.43 1.55 1.43 1.55 1.41 1.55 1.41 1.54 1.41 1.54 1.41 1.53 1.41 1.53 1.41 1.51 1.41 1.51 1.42 1.51 1.42 1.51 1.43 1.51 1.43 1.52 1.43 1.52"/><polygon class="cls-17" points="1.41 1.51 1.41 1.54 1.42 1.55 1.43 1.55 1.43 1.55 1.43 1.55 1.41 1.55 1.41 1.54 1.41 1.51 1.41 1.51 1.41 1.51"/><polygon class="cls-16" points="1.5 1.56 1.5 1.58 1.5 1.58 1.5 1.59 1.5 1.59 1.49 1.59 1.48 1.59 1.48 1.58 1.48 1.58 1.48 1.56 1.48 1.56 1.48 1.55 1.48 1.55 1.48 1.55 1.48 1.55 1.49 1.55 1.5 1.56 1.5 1.56"/><polygon class="cls-17" points="1.48 1.55 1.48 1.58 1.48 1.58 1.5 1.59 1.5 1.59 1.49 1.59 1.48 1.59 1.48 1.58 1.48 1.55 1.48 1.54 1.48 1.55"/><polygon class="cls-16" points="1.56 1.6 1.56 1.61 1.56 1.62 1.56 1.63 1.56 1.63 1.56 1.63 1.55 1.63 1.54 1.62 1.54 1.62 1.54 1.6 1.54 1.6 1.54 1.59 1.55 1.58 1.55 1.58 1.55 1.58 1.56 1.59 1.56 1.59 1.56 1.6"/><polygon class="cls-17" points="1.54 1.59 1.54 1.62 1.55 1.62 1.56 1.63 1.56 1.63 1.56 1.63 1.55 1.63 1.54 1.62 1.54 1.59 1.54 1.58 1.54 1.59"/><polygon class="cls-16" points="1.63 1.64 1.63 1.65 1.63 1.66 1.63 1.66 1.63 1.67 1.63 1.67 1.61 1.66 1.61 1.66 1.61 1.66 1.61 1.64 1.61 1.64 1.61 1.63 1.61 1.62 1.61 1.62 1.61 1.62 1.63 1.63 1.63 1.63 1.63 1.64"/><polygon class="cls-17" points="1.61 1.62 1.61 1.66 1.61 1.66 1.63 1.67 1.63 1.67 1.63 1.67 1.61 1.66 1.61 1.66 1.61 1.63 1.61 1.62 1.61 1.62"/><polygon class="cls-16" points="1.7 1.68 1.7 1.69 1.7 1.7 1.7 1.7 1.7 1.71 1.69 1.71 1.68 1.7 1.68 1.7 1.68 1.7 1.68 1.68 1.68 1.68 1.68 1.66 1.68 1.66 1.68 1.66 1.68 1.66 1.69 1.67 1.7 1.67 1.7 1.68"/><polygon class="cls-17" points="1.68 1.66 1.68 1.69 1.68 1.7 1.69 1.71 1.7 1.71 1.69 1.71 1.68 1.7 1.68 1.7 1.68 1.66 1.68 1.66 1.68 1.66"/><polygon class="cls-16" points="1.1 1.23 1.1 1.25 1.1 1.25 1.1 1.26 1.1 1.26 1.09 1.27 1.08 1.26 1.08 1.25 1.08 1.25 1.08 1.24 1.08 1.24 1.08 1.22 1.08 1.22 1.08 1.22 1.08 1.22 1.09 1.23 1.1 1.23 1.1 1.23"/><polygon class="cls-17" points="1.08 1.22 1.08 1.25 1.08 1.26 1.1 1.27 1.1 1.27 1.09 1.27 1.08 1.26 1.08 1.25 1.08 1.22 1.08 1.22 1.08 1.22"/><polygon class="cls-16" points="1.17 1.27 1.17 1.29 1.17 1.29 1.17 1.3 1.17 1.3 1.16 1.31 1.15 1.3 1.14 1.29 1.14 1.29 1.14 1.28 1.14 1.28 1.14 1.26 1.15 1.26 1.15 1.26 1.15 1.26 1.16 1.27 1.16 1.27 1.17 1.27"/><polygon class="cls-17" points="1.15 1.26 1.15 1.29 1.15 1.3 1.16 1.3 1.17 1.3 1.16 1.31 1.15 1.3 1.14 1.29 1.14 1.26 1.15 1.26 1.15 1.26"/><polygon class="cls-16" points="1.23 1.31 1.23 1.33 1.23 1.33 1.23 1.34 1.23 1.34 1.23 1.34 1.21 1.34 1.21 1.33 1.21 1.33 1.21 1.31 1.21 1.31 1.21 1.3 1.22 1.3 1.22 1.3 1.22 1.3 1.23 1.3 1.23 1.31 1.23 1.31"/><polygon class="cls-17" points="1.21 1.3 1.21 1.33 1.22 1.34 1.23 1.34 1.23 1.34 1.23 1.34 1.21 1.34 1.21 1.33 1.21 1.3 1.21 1.3 1.21 1.3"/><polygon class="cls-16" points="1.3 1.35 1.3 1.37 1.3 1.37 1.3 1.38 1.3 1.38 1.29 1.38 1.28 1.38 1.28 1.37 1.28 1.37 1.28 1.35 1.28 1.35 1.28 1.34 1.28 1.33 1.28 1.33 1.28 1.34 1.29 1.34 1.3 1.34 1.3 1.35"/><polygon class="cls-17" points="1.28 1.34 1.28 1.37 1.28 1.37 1.3 1.38 1.3 1.38 1.29 1.38 1.28 1.38 1.28 1.37 1.28 1.34 1.28 1.33 1.28 1.34"/><polygon class="cls-16" points="1.36 1.39 1.36 1.4 1.36 1.41 1.36 1.42 1.36 1.42 1.36 1.42 1.35 1.41 1.34 1.41 1.34 1.41 1.34 1.39 1.34 1.39 1.34 1.38 1.35 1.37 1.35 1.37 1.35 1.37 1.36 1.38 1.36 1.38 1.36 1.39"/><polygon class="cls-17" points="1.34 1.38 1.34 1.41 1.35 1.41 1.36 1.42 1.36 1.42 1.36 1.42 1.35 1.41 1.34 1.41 1.34 1.38 1.35 1.37 1.34 1.38"/><polygon class="cls-16" points="1.43 1.43 1.43 1.44 1.43 1.45 1.43 1.45 1.43 1.46 1.43 1.46 1.41 1.45 1.41 1.45 1.41 1.45 1.41 1.43 1.41 1.43 1.41 1.41 1.41 1.41 1.42 1.41 1.42 1.41 1.43 1.42 1.43 1.42 1.43 1.43"/><polygon class="cls-17" points="1.41 1.41 1.41 1.44 1.42 1.45 1.43 1.46 1.43 1.46 1.43 1.46 1.41 1.45 1.41 1.45 1.41 1.41 1.41 1.41 1.41 1.41"/><polygon class="cls-16" points="1.5 1.46 1.5 1.48 1.5 1.48 1.5 1.49 1.5 1.5 1.49 1.5 1.48 1.49 1.48 1.48 1.48 1.48 1.48 1.47 1.48 1.47 1.48 1.45 1.48 1.45 1.48 1.45 1.48 1.45 1.49 1.46 1.5 1.46 1.5 1.46"/><polygon class="cls-17" points="1.48 1.45 1.48 1.48 1.48 1.49 1.5 1.5 1.5 1.5 1.49 1.5 1.48 1.49 1.48 1.48 1.48 1.45 1.48 1.45 1.48 1.45"/><polygon class="cls-16" points="1.56 1.5 1.56 1.52 1.56 1.52 1.56 1.53 1.56 1.53 1.56 1.54 1.55 1.53 1.54 1.52 1.54 1.52 1.54 1.51 1.54 1.51 1.54 1.49 1.55 1.49 1.55 1.49 1.55 1.49 1.56 1.5 1.56 1.5 1.56 1.5"/><polygon class="cls-17" points="1.54 1.49 1.54 1.52 1.55 1.53 1.56 1.53 1.56 1.54 1.56 1.54 1.55 1.53 1.54 1.52 1.54 1.49 1.54 1.49 1.54 1.49"/><polygon class="cls-16" points="1.63 1.54 1.63 1.56 1.63 1.56 1.63 1.57 1.63 1.57 1.63 1.57 1.61 1.57 1.61 1.56 1.61 1.56 1.61 1.54 1.61 1.54 1.61 1.53 1.61 1.53 1.61 1.53 1.61 1.53 1.63 1.53 1.63 1.54 1.63 1.54"/><polygon class="cls-17" points="1.61 1.53 1.61 1.56 1.61 1.57 1.63 1.57 1.63 1.57 1.63 1.57 1.61 1.57 1.61 1.56 1.61 1.53 1.61 1.53 1.61 1.53"/><polygon class="cls-16" points="1.7 1.58 1.7 1.6 1.7 1.6 1.7 1.61 1.7 1.61 1.69 1.61 1.68 1.61 1.68 1.6 1.68 1.6 1.68 1.58 1.68 1.58 1.68 1.57 1.68 1.56 1.68 1.57 1.68 1.57 1.69 1.57 1.7 1.57 1.7 1.58"/><polygon class="cls-17" points="1.68 1.57 1.68 1.6 1.68 1.6 1.69 1.61 1.7 1.61 1.69 1.61 1.68 1.61 1.68 1.6 1.68 1.57 1.68 1.56 1.68 1.57"/><polygon class="cls-16" points="1.1 1.14 1.1 1.16 1.1 1.16 1.1 1.17 1.1 1.17 1.09 1.17 1.08 1.17 1.08 1.16 1.08 1.16 1.08 1.14 1.08 1.14 1.08 1.13 1.08 1.12 1.08 1.13 1.08 1.13 1.09 1.13 1.1 1.13 1.1 1.14"/><polygon class="cls-17" points="1.08 1.13 1.08 1.16 1.08 1.16 1.1 1.17 1.1 1.17 1.09 1.17 1.08 1.17 1.08 1.16 1.08 1.13 1.08 1.12 1.08 1.13"/><polygon class="cls-16" points="1.17 1.18 1.17 1.19 1.17 1.2 1.17 1.2 1.17 1.21 1.16 1.21 1.15 1.2 1.14 1.2 1.14 1.2 1.14 1.18 1.14 1.18 1.14 1.17 1.15 1.16 1.15 1.16 1.15 1.16 1.16 1.17 1.16 1.17 1.17 1.18"/><polygon class="cls-17" points="1.15 1.16 1.15 1.2 1.15 1.2 1.16 1.21 1.17 1.21 1.16 1.21 1.15 1.2 1.14 1.2 1.14 1.17 1.15 1.16 1.15 1.16"/><polygon class="cls-16" points="1.23 1.22 1.23 1.23 1.23 1.24 1.23 1.24 1.23 1.25 1.23 1.25 1.21 1.24 1.21 1.24 1.21 1.24 1.21 1.22 1.21 1.22 1.21 1.2 1.22 1.2 1.22 1.2 1.22 1.2 1.23 1.21 1.23 1.21 1.23 1.22"/><polygon class="cls-17" points="1.21 1.2 1.21 1.23 1.22 1.24 1.23 1.25 1.23 1.25 1.23 1.25 1.21 1.24 1.21 1.24 1.21 1.2 1.21 1.2 1.21 1.2"/><polygon class="cls-16" points="1.3 1.25 1.3 1.27 1.3 1.27 1.3 1.28 1.3 1.28 1.29 1.29 1.28 1.28 1.28 1.27 1.28 1.27 1.28 1.26 1.28 1.26 1.28 1.24 1.28 1.24 1.28 1.24 1.28 1.24 1.29 1.25 1.3 1.25 1.3 1.25"/><polygon class="cls-17" points="1.28 1.24 1.28 1.27 1.28 1.28 1.3 1.29 1.3 1.29 1.29 1.29 1.28 1.28 1.28 1.27 1.28 1.24 1.28 1.24 1.28 1.24"/><polygon class="cls-16" points="1.36 1.29 1.36 1.31 1.36 1.31 1.36 1.32 1.36 1.32 1.36 1.33 1.35 1.32 1.34 1.31 1.34 1.31 1.34 1.3 1.34 1.3 1.34 1.28 1.35 1.28 1.35 1.28 1.35 1.28 1.36 1.28 1.36 1.29 1.36 1.29"/><polygon class="cls-17" points="1.34 1.28 1.34 1.31 1.35 1.32 1.36 1.32 1.36 1.32 1.36 1.33 1.35 1.32 1.34 1.31 1.34 1.28 1.35 1.28 1.34 1.28"/><polygon class="cls-16" points="1.43 1.33 1.43 1.35 1.43 1.35 1.43 1.36 1.43 1.36 1.43 1.36 1.41 1.36 1.41 1.35 1.41 1.35 1.41 1.33 1.41 1.33 1.41 1.32 1.41 1.32 1.42 1.32 1.42 1.32 1.43 1.32 1.43 1.33 1.43 1.33"/><polygon class="cls-17" points="1.41 1.32 1.41 1.35 1.42 1.35 1.43 1.36 1.43 1.36 1.43 1.36 1.41 1.36 1.41 1.35 1.41 1.32 1.41 1.32 1.41 1.32"/><polygon class="cls-16" points="1.5 1.37 1.5 1.39 1.5 1.39 1.5 1.4 1.5 1.4 1.49 1.4 1.48 1.4 1.48 1.39 1.48 1.39 1.48 1.37 1.48 1.37 1.48 1.36 1.48 1.35 1.48 1.35 1.48 1.35 1.49 1.36 1.5 1.36 1.5 1.37"/><polygon class="cls-17" points="1.48 1.36 1.48 1.39 1.48 1.39 1.5 1.4 1.5 1.4 1.49 1.4 1.48 1.4 1.48 1.39 1.48 1.36 1.48 1.35 1.48 1.36"/><polygon class="cls-16" points="1.56 1.41 1.56 1.42 1.56 1.43 1.56 1.43 1.56 1.44 1.56 1.44 1.55 1.43 1.54 1.43 1.54 1.43 1.54 1.41 1.54 1.41 1.54 1.4 1.55 1.39 1.55 1.39 1.55 1.39 1.56 1.4 1.56 1.4 1.56 1.41"/><polygon class="cls-17" points="1.54 1.39 1.54 1.43 1.55 1.43 1.56 1.44 1.56 1.44 1.56 1.44 1.55 1.43 1.54 1.43 1.54 1.4 1.54 1.39 1.54 1.39"/><polygon class="cls-16" points="1.63 1.45 1.63 1.46 1.63 1.47 1.63 1.47 1.63 1.48 1.63 1.48 1.61 1.47 1.61 1.47 1.61 1.47 1.61 1.45 1.61 1.45 1.61 1.43 1.61 1.43 1.61 1.43 1.61 1.43 1.63 1.44 1.63 1.44 1.63 1.45"/><polygon class="cls-17" points="1.61 1.43 1.61 1.46 1.61 1.47 1.63 1.48 1.63 1.48 1.63 1.48 1.61 1.47 1.61 1.47 1.61 1.43 1.61 1.43 1.61 1.43"/><polygon class="cls-16" points="1.7 1.48 1.7 1.5 1.7 1.5 1.7 1.51 1.7 1.51 1.69 1.52 1.68 1.51 1.68 1.5 1.68 1.5 1.68 1.49 1.68 1.49 1.68 1.47 1.68 1.47 1.68 1.47 1.68 1.47 1.69 1.48 1.7 1.48 1.7 1.48"/><polygon class="cls-17" points="1.68 1.47 1.68 1.5 1.68 1.51 1.69 1.52 1.7 1.52 1.69 1.52 1.68 1.51 1.68 1.5 1.68 1.47 1.68 1.47 1.68 1.47"/><polygon class="cls-16" points="1.1 1.04 1.1 1.06 1.1 1.06 1.1 1.07 1.1 1.07 1.09 1.08 1.08 1.07 1.08 1.06 1.08 1.06 1.08 1.05 1.08 1.05 1.08 1.03 1.08 1.03 1.08 1.03 1.08 1.03 1.09 1.04 1.1 1.04 1.1 1.04"/><polygon class="cls-17" points="1.08 1.03 1.08 1.06 1.08 1.07 1.1 1.07 1.1 1.08 1.09 1.08 1.08 1.07 1.08 1.06 1.08 1.03 1.08 1.03 1.08 1.03"/><polygon class="cls-16" points="1.17 1.08 1.17 1.1 1.17 1.1 1.17 1.11 1.17 1.11 1.16 1.11 1.15 1.11 1.14 1.1 1.14 1.1 1.14 1.08 1.14 1.08 1.14 1.07 1.15 1.07 1.15 1.07 1.15 1.07 1.16 1.07 1.16 1.08 1.17 1.08"/><polygon class="cls-17" points="1.15 1.07 1.15 1.1 1.15 1.11 1.16 1.11 1.17 1.11 1.16 1.11 1.15 1.11 1.14 1.1 1.14 1.07 1.15 1.07 1.15 1.07"/><polygon class="cls-16" points="1.23 1.12 1.23 1.14 1.23 1.14 1.23 1.15 1.23 1.15 1.23 1.15 1.21 1.15 1.21 1.14 1.21 1.14 1.21 1.12 1.21 1.12 1.21 1.11 1.22 1.1 1.22 1.11 1.22 1.11 1.23 1.11 1.23 1.11 1.23 1.12"/><polygon class="cls-17" points="1.21 1.11 1.21 1.14 1.22 1.15 1.23 1.15 1.23 1.15 1.23 1.15 1.21 1.15 1.21 1.14 1.21 1.11 1.21 1.1 1.21 1.11"/><polygon class="cls-16" points="1.3 1.16 1.3 1.17 1.3 1.18 1.3 1.19 1.3 1.19 1.29 1.19 1.28 1.18 1.28 1.18 1.28 1.18 1.28 1.16 1.28 1.16 1.28 1.15 1.28 1.14 1.28 1.14 1.28 1.15 1.29 1.15 1.3 1.15 1.3 1.16"/><polygon class="cls-17" points="1.28 1.15 1.28 1.18 1.28 1.18 1.3 1.19 1.3 1.19 1.29 1.19 1.28 1.18 1.28 1.18 1.28 1.15 1.28 1.14 1.28 1.15"/><polygon class="cls-16" points="1.36 1.2 1.36 1.21 1.36 1.22 1.36 1.22 1.36 1.23 1.36 1.23 1.35 1.22 1.34 1.22 1.34 1.22 1.34 1.2 1.34 1.2 1.34 1.19 1.35 1.18 1.35 1.18 1.35 1.18 1.36 1.19 1.36 1.19 1.36 1.2"/><polygon class="cls-17" points="1.34 1.18 1.34 1.21 1.35 1.22 1.36 1.23 1.36 1.23 1.36 1.23 1.35 1.22 1.34 1.22 1.34 1.19 1.35 1.18 1.34 1.18"/><polygon class="cls-16" points="1.43 1.24 1.43 1.25 1.43 1.25 1.43 1.26 1.43 1.27 1.43 1.27 1.41 1.26 1.41 1.25 1.41 1.25 1.41 1.24 1.41 1.24 1.41 1.22 1.41 1.22 1.42 1.22 1.42 1.22 1.43 1.23 1.43 1.23 1.43 1.24"/><polygon class="cls-17" points="1.41 1.22 1.41 1.25 1.42 1.26 1.43 1.27 1.43 1.27 1.43 1.27 1.41 1.26 1.41 1.25 1.41 1.22 1.41 1.22 1.41 1.22"/><polygon class="cls-16" points="1.5 1.27 1.5 1.29 1.5 1.29 1.5 1.3 1.5 1.3 1.49 1.31 1.48 1.3 1.48 1.29 1.48 1.29 1.48 1.28 1.48 1.28 1.48 1.26 1.48 1.26 1.48 1.26 1.48 1.26 1.49 1.27 1.5 1.27 1.5 1.27"/><polygon class="cls-17" points="1.48 1.26 1.48 1.29 1.48 1.3 1.5 1.3 1.5 1.31 1.49 1.31 1.48 1.3 1.48 1.29 1.48 1.26 1.48 1.26 1.48 1.26"/><polygon class="cls-16" points="1.56 1.31 1.56 1.33 1.56 1.33 1.56 1.34 1.56 1.34 1.56 1.34 1.55 1.34 1.54 1.33 1.54 1.33 1.54 1.31 1.54 1.31 1.54 1.3 1.55 1.3 1.55 1.3 1.55 1.3 1.56 1.3 1.56 1.31 1.56 1.31"/><polygon class="cls-17" points="1.54 1.3 1.54 1.33 1.55 1.34 1.56 1.34 1.56 1.34 1.56 1.34 1.55 1.34 1.54 1.33 1.54 1.3 1.54 1.3 1.54 1.3"/><polygon class="cls-16" points="1.63 1.35 1.63 1.37 1.63 1.37 1.63 1.38 1.63 1.38 1.63 1.38 1.61 1.38 1.61 1.37 1.61 1.37 1.61 1.35 1.61 1.35 1.61 1.34 1.61 1.33 1.61 1.34 1.61 1.34 1.63 1.34 1.63 1.35 1.63 1.35"/><polygon class="cls-17" points="1.61 1.34 1.61 1.37 1.61 1.38 1.63 1.38 1.63 1.38 1.63 1.38 1.61 1.38 1.61 1.37 1.61 1.34 1.61 1.33 1.61 1.34"/><polygon class="cls-16" points="1.7 1.39 1.7 1.41 1.7 1.41 1.7 1.42 1.7 1.42 1.69 1.42 1.68 1.41 1.68 1.41 1.68 1.41 1.68 1.39 1.68 1.39 1.68 1.38 1.68 1.37 1.68 1.37 1.68 1.38 1.69 1.38 1.7 1.38 1.7 1.39"/><polygon class="cls-17" points="1.68 1.38 1.68 1.41 1.68 1.41 1.69 1.42 1.7 1.42 1.69 1.42 1.68 1.41 1.68 1.41 1.68 1.38 1.68 1.37 1.68 1.38"/><polygon class="cls-16" points="1.83 1.47 1.83 1.48 1.83 1.49 1.83 1.49 1.83 1.5 1.83 1.5 1.82 1.49 1.81 1.49 1.81 1.49 1.81 1.47 1.81 1.47 1.81 1.45 1.82 1.45 1.82 1.45 1.82 1.45 1.83 1.46 1.83 1.46 1.83 1.47"/><polygon class="cls-17" points="1.81 1.45 1.81 1.48 1.82 1.49 1.83 1.5 1.83 1.5 1.83 1.5 1.82 1.49 1.81 1.49 1.81 1.45 1.81 1.45 1.81 1.45"/><polygon class="cls-16" points="1.89 1.5 1.89 1.51 1.89 1.52 1.89 1.52 1.89 1.53 1.88 1.53 1.87 1.52 1.87 1.52 1.87 1.52 1.87 1.5 1.87 1.5 1.87 1.49 1.87 1.48 1.87 1.48 1.87 1.48 1.89 1.49 1.89 1.49 1.89 1.5"/><polygon class="cls-17" points="1.87 1.48 1.87 1.51 1.87 1.52 1.89 1.53 1.89 1.53 1.88 1.53 1.87 1.52 1.87 1.52 1.87 1.49 1.87 1.48 1.87 1.48"/><polygon class="cls-16" points="1.94 1.53 1.94 1.54 1.94 1.55 1.94 1.56 1.94 1.56 1.94 1.56 1.93 1.55 1.92 1.55 1.92 1.55 1.92 1.53 1.92 1.53 1.92 1.52 1.93 1.51 1.93 1.51 1.93 1.51 1.94 1.52 1.94 1.52 1.94 1.53"/><polygon class="cls-17" points="1.92 1.52 1.92 1.55 1.93 1.55 1.94 1.56 1.94 1.56 1.94 1.56 1.93 1.55 1.92 1.55 1.92 1.52 1.92 1.51 1.92 1.52"/><polygon class="cls-16" points="2 1.56 2 1.58 2 1.58 2 1.59 2 1.59 1.99 1.59 1.98 1.59 1.98 1.58 1.98 1.58 1.98 1.56 1.98 1.56 1.98 1.55 1.98 1.55 1.98 1.55 1.98 1.55 1.99 1.55 2 1.56 2 1.56"/><polygon class="cls-17" points="1.98 1.55 1.98 1.58 1.98 1.58 2 1.59 2 1.59 1.99 1.59 1.98 1.59 1.98 1.58 1.98 1.55 1.98 1.54 1.98 1.55"/><polygon class="cls-16" points="2.05 1.59 2.05 1.61 2.05 1.61 2.05 1.62 2.05 1.62 2.05 1.63 2.04 1.62 2.03 1.61 2.03 1.61 2.03 1.6 2.03 1.6 2.03 1.58 2.04 1.58 2.04 1.58 2.04 1.58 2.05 1.58 2.05 1.59 2.05 1.59"/><polygon class="cls-17" points="2.03 1.58 2.03 1.61 2.04 1.62 2.05 1.62 2.05 1.62 2.05 1.63 2.04 1.62 2.03 1.61 2.03 1.58 2.03 1.58 2.03 1.58"/><polygon class="cls-16" points="2.11 1.62 2.11 1.64 2.11 1.64 2.11 1.65 2.11 1.65 2.1 1.66 2.09 1.65 2.08 1.64 2.08 1.64 2.08 1.63 2.08 1.63 2.08 1.61 2.09 1.61 2.09 1.61 2.09 1.61 2.1 1.62 2.11 1.62 2.11 1.62"/><polygon class="cls-17" points="2.09 1.61 2.09 1.64 2.09 1.65 2.1 1.66 2.11 1.66 2.1 1.66 2.09 1.65 2.08 1.64 2.08 1.61 2.09 1.61 2.09 1.61"/><polygon class="cls-16" points="2.16 1.66 2.16 1.67 2.16 1.67 2.16 1.68 2.16 1.69 2.16 1.69 2.14 1.68 2.14 1.68 2.14 1.67 2.14 1.66 2.14 1.66 2.14 1.64 2.15 1.64 2.15 1.64 2.15 1.64 2.16 1.65 2.16 1.65 2.16 1.66"/><polygon class="cls-17" points="2.14 1.64 2.14 1.67 2.15 1.68 2.16 1.69 2.16 1.69 2.16 1.69 2.14 1.68 2.14 1.67 2.14 1.64 2.14 1.64 2.14 1.64"/><polygon class="cls-16" points="2.22 1.69 2.22 1.7 2.22 1.71 2.22 1.71 2.22 1.72 2.21 1.72 2.2 1.71 2.19 1.71 2.19 1.71 2.19 1.69 2.19 1.69 2.19 1.68 2.2 1.67 2.2 1.67 2.2 1.67 2.21 1.68 2.21 1.68 2.22 1.69"/><polygon class="cls-17" points="2.2 1.67 2.2 1.7 2.2 1.71 2.21 1.72 2.22 1.72 2.21 1.72 2.2 1.71 2.19 1.71 2.19 1.68 2.2 1.67 2.2 1.67"/><polygon class="cls-16" points="2.27 1.72 2.27 1.73 2.27 1.74 2.27 1.75 2.27 1.75 2.27 1.75 2.25 1.74 2.25 1.74 2.25 1.74 2.25 1.72 2.25 1.72 2.25 1.71 2.25 1.7 2.25 1.7 2.26 1.7 2.27 1.71 2.27 1.71 2.27 1.72"/><polygon class="cls-17" points="2.25 1.71 2.25 1.74 2.25 1.74 2.27 1.75 2.27 1.75 2.27 1.75 2.25 1.74 2.25 1.74 2.25 1.71 2.25 1.7 2.25 1.71"/><polygon class="cls-16" points="2.33 1.75 2.33 1.77 2.33 1.77 2.33 1.78 2.33 1.78 2.32 1.78 2.31 1.77 2.3 1.77 2.3 1.77 2.3 1.75 2.3 1.75 2.3 1.74 2.31 1.74 2.31 1.74 2.31 1.74 2.32 1.74 2.32 1.75 2.33 1.75"/><polygon class="cls-17" points="2.31 1.74 2.31 1.77 2.31 1.77 2.32 1.78 2.33 1.78 2.32 1.78 2.31 1.77 2.3 1.77 2.3 1.74 2.31 1.73 2.31 1.74"/><polygon class="cls-16" points="2.38 1.78 2.38 1.8 2.38 1.8 2.38 1.81 2.38 1.81 2.38 1.81 2.36 1.81 2.36 1.8 2.36 1.8 2.36 1.78 2.36 1.78 2.36 1.77 2.36 1.77 2.36 1.77 2.37 1.77 2.38 1.77 2.38 1.78 2.38 1.78"/><polygon class="cls-17" points="2.36 1.77 2.36 1.8 2.37 1.81 2.38 1.81 2.38 1.81 2.38 1.81 2.36 1.81 2.36 1.8 2.36 1.77 2.36 1.77 2.36 1.77"/><polygon class="cls-16" points="2.44 1.81 2.44 1.83 2.44 1.83 2.44 1.84 2.44 1.84 2.43 1.85 2.42 1.84 2.41 1.83 2.41 1.83 2.41 1.82 2.41 1.82 2.41 1.8 2.42 1.8 2.42 1.8 2.42 1.8 2.43 1.8 2.43 1.81 2.44 1.81"/><polygon class="cls-17" points="2.42 1.8 2.42 1.83 2.42 1.84 2.43 1.84 2.43 1.84 2.43 1.85 2.42 1.84 2.41 1.83 2.41 1.8 2.42 1.8 2.42 1.8"/><polygon class="cls-16" points="2.49 1.84 2.49 1.86 2.49 1.86 2.49 1.87 2.49 1.88 2.48 1.88 2.47 1.87 2.47 1.86 2.47 1.86 2.47 1.85 2.47 1.85 2.47 1.83 2.47 1.83 2.47 1.83 2.47 1.83 2.48 1.84 2.49 1.84 2.49 1.84"/><polygon class="cls-17" points="2.47 1.83 2.47 1.86 2.47 1.87 2.49 1.88 2.49 1.88 2.48 1.88 2.47 1.87 2.47 1.86 2.47 1.83 2.47 1.83 2.47 1.83"/><polygon class="cls-16" points="2.54 1.88 2.54 1.89 2.54 1.9 2.54 1.9 2.54 1.91 2.54 1.91 2.53 1.9 2.52 1.9 2.52 1.9 2.52 1.88 2.52 1.88 2.52 1.86 2.53 1.86 2.53 1.86 2.53 1.86 2.54 1.87 2.54 1.87 2.54 1.88"/><polygon class="cls-17" points="2.52 1.86 2.52 1.89 2.53 1.9 2.54 1.91 2.54 1.91 2.54 1.91 2.53 1.9 2.52 1.9 2.52 1.86 2.52 1.86 2.52 1.86"/><polygon class="cls-16" points="2.6 1.91 2.6 1.92 2.6 1.93 2.6 1.93 2.6 1.94 2.59 1.94 2.58 1.93 2.58 1.93 2.58 1.93 2.58 1.91 2.58 1.91 2.58 1.9 2.58 1.89 2.58 1.89 2.58 1.89 2.6 1.9 2.6 1.9 2.6 1.91"/><polygon class="cls-17" points="2.58 1.89 2.58 1.93 2.58 1.93 2.6 1.94 2.6 1.94 2.59 1.94 2.58 1.93 2.58 1.93 2.58 1.9 2.58 1.89 2.58 1.89"/><polygon class="cls-16" points="2.65 1.94 2.65 1.96 2.65 1.96 2.65 1.97 2.65 1.97 2.65 1.97 2.63 1.97 2.63 1.96 2.63 1.96 2.63 1.94 2.63 1.94 2.63 1.93 2.64 1.92 2.64 1.92 2.64 1.93 2.65 1.93 2.65 1.93 2.65 1.94"/><polygon class="cls-17" points="2.63 1.93 2.63 1.96 2.64 1.96 2.65 1.97 2.65 1.97 2.65 1.97 2.63 1.97 2.63 1.96 2.63 1.93 2.63 1.92 2.63 1.93"/><polygon class="cls-16" points="2.71 1.97 2.71 1.99 2.71 1.99 2.71 2 2.71 2 2.7 2 2.69 2 2.69 1.99 2.69 1.99 2.69 1.97 2.69 1.97 2.69 1.96 2.69 1.96 2.69 1.96 2.69 1.96 2.7 1.96 2.71 1.97 2.71 1.97"/><polygon class="cls-17" points="2.69 1.96 2.69 1.99 2.69 2 2.71 2 2.71 2 2.7 2 2.69 2 2.69 1.99 2.69 1.96 2.69 1.96 2.69 1.96"/><polygon class="cls-16" points="2.76 2 2.76 2.02 2.76 2.02 2.76 2.03 2.76 2.03 2.76 2.04 2.75 2.03 2.74 2.02 2.74 2.02 2.74 2 2.74 2 2.74 1.99 2.75 1.99 2.75 1.99 2.75 1.99 2.76 1.99 2.76 2 2.76 2"/><polygon class="cls-17" points="2.74 1.99 2.74 2.02 2.75 2.03 2.76 2.03 2.76 2.03 2.76 2.04 2.75 2.03 2.74 2.02 2.74 1.99 2.74 1.99 2.74 1.99"/><polygon class="cls-16" points="2.82 2.03 2.82 2.05 2.82 2.05 2.82 2.06 2.82 2.06 2.81 2.07 2.8 2.06 2.79 2.05 2.79 2.05 2.79 2.04 2.79 2.04 2.79 2.02 2.8 2.02 2.8 2.02 2.8 2.02 2.81 2.03 2.82 2.03 2.82 2.03"/><polygon class="cls-17" points="2.8 2.02 2.8 2.05 2.8 2.06 2.81 2.06 2.82 2.07 2.81 2.07 2.8 2.06 2.79 2.05 2.79 2.02 2.8 2.02 2.8 2.02"/><polygon class="cls-16" points="2.87 2.06 2.87 2.08 2.87 2.08 2.87 2.09 2.87 2.1 2.87 2.1 2.85 2.09 2.85 2.08 2.85 2.08 2.85 2.07 2.85 2.07 2.85 2.05 2.85 2.05 2.86 2.05 2.86 2.05 2.87 2.06 2.87 2.06 2.87 2.06"/><polygon class="cls-17" points="2.85 2.05 2.85 2.08 2.86 2.09 2.87 2.1 2.87 2.1 2.87 2.1 2.85 2.09 2.85 2.08 2.85 2.05 2.85 2.05 2.85 2.05"/><polygon class="cls-16" points="2.93 2.1 2.93 2.11 2.93 2.12 2.93 2.12 2.93 2.13 2.92 2.13 2.91 2.12 2.9 2.12 2.9 2.12 2.9 2.1 2.9 2.1 2.9 2.08 2.91 2.08 2.91 2.08 2.91 2.08 2.92 2.09 2.92 2.09 2.93 2.1"/><polygon class="cls-17" points="2.91 2.08 2.91 2.11 2.91 2.12 2.92 2.13 2.92 2.13 2.92 2.13 2.91 2.12 2.9 2.12 2.9 2.08 2.91 2.08 2.91 2.08"/><polygon class="cls-16" points="2.21 2.27 2.21 2.29 2.21 2.29 2.21 2.3 2.21 2.3 2.21 2.31 2.19 2.3 2.19 2.29 2.19 2.29 2.19 2.27 2.19 2.27 2.19 2.26 2.19 2.26 2.19 2.26 2.19 2.26 2.21 2.26 2.21 2.27 2.21 2.27"/><polygon class="cls-17" points="2.19 2.26 2.19 2.29 2.19 2.3 2.21 2.3 2.21 2.3 2.21 2.31 2.19 2.3 2.19 2.29 2.19 2.26 2.19 2.26 2.19 2.26"/><polygon class="cls-16" points="2.26 2.3 2.26 2.32 2.26 2.32 2.26 2.33 2.26 2.33 2.26 2.34 2.25 2.33 2.24 2.32 2.24 2.32 2.24 2.31 2.24 2.31 2.24 2.29 2.25 2.29 2.25 2.29 2.25 2.29 2.26 2.3 2.26 2.3 2.26 2.3"/><polygon class="cls-17" points="2.25 2.29 2.25 2.32 2.25 2.33 2.26 2.33 2.26 2.33 2.26 2.34 2.25 2.33 2.24 2.32 2.24 2.29 2.25 2.29 2.25 2.29"/><polygon class="cls-16" points="2.32 2.33 2.32 2.35 2.32 2.35 2.32 2.36 2.32 2.37 2.31 2.37 2.3 2.36 2.3 2.35 2.3 2.35 2.3 2.34 2.3 2.34 2.3 2.32 2.3 2.32 2.3 2.32 2.3 2.32 2.31 2.33 2.32 2.33 2.32 2.33"/><polygon class="cls-17" points="2.3 2.32 2.3 2.35 2.3 2.36 2.32 2.37 2.32 2.37 2.31 2.37 2.3 2.36 2.3 2.35 2.3 2.32 2.3 2.32 2.3 2.32"/><polygon class="cls-16" points="2.37 2.37 2.37 2.38 2.37 2.38 2.37 2.39 2.37 2.4 2.37 2.4 2.36 2.39 2.35 2.39 2.35 2.38 2.35 2.37 2.35 2.37 2.35 2.35 2.36 2.35 2.36 2.35 2.36 2.35 2.37 2.36 2.37 2.36 2.37 2.37"/><polygon class="cls-17" points="2.35 2.35 2.35 2.38 2.36 2.39 2.37 2.4 2.37 2.4 2.37 2.4 2.36 2.39 2.35 2.38 2.35 2.35 2.35 2.35 2.35 2.35"/><polygon class="cls-16" points="2.43 2.4 2.43 2.41 2.43 2.42 2.43 2.42 2.43 2.43 2.42 2.43 2.41 2.42 2.41 2.42 2.41 2.42 2.41 2.4 2.41 2.4 2.41 2.39 2.41 2.38 2.41 2.38 2.41 2.38 2.42 2.39 2.43 2.39 2.43 2.4"/><polygon class="cls-17" points="2.41 2.38 2.41 2.42 2.41 2.42 2.42 2.43 2.43 2.43 2.42 2.43 2.41 2.42 2.41 2.42 2.41 2.39 2.41 2.38 2.41 2.38"/><polygon class="cls-16" points="2.48 2.43 2.48 2.44 2.48 2.45 2.48 2.46 2.48 2.46 2.48 2.46 2.46 2.46 2.46 2.45 2.46 2.45 2.46 2.43 2.46 2.43 2.46 2.42 2.47 2.41 2.47 2.42 2.47 2.42 2.48 2.42 2.48 2.42 2.48 2.43"/><polygon class="cls-17" points="2.46 2.42 2.46 2.45 2.47 2.45 2.48 2.46 2.48 2.46 2.48 2.46 2.46 2.46 2.46 2.45 2.46 2.42 2.46 2.41 2.46 2.42"/><polygon class="cls-16" points="2.54 2.46 2.54 2.48 2.54 2.48 2.54 2.49 2.54 2.49 2.53 2.49 2.52 2.49 2.52 2.48 2.52 2.48 2.52 2.46 2.52 2.46 2.52 2.45 2.52 2.45 2.52 2.45 2.52 2.45 2.53 2.45 2.54 2.46 2.54 2.46"/><polygon class="cls-17" points="2.52 2.45 2.52 2.48 2.52 2.48 2.54 2.49 2.54 2.49 2.53 2.49 2.52 2.49 2.52 2.48 2.52 2.45 2.52 2.44 2.52 2.45"/><polygon class="cls-16" points="2.59 2.49 2.59 2.51 2.59 2.51 2.59 2.52 2.59 2.52 2.59 2.52 2.57 2.52 2.57 2.51 2.57 2.51 2.57 2.5 2.57 2.5 2.57 2.48 2.58 2.48 2.58 2.48 2.58 2.48 2.59 2.48 2.59 2.49 2.59 2.49"/><polygon class="cls-17" points="2.57 2.48 2.57 2.51 2.58 2.52 2.59 2.52 2.59 2.52 2.59 2.52 2.57 2.52 2.57 2.51 2.57 2.48 2.57 2.48 2.57 2.48"/><polygon class="cls-16" points="2.65 2.52 2.65 2.54 2.65 2.54 2.65 2.55 2.65 2.55 2.64 2.56 2.63 2.55 2.63 2.54 2.63 2.54 2.63 2.53 2.63 2.53 2.63 2.51 2.63 2.51 2.63 2.51 2.63 2.51 2.64 2.52 2.65 2.52 2.65 2.52"/><polygon class="cls-17" points="2.63 2.51 2.63 2.54 2.63 2.55 2.64 2.56 2.65 2.56 2.64 2.56 2.63 2.55 2.63 2.54 2.63 2.51 2.63 2.51 2.63 2.51"/><polygon class="cls-16" points="2.7 2.56 2.7 2.57 2.7 2.57 2.7 2.58 2.7 2.59 2.7 2.59 2.68 2.58 2.68 2.58 2.68 2.57 2.68 2.56 2.68 2.56 2.68 2.54 2.68 2.54 2.69 2.54 2.69 2.54 2.7 2.55 2.7 2.55 2.7 2.56"/><polygon class="cls-17" points="2.68 2.54 2.68 2.57 2.69 2.58 2.7 2.59 2.7 2.59 2.7 2.59 2.68 2.58 2.68 2.57 2.68 2.54 2.68 2.54 2.68 2.54"/><polygon class="cls-16" points="2.76 2.59 2.76 2.6 2.76 2.61 2.76 2.61 2.76 2.62 2.75 2.62 2.74 2.61 2.73 2.61 2.73 2.61 2.73 2.59 2.73 2.59 2.73 2.58 2.74 2.57 2.74 2.57 2.74 2.57 2.75 2.58 2.75 2.58 2.76 2.59"/><polygon class="cls-17" points="2.74 2.57 2.74 2.6 2.74 2.61 2.75 2.62 2.75 2.62 2.75 2.62 2.74 2.61 2.73 2.61 2.73 2.58 2.74 2.57 2.74 2.57"/><polygon class="cls-16" points="2.81 2.62 2.81 2.63 2.81 2.64 2.81 2.65 2.81 2.65 2.81 2.65 2.79 2.64 2.79 2.64 2.79 2.64 2.79 2.62 2.79 2.62 2.79 2.61 2.79 2.6 2.79 2.6 2.79 2.6 2.81 2.61 2.81 2.61 2.81 2.62"/><polygon class="cls-17" points="2.79 2.6 2.79 2.64 2.79 2.64 2.81 2.65 2.81 2.65 2.81 2.65 2.79 2.64 2.79 2.64 2.79 2.61 2.79 2.6 2.79 2.6"/><polygon class="cls-16" points="2.87 2.65 2.87 2.67 2.87 2.67 2.87 2.68 2.87 2.68 2.86 2.68 2.85 2.67 2.84 2.67 2.84 2.67 2.84 2.65 2.84 2.65 2.84 2.64 2.85 2.63 2.85 2.63 2.85 2.64 2.86 2.64 2.86 2.65 2.87 2.65"/><polygon class="cls-17" points="2.85 2.64 2.85 2.67 2.85 2.67 2.86 2.68 2.86 2.68 2.86 2.68 2.85 2.67 2.84 2.67 2.84 2.64 2.85 2.63 2.85 2.64"/><polygon class="cls-16" points="2.92 2.68 2.92 2.7 2.92 2.7 2.92 2.71 2.92 2.71 2.92 2.71 2.9 2.71 2.9 2.7 2.9 2.7 2.9 2.69 2.9 2.69 2.9 2.67 2.9 2.67 2.9 2.67 2.9 2.67 2.92 2.67 2.92 2.68 2.92 2.68"/><polygon class="cls-17" points="2.9 2.67 2.9 2.7 2.9 2.71 2.92 2.71 2.92 2.71 2.92 2.71 2.9 2.71 2.9 2.7 2.9 2.67 2.9 2.67 2.9 2.67"/><polygon class="cls-16" points="2.97 2.71 2.97 2.73 2.97 2.73 2.97 2.74 2.97 2.74 2.97 2.75 2.96 2.74 2.95 2.73 2.95 2.73 2.95 2.72 2.95 2.72 2.95 2.7 2.96 2.7 2.96 2.7 2.96 2.7 2.97 2.71 2.97 2.71 2.97 2.71"/><polygon class="cls-17" points="2.96 2.7 2.96 2.73 2.96 2.74 2.97 2.75 2.97 2.75 2.97 2.75 2.96 2.74 2.95 2.73 2.95 2.7 2.96 2.7 2.96 2.7"/><polygon class="cls-16" points="3.03 2.74 3.03 2.76 3.03 2.76 3.03 2.77 3.03 2.77 3.02 2.78 3.01 2.77 3.01 2.76 3.01 2.76 3.01 2.75 3.01 2.75 3.01 2.73 3.01 2.73 3.01 2.73 3.01 2.73 3.02 2.74 3.03 2.74 3.03 2.74"/><polygon class="cls-17" points="3.01 2.73 3.01 2.76 3.01 2.77 3.03 2.78 3.03 2.78 3.02 2.78 3.01 2.77 3.01 2.76 3.01 2.73 3.01 2.73 3.01 2.73"/><polygon class="cls-16" points="3.08 2.77 3.08 2.79 3.08 2.79 3.08 2.8 3.08 2.81 3.08 2.81 3.06 2.8 3.06 2.79 3.06 2.79 3.06 2.78 3.06 2.78 3.06 2.76 3.07 2.76 3.07 2.76 3.07 2.76 3.08 2.77 3.08 2.77 3.08 2.77"/><polygon class="cls-17" points="3.06 2.76 3.06 2.79 3.07 2.8 3.08 2.81 3.08 2.81 3.08 2.81 3.06 2.8 3.06 2.79 3.06 2.76 3.06 2.76 3.06 2.76"/><polygon class="cls-16" points="3.14 2.81 3.14 2.82 3.14 2.83 3.14 2.83 3.14 2.84 3.13 2.84 3.12 2.83 3.12 2.83 3.12 2.83 3.12 2.81 3.12 2.81 3.12 2.79 3.12 2.79 3.12 2.79 3.12 2.79 3.13 2.8 3.14 2.8 3.14 2.81"/><polygon class="cls-17" points="3.12 2.79 3.12 2.83 3.12 2.83 3.13 2.84 3.14 2.84 3.13 2.84 3.12 2.83 3.12 2.83 3.12 2.79 3.12 2.79 3.12 2.79"/><polygon class="cls-16" points="3.19 2.84 3.19 2.85 3.19 2.86 3.19 2.87 3.19 2.87 3.19 2.87 3.17 2.87 3.17 2.86 3.17 2.86 3.17 2.84 3.17 2.84 3.17 2.83 3.18 2.82 3.18 2.82 3.18 2.83 3.19 2.83 3.19 2.83 3.19 2.84"/><polygon class="cls-17" points="3.17 2.83 3.17 2.86 3.18 2.86 3.19 2.87 3.19 2.87 3.19 2.87 3.17 2.87 3.17 2.86 3.17 2.83 3.17 2.82 3.17 2.83"/><polygon class="cls-16" points="3.25 2.87 3.25 2.89 3.25 2.89 3.25 2.9 3.25 2.9 3.24 2.9 3.23 2.9 3.23 2.89 3.23 2.89 3.23 2.87 3.23 2.87 3.23 2.86 3.23 2.85 3.23 2.86 3.23 2.86 3.24 2.86 3.25 2.87 3.25 2.87"/><polygon class="cls-17" points="3.23 2.86 3.23 2.89 3.23 2.9 3.24 2.9 3.25 2.9 3.24 2.9 3.23 2.9 3.23 2.89 3.23 2.86 3.23 2.85 3.23 2.86"/><polygon class="cls-16" points="3.3 2.9 3.3 2.92 3.3 2.92 3.3 2.93 3.3 2.93 3.3 2.94 3.28 2.93 3.28 2.92 3.28 2.92 3.28 2.9 3.28 2.9 3.28 2.89 3.29 2.89 3.29 2.89 3.29 2.89 3.3 2.89 3.3 2.9 3.3 2.9"/><polygon class="cls-17" points="3.28 2.89 3.28 2.92 3.29 2.93 3.3 2.93 3.3 2.93 3.3 2.94 3.28 2.93 3.28 2.92 3.28 2.89 3.28 2.89 3.28 2.89"/><polygon class="cls-16" points="0.24 1.15 0.24 1.17 0.24 1.17 0.24 1.18 0.24 1.18 0.23 1.19 0.22 1.18 0.22 1.17 0.22 1.17 0.22 1.16 0.22 1.16 0.22 1.14 0.22 1.14 0.22 1.14 0.22 1.14 0.23 1.14 0.24 1.15 0.24 1.15"/><polygon class="cls-17" points="0.22 1.14 0.22 1.17 0.22 1.18 0.24 1.18 0.24 1.18 0.23 1.19 0.22 1.18 0.22 1.17 0.22 1.14 0.22 1.14 0.22 1.14"/><polygon class="cls-16" points="0.29 1.18 0.29 1.2 0.29 1.2 0.29 1.21 0.29 1.21 0.29 1.22 0.28 1.21 0.27 1.2 0.27 1.2 0.27 1.19 0.27 1.19 0.27 1.17 0.28 1.17 0.28 1.17 0.28 1.17 0.29 1.18 0.29 1.18 0.29 1.18"/><polygon class="cls-17" points="0.27 1.17 0.27 1.2 0.28 1.21 0.29 1.22 0.29 1.22 0.29 1.22 0.28 1.21 0.27 1.2 0.27 1.17 0.28 1.17 0.27 1.17"/><polygon class="cls-16" points="0.35 1.21 0.35 1.23 0.35 1.23 0.35 1.24 0.35 1.25 0.34 1.25 0.33 1.24 0.33 1.23 0.33 1.23 0.33 1.22 0.33 1.22 0.33 1.2 0.33 1.2 0.33 1.2 0.33 1.2 0.34 1.21 0.35 1.21 0.35 1.21"/><polygon class="cls-17" points="0.33 1.2 0.33 1.23 0.33 1.24 0.35 1.25 0.35 1.25 0.34 1.25 0.33 1.24 0.33 1.23 0.33 1.2 0.33 1.2 0.33 1.2"/><polygon class="cls-16" points="0.4 1.25 0.4 1.26 0.4 1.26 0.4 1.27 0.4 1.28 0.4 1.28 0.39 1.27 0.38 1.26 0.38 1.26 0.38 1.25 0.38 1.25 0.38 1.23 0.39 1.23 0.39 1.23 0.39 1.23 0.4 1.24 0.4 1.24 0.4 1.25"/><polygon class="cls-17" points="0.38 1.23 0.38 1.26 0.39 1.27 0.4 1.28 0.4 1.28 0.4 1.28 0.39 1.27 0.38 1.26 0.38 1.23 0.38 1.23 0.38 1.23"/><polygon class="cls-16" points="0.46 1.28 0.46 1.29 0.46 1.3 0.46 1.3 0.46 1.31 0.45 1.31 0.44 1.3 0.44 1.3 0.44 1.3 0.44 1.28 0.44 1.28 0.44 1.27 0.44 1.26 0.44 1.26 0.44 1.26 0.45 1.27 0.46 1.27 0.46 1.28"/><polygon class="cls-17" points="0.44 1.26 0.44 1.29 0.44 1.3 0.46 1.31 0.46 1.31 0.45 1.31 0.44 1.3 0.44 1.3 0.44 1.27 0.44 1.26 0.44 1.26"/><polygon class="cls-16" points="0.51 1.31 0.51 1.32 0.51 1.33 0.51 1.34 0.51 1.34 0.51 1.34 0.49 1.33 0.49 1.33 0.49 1.33 0.49 1.31 0.49 1.31 0.49 1.3 0.49 1.29 0.5 1.29 0.5 1.29 0.51 1.3 0.51 1.3 0.51 1.31"/><polygon class="cls-17" points="0.49 1.3 0.49 1.33 0.5 1.33 0.51 1.34 0.51 1.34 0.51 1.34 0.49 1.33 0.49 1.33 0.49 1.3 0.49 1.29 0.49 1.3"/><polygon class="cls-16" points="0.57 1.34 0.57 1.36 0.57 1.36 0.57 1.37 0.57 1.37 0.56 1.37 0.55 1.37 0.55 1.36 0.55 1.36 0.55 1.34 0.55 1.34 0.55 1.33 0.55 1.33 0.55 1.33 0.55 1.33 0.56 1.33 0.57 1.34 0.57 1.34"/><polygon class="cls-17" points="0.55 1.33 0.55 1.36 0.55 1.36 0.56 1.37 0.57 1.37 0.56 1.37 0.55 1.37 0.55 1.36 0.55 1.33 0.55 1.32 0.55 1.33"/><polygon class="cls-16" points="0.62 1.37 0.62 1.39 0.62 1.39 0.62 1.4 0.62 1.4 0.62 1.41 0.6 1.4 0.6 1.39 0.6 1.39 0.6 1.38 0.6 1.38 0.6 1.36 0.6 1.36 0.6 1.36 0.61 1.36 0.62 1.36 0.62 1.37 0.62 1.37"/><polygon class="cls-17" points="0.6 1.36 0.6 1.39 0.61 1.4 0.62 1.4 0.62 1.4 0.62 1.41 0.6 1.4 0.6 1.39 0.6 1.36 0.6 1.36 0.6 1.36"/><polygon class="cls-16" points="0.68 1.4 0.68 1.42 0.68 1.42 0.68 1.43 0.68 1.43 0.67 1.44 0.66 1.43 0.65 1.42 0.65 1.42 0.65 1.41 0.65 1.41 0.65 1.39 0.66 1.39 0.66 1.39 0.66 1.39 0.67 1.4 0.68 1.4 0.68 1.4"/><polygon class="cls-17" points="0.66 1.39 0.66 1.42 0.66 1.43 0.67 1.44 0.68 1.44 0.67 1.44 0.66 1.43 0.65 1.42 0.65 1.39 0.66 1.39 0.66 1.39"/><polygon class="cls-16" points="0.73 1.44 0.73 1.45 0.73 1.45 0.73 1.46 0.73 1.47 0.73 1.47 0.71 1.46 0.71 1.46 0.71 1.45 0.71 1.44 0.71 1.44 0.71 1.42 0.71 1.42 0.71 1.42 0.71 1.42 0.73 1.43 0.73 1.43 0.73 1.44"/><polygon class="cls-17" points="0.71 1.42 0.71 1.45 0.71 1.46 0.73 1.47 0.73 1.47 0.73 1.47 0.71 1.46 0.71 1.45 0.71 1.42 0.71 1.42 0.71 1.42"/><polygon class="cls-16" points="0.79 1.47 0.79 1.48 0.79 1.49 0.79 1.49 0.79 1.5 0.78 1.5 0.77 1.49 0.76 1.49 0.76 1.49 0.76 1.47 0.76 1.47 0.76 1.46 0.77 1.45 0.77 1.45 0.77 1.45 0.78 1.46 0.78 1.46 0.79 1.47"/><polygon class="cls-17" points="0.77 1.45 0.77 1.48 0.77 1.49 0.78 1.5 0.78 1.5 0.78 1.5 0.77 1.49 0.76 1.49 0.76 1.46 0.77 1.45 0.77 1.45"/><polygon class="cls-16" points="0.84 1.5 0.84 1.51 0.84 1.52 0.84 1.52 0.84 1.53 0.83 1.53 0.82 1.52 0.82 1.52 0.82 1.52 0.82 1.5 0.82 1.5 0.82 1.49 0.82 1.48 0.82 1.48 0.82 1.48 0.84 1.49 0.84 1.49 0.84 1.5"/><polygon class="cls-17" points="0.82 1.49 0.82 1.52 0.82 1.52 0.84 1.53 0.84 1.53 0.83 1.53 0.82 1.52 0.82 1.52 0.82 1.49 0.82 1.48 0.82 1.49"/><polygon class="cls-16" points="0.89 1.53 0.89 1.55 0.89 1.55 0.89 1.56 0.89 1.56 0.89 1.56 0.88 1.55 0.87 1.55 0.87 1.55 0.87 1.53 0.87 1.53 0.87 1.52 0.88 1.51 0.88 1.51 0.88 1.52 0.89 1.52 0.89 1.52 0.89 1.53"/><polygon class="cls-17" points="0.88 1.52 0.88 1.55 0.88 1.55 0.89 1.56 0.89 1.56 0.89 1.56 0.88 1.55 0.87 1.55 0.87 1.52 0.88 1.51 0.88 1.52"/><polygon class="cls-16" points="0.95 1.56 0.95 1.58 0.95 1.58 0.95 1.59 0.95 1.59 0.94 1.59 0.93 1.59 0.93 1.58 0.93 1.58 0.93 1.56 0.93 1.56 0.93 1.55 0.93 1.55 0.93 1.55 0.93 1.55 0.94 1.55 0.95 1.56 0.95 1.56"/><polygon class="cls-17" points="0.93 1.55 0.93 1.58 0.93 1.59 0.95 1.59 0.95 1.59 0.94 1.59 0.93 1.59 0.93 1.58 0.93 1.55 0.93 1.55 0.93 1.55"/><polygon class="cls-16" points="1 1.59 1 1.61 1 1.61 1 1.62 1 1.62 1 1.63 0.99 1.62 0.98 1.61 0.98 1.61 0.98 1.6 0.98 1.6 0.98 1.58 0.99 1.58 0.99 1.58 0.99 1.58 1 1.58 1 1.59 1 1.59"/><polygon class="cls-17" points="0.98 1.58 0.98 1.61 0.99 1.62 1 1.63 1 1.63 1 1.63 0.99 1.62 0.98 1.61 0.98 1.58 0.98 1.58 0.98 1.58"/><polygon class="cls-16" points="1.06 1.62 1.06 1.64 1.06 1.64 1.06 1.65 1.06 1.66 1.05 1.66 1.04 1.65 1.04 1.64 1.04 1.64 1.04 1.63 1.04 1.63 1.04 1.61 1.04 1.61 1.04 1.61 1.04 1.61 1.05 1.62 1.06 1.62 1.06 1.62"/><polygon class="cls-17" points="1.04 1.61 1.04 1.64 1.04 1.65 1.06 1.66 1.06 1.66 1.05 1.66 1.04 1.65 1.04 1.64 1.04 1.61 1.04 1.61 1.04 1.61"/><polygon class="cls-16" points="1.11 1.66 1.11 1.67 1.11 1.68 1.11 1.68 1.11 1.69 1.11 1.69 1.09 1.68 1.09 1.68 1.09 1.68 1.09 1.66 1.09 1.66 1.09 1.64 1.1 1.64 1.1 1.64 1.1 1.64 1.11 1.65 1.11 1.65 1.11 1.66"/><polygon class="cls-17" points="1.09 1.64 1.09 1.67 1.1 1.68 1.11 1.69 1.11 1.69 1.11 1.69 1.09 1.68 1.09 1.68 1.09 1.64 1.09 1.64 1.09 1.64"/><polygon class="cls-16" points="1.17 1.69 1.17 1.7 1.17 1.71 1.17 1.71 1.17 1.72 1.16 1.72 1.15 1.71 1.15 1.71 1.15 1.71 1.15 1.69 1.15 1.69 1.15 1.68 1.15 1.67 1.15 1.67 1.15 1.67 1.16 1.68 1.17 1.68 1.17 1.69"/><polygon class="cls-17" points="1.15 1.67 1.15 1.71 1.15 1.71 1.17 1.72 1.17 1.72 1.16 1.72 1.15 1.71 1.15 1.71 1.15 1.68 1.15 1.67 1.15 1.67"/><polygon class="cls-16" points="1.22 1.72 1.22 1.74 1.22 1.74 1.22 1.75 1.22 1.75 1.22 1.75 1.2 1.74 1.2 1.74 1.2 1.74 1.2 1.72 1.2 1.72 1.2 1.71 1.21 1.7 1.21 1.7 1.21 1.71 1.22 1.71 1.22 1.71 1.22 1.72"/><polygon class="cls-17" points="1.2 1.71 1.2 1.74 1.21 1.74 1.22 1.75 1.22 1.75 1.22 1.75 1.2 1.74 1.2 1.74 1.2 1.71 1.2 1.7 1.2 1.71"/><polygon class="cls-16" points="1.28 1.75 1.28 1.77 1.28 1.77 1.28 1.78 1.28 1.78 1.27 1.78 1.26 1.78 1.25 1.77 1.25 1.77 1.25 1.75 1.25 1.75 1.25 1.74 1.26 1.74 1.26 1.74 1.26 1.74 1.27 1.74 1.27 1.75 1.28 1.75"/><polygon class="cls-17" points="1.26 1.74 1.26 1.77 1.26 1.77 1.27 1.78 1.28 1.78 1.27 1.78 1.26 1.78 1.25 1.77 1.25 1.74 1.26 1.74 1.26 1.74"/><polygon class="cls-16" points="1.33 1.78 1.33 1.8 1.33 1.8 1.33 1.81 1.33 1.81 1.33 1.81 1.31 1.81 1.31 1.8 1.31 1.8 1.31 1.78 1.31 1.78 1.31 1.77 1.31 1.77 1.31 1.77 1.32 1.77 1.33 1.77 1.33 1.78 1.33 1.78"/><polygon class="cls-17" points="1.31 1.77 1.31 1.8 1.32 1.81 1.33 1.81 1.33 1.81 1.33 1.81 1.31 1.81 1.31 1.8 1.31 1.77 1.31 1.77 1.31 1.77"/><polygon class="cls-16" points="1.19 1.82 1.19 1.83 1.19 1.84 1.19 1.85 1.19 1.85 1.19 1.85 1.18 1.84 1.17 1.84 1.17 1.84 1.17 1.82 1.17 1.82 1.17 1.81 1.18 1.8 1.18 1.8 1.18 1.8 1.19 1.81 1.19 1.81 1.19 1.82"/><polygon class="cls-17" points="1.17 1.81 1.17 1.84 1.18 1.84 1.19 1.85 1.19 1.85 1.19 1.85 1.18 1.84 1.17 1.84 1.17 1.81 1.17 1.8 1.17 1.81"/><polygon class="cls-16" points="1.25 1.85 1.25 1.87 1.25 1.87 1.25 1.88 1.25 1.88 1.24 1.88 1.23 1.88 1.23 1.87 1.23 1.87 1.23 1.85 1.23 1.85 1.23 1.84 1.23 1.84 1.23 1.84 1.23 1.84 1.24 1.84 1.25 1.85 1.25 1.85"/><polygon class="cls-17" points="1.23 1.84 1.23 1.87 1.23 1.88 1.25 1.88 1.25 1.88 1.24 1.88 1.23 1.88 1.23 1.87 1.23 1.84 1.23 1.83 1.23 1.84"/><polygon class="cls-16" points="1.3 1.88 1.3 1.9 1.3 1.9 1.3 1.91 1.3 1.91 1.3 1.92 1.28 1.91 1.28 1.9 1.28 1.9 1.28 1.89 1.28 1.89 1.28 1.87 1.28 1.87 1.29 1.87 1.29 1.87 1.3 1.88 1.3 1.88 1.3 1.88"/><polygon class="cls-17" points="1.28 1.87 1.28 1.9 1.29 1.91 1.3 1.91 1.3 1.92 1.3 1.92 1.28 1.91 1.28 1.9 1.28 1.87 1.28 1.87 1.28 1.87"/><polygon class="cls-16" points="1.36 1.91 1.36 1.93 1.36 1.93 1.36 1.94 1.36 1.94 1.35 1.95 1.34 1.94 1.33 1.93 1.33 1.93 1.33 1.92 1.33 1.92 1.33 1.9 1.34 1.9 1.34 1.9 1.34 1.9 1.35 1.91 1.35 1.91 1.36 1.91"/><polygon class="cls-17" points="1.34 1.9 1.34 1.93 1.34 1.94 1.35 1.95 1.36 1.95 1.35 1.95 1.34 1.94 1.33 1.93 1.33 1.9 1.34 1.9 1.34 1.9"/><polygon class="cls-16" points="1.41 1.95 1.41 1.96 1.41 1.96 1.41 1.97 1.41 1.98 1.41 1.98 1.39 1.97 1.39 1.97 1.39 1.96 1.39 1.95 1.39 1.95 1.39 1.93 1.39 1.93 1.4 1.93 1.4 1.93 1.41 1.94 1.41 1.94 1.41 1.95"/><polygon class="cls-17" points="1.39 1.93 1.39 1.96 1.4 1.97 1.41 1.98 1.41 1.98 1.41 1.98 1.39 1.97 1.39 1.96 1.39 1.93 1.39 1.93 1.39 1.93"/><polygon class="cls-16" points="1.47 1.98 1.47 1.99 1.47 2 1.47 2 1.47 2.01 1.46 2.01 1.45 2 1.44 2 1.44 2 1.44 1.98 1.44 1.98 1.44 1.97 1.45 1.96 1.45 1.96 1.45 1.96 1.46 1.97 1.47 1.97 1.47 1.98"/><polygon class="cls-17" points="1.45 1.96 1.45 1.99 1.45 2 1.46 2.01 1.47 2.01 1.46 2.01 1.45 2 1.44 2 1.44 1.97 1.45 1.96 1.45 1.96"/><polygon class="cls-16" points="1.52 2.01 1.52 2.02 1.52 2.03 1.52 2.04 1.52 2.04 1.52 2.04 1.5 2.03 1.5 2.03 1.5 2.03 1.5 2.01 1.5 2.01 1.5 2 1.5 1.99 1.5 1.99 1.5 1.99 1.52 2 1.52 2 1.52 2.01"/><polygon class="cls-17" points="1.5 2 1.5 2.03 1.5 2.03 1.52 2.04 1.52 2.04 1.51 2.04 1.5 2.03 1.5 2.03 1.5 2 1.5 1.99 1.5 2"/><polygon class="cls-16" points="1.57 2.04 1.57 2.06 1.57 2.06 1.57 2.07 1.57 2.07 1.57 2.07 1.56 2.07 1.55 2.06 1.55 2.06 1.55 2.04 1.55 2.04 1.55 2.03 1.56 2.02 1.56 2.02 1.56 2.03 1.57 2.03 1.57 2.04 1.57 2.04"/><polygon class="cls-17" points="1.56 2.03 1.56 2.06 1.56 2.06 1.57 2.07 1.57 2.07 1.57 2.07 1.56 2.07 1.55 2.06 1.55 2.03 1.56 2.02 1.56 2.03"/><polygon class="cls-16" points="1.63 2.07 1.63 2.09 1.63 2.09 1.63 2.1 1.63 2.1 1.63 2.1 1.61 2.1 1.61 2.09 1.61 2.09 1.61 2.08 1.61 2.08 1.61 2.06 1.61 2.06 1.61 2.06 1.61 2.06 1.63 2.06 1.63 2.07 1.63 2.07"/><polygon class="cls-17" points="1.61 2.06 1.61 2.09 1.61 2.1 1.63 2.1 1.63 2.1 1.63 2.1 1.61 2.1 1.61 2.09 1.61 2.06 1.61 2.06 1.61 2.06"/><polygon class="cls-16" points="1.68 2.1 1.68 2.12 1.68 2.12 1.68 2.13 1.68 2.13 1.68 2.14 1.67 2.13 1.66 2.12 1.66 2.12 1.66 2.11 1.66 2.11 1.66 2.09 1.67 2.09 1.67 2.09 1.67 2.09 1.68 2.1 1.68 2.1 1.68 2.1"/><polygon class="cls-17" points="1.67 2.09 1.67 2.12 1.67 2.13 1.68 2.13 1.68 2.13 1.68 2.14 1.67 2.13 1.66 2.12 1.66 2.09 1.67 2.09 1.67 2.09"/><polygon class="cls-16" points="1.74 2.13 1.74 2.15 1.74 2.15 1.74 2.16 1.74 2.17 1.73 2.17 1.72 2.16 1.72 2.15 1.72 2.15 1.72 2.14 1.72 2.14 1.72 2.12 1.72 2.12 1.72 2.12 1.72 2.12 1.74 2.13 1.74 2.13 1.74 2.13"/><polygon class="cls-17" points="1.72 2.12 1.72 2.15 1.72 2.16 1.74 2.17 1.74 2.17 1.73 2.17 1.72 2.16 1.72 2.15 1.72 2.12 1.72 2.12 1.72 2.12"/><polygon class="cls-16" points="1.79 2.17 1.79 2.18 1.79 2.19 1.79 2.19 1.79 2.2 1.79 2.2 1.78 2.19 1.77 2.19 1.77 2.19 1.77 2.17 1.77 2.17 1.77 2.15 1.78 2.15 1.78 2.15 1.78 2.15 1.79 2.16 1.79 2.16 1.79 2.17"/><polygon class="cls-17" points="1.77 2.15 1.77 2.18 1.78 2.19 1.79 2.2 1.79 2.2 1.79 2.2 1.78 2.19 1.77 2.19 1.77 2.15 1.77 2.15 1.77 2.15"/><polygon class="cls-16" points="1.85 2.2 1.85 2.21 1.85 2.22 1.85 2.22 1.85 2.23 1.84 2.23 1.83 2.22 1.83 2.22 1.83 2.22 1.83 2.2 1.83 2.2 1.83 2.19 1.83 2.18 1.83 2.18 1.83 2.18 1.84 2.19 1.85 2.19 1.85 2.2"/><polygon class="cls-17" points="1.83 2.18 1.83 2.21 1.83 2.22 1.84 2.23 1.85 2.23 1.84 2.23 1.83 2.22 1.83 2.22 1.83 2.19 1.83 2.18 1.83 2.18"/><polygon class="cls-16" points="1.9 2.23 1.9 2.25 1.9 2.25 1.9 2.26 1.9 2.26 1.9 2.26 1.89 2.25 1.88 2.25 1.88 2.25 1.88 2.23 1.88 2.23 1.88 2.22 1.89 2.21 1.89 2.21 1.89 2.21 1.9 2.22 1.9 2.22 1.9 2.23"/><polygon class="cls-17" points="1.88 2.21 1.88 2.25 1.89 2.25 1.9 2.26 1.9 2.26 1.9 2.26 1.89 2.25 1.88 2.25 1.88 2.22 1.88 2.21 1.88 2.21"/><polygon class="cls-16" points="1.96 2.26 1.96 2.28 1.96 2.28 1.96 2.29 1.96 2.29 1.95 2.29 1.94 2.29 1.94 2.28 1.94 2.28 1.94 2.26 1.94 2.26 1.94 2.25 1.94 2.25 1.94 2.25 1.94 2.25 1.95 2.25 1.96 2.26 1.96 2.26"/><polygon class="cls-17" points="1.94 2.25 1.94 2.28 1.94 2.29 1.96 2.29 1.96 2.29 1.95 2.29 1.94 2.29 1.94 2.28 1.94 2.25 1.94 2.25 1.94 2.25"/><polygon class="cls-16" points="2.01 2.29 2.01 2.31 2.01 2.31 2.01 2.32 2.01 2.32 2.01 2.33 1.99 2.32 1.99 2.31 1.99 2.31 1.99 2.29 1.99 2.29 1.99 2.28 2 2.28 2 2.28 2 2.28 2.01 2.28 2.01 2.29 2.01 2.29"/><polygon class="cls-17" points="1.99 2.28 1.99 2.31 2 2.32 2.01 2.32 2.01 2.32 2.01 2.33 1.99 2.32 1.99 2.31 1.99 2.28 1.99 2.28 1.99 2.28"/><polygon class="cls-16" points="2.07 2.32 2.07 2.34 2.07 2.34 2.07 2.35 2.07 2.35 2.06 2.36 2.05 2.35 2.04 2.34 2.04 2.34 2.04 2.33 2.04 2.33 2.04 2.31 2.05 2.31 2.05 2.31 2.05 2.31 2.06 2.32 2.06 2.32 2.07 2.32"/><polygon class="cls-17" points="2.05 2.31 2.05 2.34 2.05 2.35 2.06 2.35 2.07 2.36 2.06 2.36 2.05 2.35 2.04 2.34 2.04 2.31 2.05 2.31 2.05 2.31"/><polygon class="cls-16" points="2.12 2.35 2.12 2.37 2.12 2.37 2.12 2.38 2.12 2.38 2.12 2.39 2.1 2.38 2.1 2.37 2.1 2.37 2.1 2.36 2.1 2.36 2.1 2.34 2.1 2.34 2.1 2.34 2.11 2.34 2.12 2.35 2.12 2.35 2.12 2.35"/><polygon class="cls-17" points="2.1 2.34 2.1 2.37 2.1 2.38 2.12 2.39 2.12 2.39 2.12 2.39 2.1 2.38 2.1 2.37 2.1 2.34 2.1 2.34 2.1 2.34"/><polygon class="cls-16" points="2.18 2.39 2.18 2.4 2.18 2.4 2.18 2.41 2.18 2.42 2.17 2.42 2.16 2.41 2.15 2.41 2.15 2.4 2.15 2.39 2.15 2.39 2.15 2.37 2.16 2.37 2.16 2.37 2.16 2.37 2.17 2.38 2.17 2.38 2.18 2.39"/><polygon class="cls-17" points="2.16 2.37 2.16 2.4 2.16 2.41 2.17 2.42 2.17 2.42 2.17 2.42 2.16 2.41 2.15 2.4 2.15 2.37 2.16 2.37 2.16 2.37"/><polygon class="cls-16" points="2.23 2.42 2.23 2.43 2.23 2.44 2.23 2.44 2.23 2.45 2.23 2.45 2.21 2.44 2.21 2.44 2.21 2.44 2.21 2.42 2.21 2.42 2.21 2.41 2.21 2.4 2.21 2.4 2.21 2.4 2.23 2.41 2.23 2.41 2.23 2.42"/><polygon class="cls-17" points="2.21 2.4 2.21 2.44 2.21 2.44 2.23 2.45 2.23 2.45 2.23 2.45 2.21 2.44 2.21 2.44 2.21 2.41 2.21 2.4 2.21 2.4"/><polygon class="cls-16" points="2.29 2.45 2.29 2.46 2.29 2.47 2.29 2.48 2.29 2.48 2.28 2.48 2.27 2.48 2.26 2.47 2.26 2.47 2.26 2.45 2.26 2.45 2.26 2.44 2.27 2.44 2.27 2.44 2.27 2.44 2.28 2.44 2.28 2.44 2.29 2.45"/><polygon class="cls-17" points="2.27 2.44 2.27 2.47 2.27 2.47 2.28 2.48 2.28 2.48 2.28 2.48 2.27 2.48 2.26 2.47 2.26 2.44 2.27 2.43 2.27 2.44"/><polygon class="cls-30" points="2.53 1.63 2.53 1.61 3.07 1.73 3.07 1.75 2.9 1.84 2.53 1.63"/><polygon class="cls-31" points="2.53 1.61 2.7 1.52 3.07 1.73 2.9 1.83 2.53 1.61"/><polygon class="cls-14" points="1.87 1.25 1.87 1.06 1.88 1.06 1.89 1.25 1.87 1.25"/><polygon class="cls-14" points="2 1.17 1.99 0.98 2.01 0.98 2.01 1.17 2 1.17"/><polygon class="cls-14" points="2.12 1.1 2.11 0.91 2.13 0.91 2.13 1.1 2.12 1.1"/><rect class="cls-14" x="2.24" y="0.83" width="0.02" height="0.19" transform="translate(-0.02 0.06) rotate(-1.44)"/><polygon class="cls-32" points="0.98 0.64 2.35 0.68 2.37 0.78 1.7 1.17 0.95 0.73 0.98 0.64"/><polygon class="cls-7" points="1.07 0.59 1.62 0.28 2.26 0.64 1.7 0.96 1.07 0.59"/><rect class="cls-32" x="1.03" y="0.75" width="0.02" height="0.17" transform="matrix(0.94, -0.34, 0.34, 0.94, -0.22, 0.41)"/><rect class="cls-32" x="1.15" y="0.82" width="0.02" height="0.17" transform="translate(-0.24 0.45) rotate(-19.99)"/><polygon class="cls-32" points="1.3 1.06 1.24 0.9 1.26 0.9 1.32 1.05 1.3 1.06"/><polygon class="cls-32" points="1.42 1.13 1.36 0.97 1.38 0.97 1.44 1.12 1.42 1.13"/><rect class="cls-32" x="1.51" y="1.03" width="0.02" height="0.17" transform="translate(-0.29 0.59) rotate(-20)"/><polygon class="cls-32" points="1.66 1.27 1.6 1.11 1.62 1.11 1.68 1.26 1.66 1.27"/></g></g></svg>